<?xml version="1.0" encoding="utf-8"?>
<svg viewBox="0 0 500 500" xmlns="http://www.w3.org/2000/svg">
  <path d="M 449.494 278.423 C 492.522 385.123 401.331 498.276 296.912 446.715 C 178.015 388.006 92.847 374.731 49.111 290.913 C 13.267 192.304 93.504 47.678 190.184 24.34 C 277.326 11.521 402.536 161.975 449.494 278.423 Z" fill="" id="path2" class="fill-me"/>
  <path d="M 408.401 291.129 C 408.401 309.66 393.377 324.684 374.845 324.684 L 139.957 324.684 C 121.426 324.684 106.401 309.66 106.401 291.129 L 106.401 140.129 C 106.401 121.598 121.426 106.573 139.957 106.573 L 374.845 106.573 C 393.377 106.573 408.401 121.598 408.401 140.129 L 408.401 291.129 Z" fill="#545384" id="path4"/>
  <path d="M 139.957 140.129 L 374.845 140.129 L 374.845 291.129 L 139.957 291.129 L 139.957 140.129 Z" fill="#E2F0FC" id="path6"/>
  <path d="M 215.457 324.684 L 299.345 324.684 L 299.345 375.017 L 215.457 375.017 L 215.457 324.684 Z" fill="#545384" id="path8"/>
  <path d="M 215.457 324.684 L 299.345 324.684 L 299.345 341.462 L 215.457 341.462 L 215.457 324.684 Z" fill="#3C3B6E" id="path10"/>
  <path d="M 408.401 383.406 C 408.401 369.506 397.135 358.24 383.234 358.24 L 131.568 358.24 C 117.667 358.24 106.401 369.506 106.401 383.406 C 106.401 397.307 117.667 408.573 131.568 408.573 L 383.234 408.573 C 397.135 408.573 408.401 397.307 408.401 383.406 Z" fill="#4C4B72" id="path12"/>
  <path d="M 131.568 375.017 L 148.345 375.017 L 148.345 391.795 L 131.568 391.795 L 131.568 375.017 Z M 165.123 375.017 L 181.901 375.017 L 181.901 391.795 L 165.123 391.795 L 165.123 375.017 Z M 198.679 375.017 L 215.457 375.017 L 215.457 391.795 L 198.679 391.795 L 198.679 375.017 Z M 232.234 375.017 L 249.012 375.017 L 249.012 391.795 L 232.234 391.795 L 232.234 375.017 Z M 265.79 375.017 L 282.568 375.017 L 282.568 391.795 L 265.79 391.795 L 265.79 375.017 Z M 299.345 375.017 L 316.123 375.017 L 316.123 391.795 L 299.345 391.795 L 299.345 375.017 Z M 332.901 375.017 L 349.679 375.017 L 349.679 391.795 L 332.901 391.795 L 332.901 375.017 Z M 366.457 375.017 L 383.234 375.017 L 383.234 391.795 L 366.457 391.795 L 366.457 375.017 Z" fill="#292F33" id="path14"/>
  <path d="M 310.075 212.313 L 281.4 202.614 L 270.693 170.547 C 270.28 169.31 269.027 168.462 267.612 168.462 C 266.198 168.462 264.944 169.31 264.532 170.547 L 253.828 202.614 L 225.15 212.313 C 223.883 212.743 223.046 213.842 223.046 215.075 C 223.046 216.306 223.883 217.41 225.15 217.837 L 253.811 227.533 L 264.522 260.579 C 264.928 261.827 266.185 262.684 267.612 262.684 C 269.036 262.684 270.296 261.827 270.702 260.576 L 281.413 227.53 L 310.078 217.834 C 311.338 217.41 312.179 216.309 312.179 215.075 C 312.179 213.845 311.338 212.743 310.075 212.313 Z" fill="#FFAC33" id="path16"/>
  <path d="M 245.63 244.705 L 238.174 242.185 L 235.274 232.468 C 234.894 231.184 233.621 230.295 232.168 230.295 C 230.714 230.295 229.442 231.184 229.058 232.465 L 226.158 242.182 L 218.705 244.702 C 217.439 245.129 216.601 246.234 216.601 247.464 C 216.601 248.695 217.439 249.799 218.705 250.226 L 226.12 252.738 L 229.042 263.403 C 229.403 264.71 230.689 265.629 232.168 265.629 C 233.647 265.629 234.932 264.71 235.293 263.4 L 238.216 252.735 L 245.63 250.223 C 246.896 249.799 247.734 248.695 247.734 247.464 C 247.734 246.234 246.896 245.129 245.63 244.705 Z M 231.652 180.92 L 224.035 178.343 L 221.212 171.38 C 220.745 170.223 219.54 169.457 218.19 169.457 C 216.843 169.457 215.638 170.223 215.167 171.38 L 212.348 178.343 L 204.727 180.92 C 203.461 181.35 202.623 182.451 202.623 183.682 C 202.623 184.913 203.461 186.017 204.727 186.444 L 212.348 189.02 L 215.167 195.984 C 215.638 197.141 216.843 197.906 218.19 197.906 C 219.537 197.906 220.742 197.141 221.212 195.984 L 224.032 189.02 L 231.652 186.444 C 232.918 186.014 233.756 184.913 233.756 183.682 C 233.756 182.451 232.918 181.35 231.652 180.92 Z" fill="#FFCC4D" id="path18"/>
</svg>