<?xml version="1.0" encoding="utf-8"?>
<svg viewBox="0 0 500 500" xmlns="http://www.w3.org/2000/svg" width="30">
  <path fill="#D99E82" d="M 246.799 43.369 C 117.968 43.369 13.528 132.893 13.528 243.309 C 13.528 257.123 15.161 270.614 18.284 283.639 C 41.339 323.308 57.292 298.27 130.163 261.828 C 204.382 224.712 130.163 313.666 104.244 365.504 C 96.274 381.444 100.59 394.935 111.502 405.989 C 149.68 429.368 196.309 443.261 246.799 443.261 C 375.629 443.261 480.07 353.749 480.07 243.309 C 480.07 132.893 375.629 43.369 246.799 43.369 Z M 283.721 360.19 C 278.602 377.634 251.84 385.124 223.938 376.921 C 196.037 368.731 177.569 347.97 182.688 330.513 C 187.807 313.07 214.569 305.579 242.47 313.795 C 270.372 321.973 288.84 342.734 283.721 360.19 Z" style=""/>
  <circle fill="#5C913B" cx="143.123" cy="145.192" r="38.879" style=""/>
  <circle fill="#269" cx="272.718" cy="119.273" r="38.879" style=""/>
  <circle fill="#DD2E44" cx="389.354" cy="197.03" r="38.879" style=""/>
  <circle fill="#FFCC4D" cx="376.394" cy="313.666" r="38.879" style=""/>
</svg>