<?xml version="1.0" encoding="utf-8"?>
<svg width="unset" height="unset" viewBox="0 0 1512 2266" fill="none" version="1.1" id="svg8" xmlns="http://www.w3.org/2000/svg">
  <path d="m -426.919,1257.39 c -174.535,85.97 -330.103,255.81 -330.103,255.81 l 9.398,13.59 279.297,403.89 c 0,0 252.408,-250.51 545.0019,-295.13 L 459.186,1573.18 133.781,1102.61 c -274.548,34.85 -346.075,49.06 -560.7,154.78 z" fill="unset" id="path2"/>
  <path d="M1019.89 1418.4C1194.42 1332.43 1349.99 1162.59 1349.99 1162.59L1340.59 1149L1061.29 745.113C1061.29 745.113 808.887 995.625 516.292 1040.24L133.781 1102.61L459.187 1573.18C733.735 1538.33 805.262 1524.12 1019.89 1418.4Z" fill="unset" id="path4"/>
  <path d="m -798.422,2186.487 c 174.53,-85.97 330.1,-255.81 330.1,-255.81 l -9.4,-13.59 -279.3,-403.887 c 0,0 -252.403,250.512 -544.998,295.127 l -382.511,62.37 325.406,470.57 c 274.548,-34.85 346.075,-49.06 560.703,-154.78 z" fill="unset" id="path4-3"/>
  <path d="m 1391.39,489.304 c -174.54,85.969 -330.1,255.809 -330.1,255.809 l 9.39,13.59 279.3,403.889 c 0,0 235.36,-283.378 527.96,-327.994 l 399.55,-29.505 -325.4,-470.566 c -274.55,34.844 -346.08,49.06 -560.7,154.777 z" fill="unset" id="path6"/>
</svg>