<?xml version="1.0" encoding="UTF-8" standalone="no"?>
<svg
   xmlns:dc="http://purl.org/dc/elements/1.1/"
   xmlns:cc="http://creativecommons.org/ns#"
   xmlns:rdf="http://www.w3.org/1999/02/22-rdf-syntax-ns#"
   xmlns:svg="http://www.w3.org/2000/svg"
   xmlns="http://www.w3.org/2000/svg"
   xmlns:sodipodi="http://sodipodi.sourceforge.net/DTD/sodipodi-0.dtd"
   xmlns:inkscape="http://www.inkscape.org/namespaces/inkscape"
   width="50mm"
   height="40mm"
   viewBox="0 0 350 111.02804"
   version="1.1"
   id="svg8"
   sodipodi:docname="acamica.svg"
   inkscape:version="1.0.2 (e86c870879, 2021-01-15)">
  <sodipodi:namedview
     pagecolor="#ffffff"
     bordercolor="#666666"
     borderopacity="1"
     objecttolerance="10"
     gridtolerance="10"
     guidetolerance="10"
     inkscape:pageopacity="0"
     inkscape:pageshadow="2"
     inkscape:window-width="1920"
     inkscape:window-height="1024"
     id="namedview1157"
     showgrid="false"
     inkscape:zoom="1.8100467"
     inkscape:cx="56.692913"
     inkscape:cy="202.20472"
     inkscape:window-x="0"
     inkscape:window-y="30"
     inkscape:window-maximized="1"
     inkscape:current-layer="svg8"
     inkscape:document-rotation="0" />
  <defs
     id="defs2" />
  <metadata
     id="metadata5">
    <rdf:RDF>
      <cc:Work
         rdf:about="">
        <dc:format>image/svg+xml</dc:format>
        <dc:type
           rdf:resource="http://purl.org/dc/dcmitype/StillImage" />
        <dc:title />
      </cc:Work>
    </rdf:RDF>
  </metadata>
  <g
     id="layer1"
     transform="translate(72.149974,-78.335533)">
    <path
       style="stroke-width:0.490347"
       d="m 182.05155,261.05169 -21.92859,-0.1287 -0.72136,-1.60361 c -0.39674,-0.88198 -1.63395,-4.05365 -2.74931,-7.04814 -1.11539,-2.9945 -2.22385,-5.88999 -2.46323,-6.43444 -0.51884,-1.1801 -1.09324,-2.65566 -6.55077,-16.82858 -2.30616,-5.98897 -4.47658,-11.55725 -4.82314,-12.37393 -0.34657,-0.81667 -1.12651,-2.87849 -1.73319,-4.58179 l -1.10305,-3.09693 -32.80235,0.12721 -32.802343,0.1272 -0.657003,1.97983 c -0.361348,1.08892 -0.862748,2.42529 -1.114209,2.96974 -0.251481,0.54447 -1.467094,3.6627 -2.701398,6.92942 -2.585488,6.84281 -3.464981,9.08474 -4.697963,11.97556 -0.487097,1.14203 -0.885642,2.22203 -0.885642,2.39999 0,0.1779 -0.316788,1.02542 -0.703987,1.88324 -0.387199,0.85783 -1.810871,4.45518 -3.16369,7.99412 -1.352837,3.53895 -2.649382,6.87991 -2.881217,7.42437 -0.231835,0.54446 -1.028945,2.60471 -1.771359,4.57836 l -1.349827,3.58844 H 32.422097 c -18.194667,0 -22.025824,-0.11654 -22.025824,-0.6699 0,-0.36845 1.768054,-5.32421 3.928999,-11.0128 2.160945,-5.68859 5.529058,-14.5748 7.484699,-19.7471 1.955641,-5.17231 4.538302,-11.96561 5.739227,-15.0962 1.200943,-3.13061 2.978563,-7.80797 3.950261,-10.39411 0.971715,-2.58616 1.956595,-5.14757 2.188614,-5.69202 0.232018,-0.54445 1.302934,-3.3286 2.379781,-6.18696 8.742081,-23.20471 9.327809,-24.65102 10.106155,-24.95535 0.387841,-0.15171 17.963603,-0.22267 39.057242,-0.15789 21.093639,0.0647 38.352079,0.0526 38.352079,-0.0275 0,-0.20518 -8.2,-21.42122 -8.7437,-22.62276 -0.24636,-0.54445 -1.23408,-3.10586 -2.19495,-5.69202 -0.96084,-2.58613 -2.0353,-5.37029 -2.38767,-6.18696 -0.35237,-0.81668 -1.55706,-3.93492 -2.67707,-6.9294 -1.12003,-2.99449 -2.34949,-6.14639 -2.73214,-7.00422 -0.38266,-0.85783 -0.69574,-1.7053 -0.69574,-1.88326 0,-0.1779 -0.4111,-1.25795 -0.91355,-2.39998 -0.50246,-1.14203 -1.90847,-4.7492 -3.12447,-8.01592 -2.437047,-6.547077 -3.443831,-9.114433 -4.493486,-11.458821 -0.384078,-0.857812 -0.698332,-1.715081 -0.698332,-1.905033 0,-0.189933 -0.31317,-1.047202 -0.695945,-1.905014 C 93.843522,90.132001 91.964538,85.30962 90.05074,80.273437 86.197679,70.13395 85.368016,68.041855 84.718045,66.826401 84.402011,66.235427 85.042746,63.9847 86.972518,58.907073 90.709432,49.074464 91.50713,47.01307 92.015965,45.873875 c 0.2432,-0.544452 1.569434,-3.996782 2.947219,-7.671841 C 104.08808,13.862439 105.75923,9.7419722 106.5057,9.7419722 c 0.37565,0 1.55035,2.3848248 2.80373,5.6920118 1.18648,3.130607 2.36234,6.137475 2.61303,6.681927 0.25071,0.544454 1.55881,3.885419 2.90689,7.424364 1.34808,3.538947 2.65599,6.879912 2.90648,7.424364 0.25049,0.544454 2.7672,7.003649 5.59269,14.35377 2.8255,7.350119 5.34232,13.809317 5.59292,14.353767 0.2506,0.54445 1.91034,4.776352 3.68835,9.404197 1.77799,4.627864 3.61803,9.305209 4.08895,10.394109 0.47094,1.08892 1.8657,4.699962 3.09945,8.024543 1.23377,3.324599 2.5529,6.776935 2.93142,7.671835 0.37851,0.89493 1.1557,2.85216 1.72707,4.34941 0.57137,1.49724 1.23915,3.16773 1.48397,3.71218 0.24479,0.54447 1.11408,2.77177 1.93173,4.94958 0.81768,2.17781 1.69208,4.40512 1.94314,4.94957 0.25106,0.54445 1.12938,2.77177 1.9518,4.94957 0.82243,2.17782 1.78616,4.62787 2.14163,5.44454 0.35549,0.81668 1.23089,3.044 1.94538,4.94957 0.71447,1.9056 1.49039,3.91017 1.72428,4.45462 0.23388,0.54447 1.0122,2.53861 1.72959,4.43144 0.71739,1.89284 1.5956,4.12016 1.95157,4.94959 0.35595,0.82943 1.1871,2.95579 1.84695,4.72527 2.40708,6.45476 4.82334,12.67011 5.71391,14.69784 0.50156,1.14203 0.91933,2.25568 0.9284,2.47479 0.009,0.2191 0.43885,1.28929 0.95508,2.37819 0.51624,1.08892 0.94601,2.36875 0.95508,2.84407 0.0147,0.81711 -3.2572,0.8711 -60.01411,0.98993 l -60.030583,0.12571 -1.941137,4.94957 c -1.067611,2.72227 -2.585525,6.73143 -3.373143,8.90923 -0.787599,2.17782 -1.637843,4.40514 -1.889415,4.94959 -0.251572,0.54445 -1.251857,3.10586 -2.222893,5.69202 -1.999852,5.32629 -6.327471,16.70577 -8.486488,22.3152 -0.794742,2.06486 -1.444988,3.91462 -1.444988,4.11056 0,0.19593 -0.408864,1.29063 -0.908612,2.43266 -0.499747,1.14203 -1.454222,3.52417 -2.121066,5.29365 -0.666844,1.76946 -2.33467,6.1336 -3.706308,9.69808 -1.37162,3.56448 -2.493853,6.62366 -2.493853,6.7982 0,0.17453 5.692757,0.265 12.650572,0.20104 l 12.650572,-0.11617 1.645353,-4.20714 c 0.90494,-2.31393 5.051949,-13.00502 9.215555,-23.75797 4.163607,-10.75294 8.001888,-20.49743 8.529488,-21.65439 l 0.959286,-2.10357 h 56.27896 56.27898 l 0.49677,1.11365 c 0.47849,1.07259 4.52634,11.42236 11.1793,28.58381 1.74132,4.49173 3.4591,8.83498 3.81733,9.65166 1.23915,2.82499 7.98004,20.58944 7.98004,21.02999 0,0.24325 -0.16396,0.51107 -0.36432,0.5952 -0.20039,0.0842 -10.2322,0.095 -22.29293,0.0241 z m -15.19534,-9.64666 c 0.0283,-0.45657 0.10006,-0.4645 0.27348,-0.0303 0.17221,0.43116 3.52637,0.60009 12.55027,0.63207 l 12.31516,0.0436 -0.89449,-2.36442 c -0.49198,-1.30042 -3.11057,-8.04405 -5.81908,-14.98583 -2.7085,-6.94178 -6.0581,-15.56863 -7.44353,-19.17077 l -2.51899,-6.54936 -12.94771,-0.009 -12.94772,-0.009 1.62472,4.0834 c 2.13357,5.36234 12.4174,31.92348 13.89077,35.87716 1.08435,2.90977 1.83072,3.87608 1.91712,2.48205 z M 148.37606,140.02406 c -5.78636,-14.75977 -13.42525,-34.29743 -16.97533,-43.417023 -3.5501,-9.119597 -6.7372,-17.249273 -7.08246,-18.065948 -0.34526,-0.816676 -1.55754,-3.934918 -2.69392,-6.929413 -1.13639,-2.994504 -2.34769,-6.112733 -2.6918,-6.929412 -0.34411,-0.816679 -2.29538,-5.828126 -4.33617,-11.136546 -2.0408,-5.308419 -3.99861,-10.319864 -4.35068,-11.136545 -0.35208,-0.816679 -1.26603,-3.208622 -2.03099,-5.315429 -0.76497,-2.106806 -1.50015,-3.8302 -1.63374,-3.82976 -0.13366,4.42e-4 -0.87683,1.724196 -1.65166,3.830562 -0.77482,2.106361 -1.69513,4.497948 -2.04513,5.314627 -0.67735,1.580527 -5.140815,13.299169 -7.489163,19.662472 l -1.411168,3.823837 1.365267,3.353063 c 0.750897,1.844179 2.081244,5.246263 2.956348,7.560195 0.875104,2.313914 1.880346,4.875322 2.233856,5.691997 0.35351,0.816694 1.44016,3.600828 2.41477,6.186985 3.30984,8.782665 7.0722,18.557268 7.52537,19.550818 0.24834,0.54445 1.88747,4.77635 3.64251,9.40419 1.75505,4.62787 3.38906,8.85974 3.63114,9.40419 0.24206,0.54447 1.67234,4.21953 3.17839,8.16681 3.87921,10.16721 10.83561,28.13893 11.68668,30.19241 l 0.718,1.73236 12.78025,-0.13918 12.78027,-0.13918 z"
       id="path849" />
  </g>
</svg>
