<?xml version="1.0" encoding="UTF-8" standalone="no"?>
<svg
   xmlns:dc="http://purl.org/dc/elements/1.1/"
   xmlns:cc="http://creativecommons.org/ns#"
   xmlns:rdf="http://www.w3.org/1999/02/22-rdf-syntax-ns#"
   xmlns:svg="http://www.w3.org/2000/svg"
   xmlns="http://www.w3.org/2000/svg"
   xmlns:sodipodi="http://sodipodi.sourceforge.net/DTD/sodipodi-0.dtd"
   xmlns:inkscape="http://www.inkscape.org/namespaces/inkscape"
   width="50mm"
   height="40mm"
   viewBox="0 0 262.5 133.33334"
   version="1.1"
   id="svg8"
   sodipodi:docname="cesd.svg"
   inkscape:version="1.0.2 (e86c870879, 2021-01-15)">
  <defs
     id="defs2" />
  <sodipodi:namedview
     id="base"
     pagecolor="#ffffff"
     bordercolor="#666666"
     borderopacity="1.0"
     inkscape:pageopacity="0.0"
     inkscape:pageshadow="2"
     inkscape:zoom="0.49497475"
     inkscape:cx="438.49454"
     inkscape:cy="531.54752"
     inkscape:document-units="mm"
     inkscape:current-layer="layer1"
     inkscape:document-rotation="0"
     showgrid="false"
     inkscape:window-width="1442"
     inkscape:window-height="908"
     inkscape:window-x="239"
     inkscape:window-y="73"
     inkscape:window-maximized="0" />
  <metadata
     id="metadata5">
    <rdf:RDF>
      <cc:Work
         rdf:about="">
        <dc:format>image/svg+xml</dc:format>
        <dc:type
           rdf:resource="http://purl.org/dc/dcmitype/StillImage" />
        <dc:title></dc:title>
      </cc:Work>
    </rdf:RDF>
  </metadata>
  <g
     inkscape:label="Layer 1"
     inkscape:groupmode="layer"
     id="layer1">
    <path
       style="stroke-width:1.08436"
       d="M 118.71932,160.33032 C 79.276398,154.42459 47.038593,123.00103 40.795196,84.374386 36.264106,56.341462 45.26787,28.094645 65.296537,7.508232 77.833565,-5.377925 92.675338,-13.955005 110.44457,-18.58288 c 10.4377,-2.718425 31.30296,-3.245622 41.70664,-1.053791 32.53889,6.855245 59.02834,30.048551 69.84963,61.158063 3.16522,9.09951 3.58873,11.76633 3.99813,25.17614 0.38272,12.536064 0.0844,16.530424 -1.81674,24.328994 -8.05873,33.056474 -33.90926,58.775014 -67.64085,67.295484 -10.27255,2.59481 -27.71819,3.52115 -37.82206,2.00831 z m 31.93654,-8.93554 c 16.85623,-3.48748 33.72782,-12.94883 45.31122,-25.4099 36.85813,-39.650914 26.59416,-101.61408 -21.31624,-128.685301 -2.71642,-1.534882 -9.63094,-4.36684 -15.3656,-6.293243 -9.73389,-3.26983 -11.41112,-3.504649 -25.24349,-3.534162 -17.57138,-0.03749 -24.38297,1.445557 -39.15184,8.524314 -17.630438,8.450307 -33.398578,25.233699 -40.832432,43.461494 -4.753133,11.65467 -5.962597,19.36175 -5.402649,34.427274 0.414869,11.16214 1.001025,14.59688 3.848877,22.55355 5.384355,15.043464 13.850869,27.019004 26.660898,37.710764 7.648507,6.38375 25.676446,14.99717 35.670146,17.04254 9.90349,2.02691 26.54866,2.12108 35.82111,0.20267 z m -70.759564,-37.7375 c -1.521267,-1.48494 -0.627804,-2.50343 2.286551,-2.60655 l 3.018242,-0.10681 -2.743856,-0.745 c -1.974382,-0.53608 -2.743856,-1.48256 -2.743856,-3.37501 0,-2.18413 0.604757,-2.68694 3.567016,-2.96574 2.649891,-0.24939 3.567007,0.0949 3.567007,1.33916 0,0.92118 -0.86431,1.68197 -1.920697,1.69066 -1.415538,0.0117 -1.199036,0.38048 0.823159,1.40236 2.560672,1.29401 2.809406,1.18566 3.725784,-1.62277 1.307967,-4.00857 3.718764,-3.80845 5.558032,0.46138 l 1.495042,3.47073 0.372674,-3.19373 c 0.460167,-3.9436 3.389916,-4.74455 5.049816,-1.38056 l 1.21077,2.45379 0.0743,-2.42597 c 0.072,-2.35242 0.3654,-2.41737 9.67779,-2.14264 l 9.6035,0.2833 v 4.82097 c 0,4.21816 -0.31634,4.86474 -2.52989,5.17103 -3.28693,0.45485 -5.70168,-1.56387 -5.70168,-4.76652 0,-1.40093 -0.4939,-2.54714 -1.09755,-2.54714 -0.60365,0 -1.09754,1.68733 -1.09754,3.74964 0,2.61879 -0.49651,3.74964 -1.64631,3.74964 -1.14982,0 -1.64632,-1.13085 -1.64632,-3.74964 0,-2.06231 -0.49389,-3.74964 -1.09754,-3.74964 -0.60365,0 -1.09754,1.41783 -1.09754,3.15074 0,4.26869 -2.05286,5.21963 -4.51638,2.09213 l -2.02008,-2.56456 -0.0244,2.41048 c -0.0182,1.79417 -0.669829,2.41049 -2.548745,2.41049 -1.388392,0 -3.117019,-0.57852 -3.841402,-1.28559 -1.024371,-0.9999 -1.609723,-0.9999 -2.634103,0 -1.388276,1.35511 -9.872312,1.79097 -11.121764,0.57137 z m 39.877394,-4.64241 c 0,-1.17846 -0.49389,-2.14265 -1.09754,-2.14265 -0.60365,0 -1.09754,0.96419 -1.09754,2.14265 0,1.17846 0.49389,2.14265 1.09754,2.14265 0.60365,0 1.09754,-0.96419 1.09754,-2.14265 z m 7.6828,0 c 0,-5.21755 0.0841,-5.35663 3.2381,-5.35663 1.835,0 3.66644,0.74714 4.22664,1.72426 0.9086,1.58479 1.04338,1.58479 1.66641,0 0.794,-2.0197 5.21351,-2.29228 7.11249,-0.43867 1.02437,0.99991 1.31705,0.99991 1.31705,0 0,-2.17654 3.14078,-1.42168 4.51526,1.0852 l 1.29985,2.37079 0.87198,-2.30085 c 0.64455,-1.70075 1.74688,-2.27657 4.22647,-2.20776 3.25118,0.0902 3.3545,0.24806 3.3545,5.12366 0,4.85498 -0.11491,5.03375 -3.29262,5.12194 -1.81096,0.0502 -3.29263,-0.38693 -3.29263,-0.97152 0,-0.58459 -0.54912,-0.73163 -1.22025,-0.32676 -0.67116,0.40488 -1.65137,0.0718 -2.17829,-0.74026 -0.7577,-1.16768 -0.96155,-1.08437 -0.97484,0.3984 -0.009,1.03116 -0.75764,1.87483 -1.66312,1.87483 -0.90546,0 -1.64631,-0.57852 -1.64631,-1.28559 0,-0.9999 -0.29268,-0.9999 -1.31705,0 -1.88544,1.8404 -6.08434,1.58618 -7.24523,-0.43867 -0.90859,-1.58479 -1.04338,-1.58479 -1.66641,0 -0.41673,1.06008 -1.95943,1.72426 -4.00492,1.72426 -3.2608,0 -3.32708,-0.10672 -3.32708,-5.35663 z m 4.60968,-1.28559 c -1.02437,-0.9999 -1.31705,-0.71422 -1.31705,1.28559 0,1.99981 0.29268,2.28549 1.31705,1.28559 1.02437,-0.9999 1.02437,-1.57128 0,-2.57118 z m 9.65838,1.28559 c 0,-1.17846 -0.49389,-2.14265 -1.09754,-2.14265 -0.60365,0 -1.09754,0.96419 -1.09754,2.14265 0,1.17846 0.49389,2.14265 1.09754,2.14265 0.60365,0 1.09754,-0.96419 1.09754,-2.14265 z m 18.65823,0 c 0,-5.63482 1.35737,-6.8283 3.95988,-3.48181 1.3886,1.78555 1.4597,1.78555 1.49294,0 0.0449,-2.40999 3.32753,-2.47222 3.32753,-0.0631 0,1.64952 0.12835,1.64041 1.43342,-0.10177 0.86631,-1.15644 2.46065,-1.76728 4.02982,-1.54392 3.66966,0.52235 4.22045,3.04789 0.66471,3.04789 -2.10363,0 -2.83533,0.55295 -2.83533,2.14265 0,1.17846 0.4784,2.14265 1.06311,2.14265 0.5847,0 0.75077,-0.79443 0.36906,-1.76541 -0.56256,-1.43098 -0.15064,-1.66401 2.17451,-1.23015 2.29438,0.42812 2.93449,0.0845 3.19796,-1.71639 0.38421,-2.62632 4.55921,-3.62414 6.97506,-1.66706 1.92318,1.55797 2.08426,6.53536 0.26886,8.3074 -2.23351,2.18014 -6.49764,1.56037 -7.19587,-1.04589 l -0.62462,-2.33148 -0.88358,2.33148 c -1.0895,2.87482 -5.83519,3.16565 -7.45165,0.45666 -1.06544,-1.78555 -1.1203,-1.78555 -1.15209,0 -0.0419,2.35326 -3.16147,2.46859 -4.07275,0.15057 -0.62301,-1.5848 -0.75781,-1.5848 -1.6664,0 -1.83937,3.20831 -3.07457,1.74903 -3.07457,-3.63232 z m 24.14595,0 c 0,-1.17846 -0.49389,-2.14265 -1.09755,-2.14265 -0.60364,0 -1.09754,0.96419 -1.09754,2.14265 0,1.17846 0.4939,2.14265 1.09754,2.14265 0.60366,0 1.09755,-0.96419 1.09755,-2.14265 z M 83.280393,98.215796 c -4.206593,-2.39158 -0.662766,-9.55611 4.726792,-9.55611 3.180536,0 4.281268,1.38224 2.132844,2.67832 -0.603646,0.36416 -1.097538,0.15156 -1.097538,-0.47244 0,-0.624 -0.731434,-1.13456 -1.625403,-1.13456 -1.867575,0 -3.333522,4.5073 -2.311482,7.10705 0.639237,1.62604 0.836235,1.62604 2.676904,6e-5 1.092784,-0.96534 2.317223,-1.4327 2.720975,-1.0386 0.403752,0.39411 0.734089,-0.0354 0.734089,-0.95436 0,-2.15354 2.664203,-3.15638 4.256429,-1.60219 0.910023,0.88829 1.231284,0.86957 1.231284,-0.0718 0,-2.03728 5.758333,-1.05456 6.330273,1.08033 0.64135,2.3939 2.45008,1.38265 2.45008,-1.36982 0,-1.14368 0.55146,-2.07942 1.22549,-2.07942 0.72046,0 1.0059,1.12123 0.69265,2.72077 -0.3366,1.71871 -0.0806,2.57363 0.69521,2.32121 0.67542,-0.21977 1.22805,-1.0661 1.22805,-1.88075 0,-1.03583 1.48496,-1.49216 4.93894,-1.51771 4.18626,-0.0309 4.98883,0.30428 5.26629,2.19987 0.44964,3.07188 -2.51805,5.437684 -4.65229,3.70874 -0.86958,-0.70447 -1.31063,-1.96873 -0.98011,-2.80949 0.33052,-0.84077 0.0636,-1.52866 -0.5931,-1.52866 -0.65673,0 -1.50396,1.20524 -1.88272,2.67831 -0.68624,2.66885 -2.64579,3.761884 -2.64579,1.47581 0,-0.86454 -0.43523,-0.84992 -1.5486,0.052 -1.11135,0.90031 -1.75873,0.92267 -2.2928,0.0792 -0.54004,-0.85294 -1.1422,-0.85294 -2.19508,0 -1.76734,1.43173 -3.038901,-0.14558 -2.08122,-2.58163 1.18016,-3.00199 -0.66932,-1.81831 -1.941358,1.24248 l -1.22439,2.94615 -0.834127,-2.67831 c -0.507399,-1.6292 -0.876986,-1.9687 -0.943531,-0.86673 -0.142574,2.3608 -2.048968,3.46776 -3.724498,2.16267 -0.740859,-0.57706 -2.290516,-0.65083 -3.518938,-0.16752 -2.880423,1.13326 -2.973118,1.13072 -5.213325,-0.14291 z m 11.24981,-1.52117 c 0,-0.29461 -0.24695,-0.53566 -0.548772,-0.53566 -0.301823,0 -0.548773,0.24105 -0.548773,0.53566 0,0.29461 0.24695,0.53566 0.548773,0.53566 0.301822,0 0.548772,-0.24105 0.548772,-0.53566 z m 22.700607,-1.80786 c -0.35036,-0.85463 -0.61044,-0.60078 -0.6631,0.64726 -0.0476,1.12935 0.21175,1.76211 0.57646,1.40611 0.3647,-0.35599 0.40369,-1.28002 0.0866,-2.05337 z m -22.700607,-0.33479 c 0,-0.29461 -0.24695,-0.53566 -0.548772,-0.53566 -0.301823,0 -0.548773,0.24105 -0.548773,0.53566 0,0.29461 0.24695,0.53567 0.548773,0.53567 0.301822,0 0.548772,-0.24106 0.548772,-0.53567 z m 30.344887,2.41048 c 0.47253,-1.32576 0.87623,-3.73624 0.89711,-5.35662 0.0354,-2.74602 0.35483,-2.94615 4.70253,-2.94615 4.40225,0 6.00804,1.20572 3.56702,2.67832 -0.60365,0.36416 -1.09754,0.15156 -1.09754,-0.47244 0,-1.73162 -2.97269,-1.35098 -3.68953,0.47244 -0.34747,0.88383 -0.19452,1.60698 0.33988,1.60698 0.53441,0 1.22075,-0.60262 1.52523,-1.33915 0.30447,-0.73654 0.59257,-0.2829 0.64023,1.0081 0.0989,2.6798 -1.64163,4.23465 -2.47682,2.21255 -0.33535,-0.81192 -0.59024,-0.60206 -0.64252,0.52899 -0.11542,2.49743 2.2423,2.37477 5.14823,-0.26783 2.98701,-2.71636 3.95507,-2.71592 3.22706,8.1e-4 -0.33931,1.26654 -0.12796,1.87478 0.51639,1.48607 0.59993,-0.36192 0.84706,-1.56783 0.54916,-2.67979 -0.2979,-1.11155 -0.0412,-2.02133 0.57058,-2.02133 0.61172,0 0.84361,-0.68325 0.51532,-1.51832 -0.32829,-0.83508 0.10543,-1.78141 0.96383,-2.10293 1.25108,-0.46862 1.49256,0.5234 1.21717,5.00013 -0.28607,4.65024 -0.69656,5.59589 -2.45318,5.6514 -1.16029,0.0366 -2.68303,-0.34832 -3.38384,-0.85552 -0.74343,-0.53804 -1.57051,-0.45423 -1.98548,0.20117 -0.39119,0.61784 -2.69097,1.12334 -5.11062,1.12334 -4.08516,0 -4.338,-0.17215 -3.54021,-2.41048 z m 17.94701,-1.41224 c 0,-2.0221 0.49389,-3.67655 1.09754,-3.67655 0.60365,0 1.11982,1.32577 1.14705,2.94614 l 0.0495,2.94615 1.38724,-3.17483 c 0.92294,-2.11222 1.66273,-2.73972 2.21035,-1.87483 0.45272,0.71501 0.51788,1.78211 0.1448,2.37135 -1.15029,1.81675 0.43144,1.18584 2.78389,-1.11041 2.13769,-2.08662 5.08225,-1.98392 3.74343,0.13058 -0.35337,0.55813 -1.10227,0.73741 -1.66422,0.39841 -0.56192,-0.339 -1.02169,0.40473 -1.02169,1.65274 0,1.5043 0.46242,2.01427 1.37192,1.51304 1.07586,-0.59289 1.08589,-0.45449 0.0465,0.6413 -1.00696,1.06162 -1.69047,1.10162 -2.84484,0.16646 -0.83568,-0.67698 -1.84361,-0.91444 -2.23985,-0.52768 -0.39622,0.38677 -1.95594,0.83179 -3.46603,0.98895 -2.45263,0.25524 -2.74563,-0.10661 -2.74563,-3.39082 z m 13.71882,2.9295 c -0.96487,-0.94182 -0.58761,-3.99651 0.64179,-5.19654 2.10466,-2.05439 5.2687,-0.40237 5.0302,2.62638 -0.15825,2.0098 -0.87876,2.80011 -2.6702,2.92894 -1.34941,0.0971 -2.70021,-0.0644 -3.00179,-0.35878 z m 2.39652,-3.59295 c -0.35036,-0.85463 -0.61043,-0.60078 -0.66309,0.64726 -0.0476,1.12935 0.21174,1.76211 0.57645,1.40611 0.3647,-0.35599 0.40369,-1.28002 0.0866,-2.05337 z m 5.1922,3.025 c -0.93211,-2.37102 -0.0976,-6.3442 1.4361,-6.83708 0.90777,-0.29173 1.29333,0.82157 1.19236,3.443 -0.15991,4.15203 -1.59964,6.011124 -2.62846,3.39408 z m 4.68415,0.67515 c -1.15515,-1.89285 -0.39924,-6.71325 1.05273,-6.71325 1.02861,0 1.44265,1.07492 1.26931,3.29541 -0.25774,3.30176 -1.38254,4.957354 -2.32204,3.41784 z m 3.64196,-0.82096 c -0.78084,-0.9184 -0.89068,-1.60699 -0.25634,-1.60699 0.6105,0 1.0414,-0.60262 0.95755,-1.33916 -0.2779,-2.44144 2.02977,-2.04591 2.75641,0.47244 0.64362,2.23065 0.7245,2.16317 0.82315,-0.68671 0.0826,-2.38683 0.41921,-2.858 1.37509,-1.92495 0.83493,0.81498 1.9163,0.89557 3.17738,0.23678 2.32184,-1.21294 4.7034,1.06374 3.72258,3.55863 -1.35679,3.45131 -5.97056,3.38719 -5.97056,-0.0829 0,-1.40549 -0.36108,-1.27891 -1.70854,0.59888 -2.00838,2.79887 -3.01878,2.95925 -4.87672,0.77405 z m 10.29667,-2.1983 c 0.3748,-0.95339 0.19081,-1.38343 -0.43134,-1.0081 -0.59674,0.35999 -1.08498,1.10818 -1.08498,1.66264 0,1.54102 0.78668,1.20145 1.51632,-0.65454 z m -12.49175,-5.83665 c 0,-0.58922 0.49389,-1.07132 1.09754,-1.07132 0.60365,0 1.09754,0.4821 1.09754,1.07132 0,0.58924 -0.49389,1.07133 -1.09754,1.07133 -0.60365,0 -1.09754,-0.48209 -1.09754,-1.07133 z m -5.7621,-7.23075 31.00558,-0.30189 V 61.406412 40.614462 l -2.84141,-3.29617 -2.84143,-3.29618 H 130.65156 71.481801 v 19.22062 c 0,11.65813 -0.431836,19.481144 -1.097546,19.882744 -0.717405,0.43279 -1.097538,-6.595374 -1.097538,-20.291954 v -20.95406 h 59.321823 c 63.42949,0 63.98272,0.0438 66.86308,5.29729 0.66999,1.22198 1.13008,11.03118 1.13008,24.09372 v 22.032584 l -31.55436,-0.25046 -31.55436,-0.25047 z m -77.323496,-9.86708 c -9.128209,-5.432824 -10.148407,-19.597264 -1.9854,-27.565274 3.705158,-3.61665 8.146049,-4.58991 11.49881,-2.52007 1.020314,0.6299 2.125194,0.57588 3.018242,-0.14758 1.116424,-0.90442 1.408734,0.0346 1.408734,4.52514 0,6.14827 -0.35069,6.24296 -3.114322,0.84088 -2.102711,-4.11016 -6.50416,-5.27372 -9.369434,-2.47688 -1.418741,1.38484 -1.784304,4.02559 -1.784304,12.88936 0,10.55508 0.138699,11.2364 2.609048,12.81637 3.409367,2.180534 7.685566,0.428864 9.522901,-3.9009 1.902791,-4.48402 3.233661,-3.76545 3.233661,1.74596 0,4.473804 -1.2046,6.180714 -2.697673,3.822574 -0.367032,-0.57968 -1.890133,-0.3578 -3.631794,0.52906 -3.883887,1.97771 -4.51496,1.93722 -8.708469,-0.55864 z m 18.330566,-0.0434 c 0,-0.58924 0.98778,-1.07132 2.19508,-1.07132 2.07801,0 2.19508,-0.714214 2.19508,-13.391574 0,-10.94563 -0.28886,-13.39155 -1.58154,-13.39155 -0.86984,0 -1.88678,-0.48211 -2.25985,-1.07133 -0.43713,-0.69038 3.78848,-1.07133 11.88362,-1.07133 h 12.56195 l 0.54266,3.48181 c 0.78052,5.00801 -0.22342,5.76817 -2.5936,1.96383 -1.81014,-2.90542 -2.65425,-3.30298 -7.0129,-3.30298 h -4.95508 v 5.89228 c 0,5.19891 0.26108,5.89229 2.21862,5.89229 1.30145,0 2.73544,-1.10721 3.4688,-2.67831 2.02474,-4.33768 3.09293,-3.10435 3.09293,3.57108 0,7.40848 -0.9783,8.9245 -2.89208,4.48169 -0.9049,-2.1007 -2.17894,-3.23181 -3.6402,-3.23181 -2.01595,0 -2.24807,0.66372 -2.24807,6.42795 v 6.427954 h 4.14596 c 5.20661,0 9.02457,-2.518514 9.02457,-5.953044 0,-1.43966 0.49389,-2.61756 1.09753,-2.61756 0.60365,0 1.09755,2.41048 1.09755,5.35662 v 5.356624 h -13.17052 c -8.04865,0 -13.17051,-0.41662 -13.17051,-1.07132 z m 33.33243,-0.41244 c -4.55728,-2.014634 -4.98393,-2.932154 -2.72357,-5.857194 1.86618,-2.41496 1.97325,-2.42651 5.83484,-0.62903 4.78154,2.22569 9.6531,1.40996 9.6531,-1.61639 0,-1.61695 -1.2619,-2.302 -6.01443,-3.26505 -10.05538,-2.03763 -13.29886,-8.64158 -7.40605,-15.07924 2.5453,-2.78063 3.87538,-3.33627 8.13683,-3.39915 4.8964,-0.0722 11.86891,1.9057 11.86891,3.36696 0,0.38664 -0.77007,1.77613 -1.71126,3.08778 -1.35592,1.88959 -2.1386,2.16155 -3.76924,1.3097 -2.78779,-1.45634 -8.47721,-1.36065 -9.43924,0.15875 -1.09689,1.73243 2.11051,3.73401 7.27533,4.54017 5.87665,0.91727 8.74195,3.87953 8.74195,9.03779 0,5.86831 -3.71139,9.001294 -11.24138,9.489444 -3.4373,0.22283 -7.15953,-0.23995 -9.20579,-1.14454 z m 23.98485,-14.318284 0.30372,-15.80204 7.82893,0.0626 c 12.60197,0.10074 15.76824,3.3189 15.76824,16.02662 0,12.29226 -3.41435,15.514874 -16.43797,15.514874 h -7.76666 z m 15.32357,6.94749 c 1.35655,-2.08473 1.03627,-13.07637 -0.42253,-14.50033 -0.72438,-0.70707 -2.69995,-1.28559 -4.39017,-1.28559 h -3.07312 v 9.24018 9.24018 l 3.51246,-0.68571 c 1.93184,-0.37714 3.89986,-1.28107 4.37336,-2.00873 z"
       id="path1060" />
  </g>
</svg>
