<?xml version="1.0" encoding="UTF-8" standalone="no"?>
<svg
   xmlns:dc="http://purl.org/dc/elements/1.1/"
   xmlns:cc="http://creativecommons.org/ns#"
   xmlns:rdf="http://www.w3.org/1999/02/22-rdf-syntax-ns#"
   xmlns:svg="http://www.w3.org/2000/svg"
   xmlns="http://www.w3.org/2000/svg"
   xmlns:sodipodi="http://sodipodi.sourceforge.net/DTD/sodipodi-0.dtd"
   xmlns:inkscape="http://www.inkscape.org/namespaces/inkscape"
   width="50mm"
   height="40mm"
   viewBox="0 0 262.5 166.66667"
   version="1.1"
   id="svg8"
   sodipodi:docname="coderhouse.svg"
   inkscape:version="1.0.2 (e86c870879, 2021-01-15)">
  <defs
     id="defs2" />
  <sodipodi:namedview
     id="base"
     pagecolor="#ffffff"
     bordercolor="#666666"
     borderopacity="1.0"
     inkscape:pageopacity="0.0"
     inkscape:pageshadow="2"
     inkscape:zoom="0.49497475"
     inkscape:cx="438.49454"
     inkscape:cy="531.54752"
     inkscape:document-units="mm"
     inkscape:current-layer="layer1"
     inkscape:document-rotation="0"
     showgrid="false"
     inkscape:window-width="1442"
     inkscape:window-height="908"
     inkscape:window-x="239"
     inkscape:window-y="73"
     inkscape:window-maximized="0" />
  <metadata
     id="metadata5">
    <rdf:RDF>
      <cc:Work
         rdf:about="">
        <dc:format>image/svg+xml</dc:format>
        <dc:type
           rdf:resource="http://purl.org/dc/dcmitype/StillImage" />
        <dc:title></dc:title>
      </cc:Work>
    </rdf:RDF>
  </metadata>
  <g
     inkscape:label="Layer 1"
     inkscape:groupmode="layer"
     id="layer1">
    <path
       style="stroke-width:0.176389"
       d="m 123.59804,176.87145 c -18.32192,-1.4912 -36.014488,-8.72911 -50.192108,-20.53327 -2.85868,-2.38012 -6.62068,-5.91013 -6.50243,-6.10146 0.0621,-0.10052 1.17089,-0.11823 2.81394,-0.0449 l 2.71142,0.12096 0.1836,-0.42317 c 0.29219,-0.67344 13.60635,-62.835323 13.5114,-63.082763 -0.10776,-0.280844 -10.06476,-0.328604 -10.2375,-0.0491 -0.0591,0.0957 -1.37175,6.06287 -2.91694,13.260453 -1.62751,7.58099 -2.90384,13.14643 -3.03382,13.22892 -0.1234,0.0783 -1.5167,0.14362 -3.09622,0.14511 -2.2859,0.002 -2.89099,-0.0472 -2.96561,-0.2416 -0.0516,-0.13436 1.14156,-6.00794 2.65137,-13.05239 1.50982,-7.044463 2.74512,-12.968223 2.74512,-13.163933 0,-0.349794 -0.0874,-0.355034 -5.15938,-0.309064 l -5.15937,0.0468 -4.31487,20.064247 c -2.37318,11.03533 -4.36577,20.06423 -4.42797,20.06423 -0.1617,0 -1.79716,-3.5338 -2.84673,-6.15102 -6.72069,-16.75895 -8.24005,-35.259213 -4.3531,-53.00495 5.85321,-26.722698 23.95472,-49.594276 48.751,-61.5978293 10.014308,-4.847795 21.049268,-7.828007 32.260688,-8.712642 2.92976,-0.231173 10.86552,-0.231173 13.79529,0 15.19762,1.199166 29.70249,6.137434 42.27786,14.3937433 4.04386,2.654983 8.14221,5.801251 11.10287,8.52358 l 0.91294,0.839453 -6.65249,30.938472 c -3.65887,17.01616 -6.65176,31.077378 -6.65087,31.247152 0.002,0.286833 0.36293,0.30868 5.10649,0.30868 2.80768,0 5.14126,-0.05953 5.18572,-0.132291 0.0445,-0.07276 1.36769,-6.125104 2.94049,-13.449653 1.57279,-7.324549 2.95682,-13.420563 3.07561,-13.5467 0.17697,-0.187914 0.25302,-0.184713 0.42103,0.01773 0.13815,0.166456 0.4163,4.586309 0.85253,13.5467 0.35612,7.3148 0.72316,13.398853 0.81564,13.52012 0.12811,0.167982 1.46263,0.220486 5.60419,0.220486 2.98983,0 5.47696,-0.06619 5.52696,-0.147094 0.05,-0.0809 -0.768,-6.609496 -1.81778,-14.507986 -1.04977,-7.898492 -1.87388,-14.453274 -1.83135,-14.566184 0.0425,-0.112912 0.5133,-0.382235 1.04614,-0.598496 2.15804,-0.875887 4.16223,-2.488521 5.55617,-4.470686 l 0.85623,-1.21753 0.7738,1.658502 c 5.11397,10.960695 8.04125,24.503035 8.04125,37.20086 0,27.271413 -12.27286,52.888973 -33.59663,70.127423 -14.05264,11.36037 -31.33336,18.21431 -49.5468,19.65144 -2.66183,0.21003 -11.54334,0.19733 -14.21778,-0.0203 z m 32.64409,-25.92037 c 4.69735,-0.92341 8.10687,-3.52551 10.26574,-7.83466 0.88904,-1.77456 1.54072,-4.04365 2.69159,-9.37189 l 1.17605,-5.44478 -0.0855,-2.38125 c -0.0953,-2.65232 -0.39096,-3.81592 -1.47609,-5.80846 -0.9491,-1.74275 -1.94747,-2.93334 -4.30619,-5.13527 -4.33713,-4.04884 -5.53152,-5.63968 -6.03446,-8.03747 -0.17199,-0.81996 -0.12895,-1.23167 0.3792,-3.62777 0.9731,-4.588563 1.21139,-5.334133 1.98601,-6.214153 0.83774,-0.95173 1.58531,-1.22527 3.0872,-1.12964 0.98231,0.0626 1.20719,0.14504 1.67749,0.61535 0.86319,0.86318 0.83795,1.4654 -0.27767,6.625643 -0.53988,2.49717 -0.9816,4.70102 -0.9816,4.89745 0,0.35153 0.0812,0.35641 5.15937,0.31039 l 5.15938,-0.0468 1.10701,-5.11527 c 1.63802,-7.568993 1.67485,-10.200623 0.18197,-13.001553 -0.9971,-1.87076 -2.78227,-3.11455 -5.57402,-3.883634 -1.16733,-0.321582 -1.83295,-0.374071 -4.7108,-0.371487 -3.04962,0.0027 -3.50709,0.04452 -5.08062,0.464087 -5.1927,1.384564 -8.53781,4.549624 -10.44342,9.881294 -0.32174,0.9002 -1.0028,3.53787 -1.51346,5.861503 -0.85726,3.90075 -0.92932,4.40742 -0.93958,6.60604 -0.0126,2.70438 0.22305,3.85036 1.23043,5.98316 0.93097,1.97103 2.06987,3.37197 5.01937,6.17425 3.77059,3.58239 5.06746,5.40931 5.50321,7.75245 0.16992,0.91368 0.11483,1.32411 -0.65444,4.8755 -1.16824,5.39335 -1.33396,5.88475 -2.27793,6.75487 -0.45542,0.41979 -1.094,0.80193 -1.54137,0.9224 -0.89095,0.23991 -2.15184,0.1088 -2.75511,-0.28648 -0.49035,-0.32129 -0.92277,-1.24964 -0.92277,-1.98108 0,-0.27935 0.43656,-2.55262 0.97014,-5.0517 0.53358,-2.49908 0.97014,-4.6952 0.97014,-4.88027 0,-0.32445 -0.18452,-0.33482 -5.15938,-0.28973 l -5.15937,0.0468 -1.10898,5.11527 c -1.2333,5.68876 -1.49742,8.17075 -1.10835,10.41541 0.56629,3.26704 2.84971,5.60315 6.37657,6.52372 2.43773,0.6363 6.13906,0.66364 9.17027,0.0678 z m -64.196248,0.18946 c 7.06572,-0.67005 11.608208,-4.26877 13.802108,-10.93454 0.49124,-1.49252 8.97812,-40.782873 9.27077,-42.919363 0.67526,-4.92978 -0.68063,-8.36663 -3.99842,-10.13499 -1.61614,-0.861404 -3.46539,-1.273926 -6.21953,-1.387439 -6.121708,-0.252312 -10.949508,1.640789 -13.872848,5.439879 -1.11317,1.44665 -2.40106,3.9819 -2.9551,5.81718 -0.37946,1.25699 -8.54958,38.880833 -9.08786,41.850113 -0.28044,1.54692 -0.23712,4.78279 0.0804,6.0016 0.97466,3.74197 3.83433,5.80111 8.70401,6.26742 2.0125,0.19271 2.24574,0.19271 4.27653,1.4e-4 z m -1.16798,-10.1236 c -0.29105,-0.12846 -0.68149,-0.4044 -0.86766,-0.61319 -0.76348,-0.85622 -0.72467,-1.08327 3.68167,-21.54081 2.28809,-10.62302 4.28168,-19.737403 4.43021,-20.254193 0.32424,-1.12818 1.40909,-2.38868 2.312388,-2.6868 0.34135,-0.11265 1.1392,-0.17181 1.77298,-0.13145 1.0253,0.0653 1.20708,0.13463 1.6488,0.629 0.27304,0.30559 0.54832,0.83213 0.61172,1.17008 0.0857,0.4569 -0.97573,5.694173 -4.13951,20.424813 -2.340128,10.8957 -4.384528,20.16755 -4.543128,20.60411 -0.73328,2.01853 -3.12264,3.18629 -4.90747,2.39844 z m 33.456728,10.04221 c 3.27597,-0.49382 5.89536,-1.69481 8.01621,-3.67545 2.00377,-1.8713 3.39207,-4.124 4.36913,-7.08951 0.40544,-1.23056 11.57251,-52.655413 11.57251,-53.291923 0,-0.19964 -0.89547,-0.2421 -5.10487,-0.2421 -3.06944,0 -5.14657,0.0675 -5.20947,0.16925 -0.0575,0.0931 -2.56202,11.58261 -5.56554,25.532293 -3.00351,13.94967 -5.54153,25.64977 -5.64003,26.00023 -0.47371,1.6853 -1.92221,2.79127 -3.66527,2.79852 -1.7996,0.007 -2.68426,-0.76822 -2.68426,-2.35364 0,-0.33272 2.46062,-12.04227 5.46805,-26.02123 3.00743,-13.978963 5.46806,-25.577043 5.46806,-25.773523 0,-0.35164 -0.0807,-0.3565 -5.15938,-0.31047 l -5.15937,0.0468 -3.30086,15.345833 c -1.81547,8.44021 -4.34522,20.18771 -5.62166,26.10556 -2.05686,9.53602 -2.3311,11.00505 -2.41136,12.91681 -0.10329,2.46058 0.10837,3.87231 0.80039,5.33834 1.13875,2.41241 3.73367,4.07559 7.1127,4.55879 1.76514,0.25242 4.8446,0.2274 6.71502,-0.0545 z m 69.99535,-0.67537 c 0,-0.0569 1.87652,-8.76989 2.03053,-9.42813 l 0.0929,-0.39687 h -6.94913 c -5.44415,0 -6.98985,-0.0491 -7.13718,-0.2266 -0.22163,-0.26705 3.0864,-15.94831 3.45909,-16.39737 0.19726,-0.23769 0.95028,-0.2595 6.08535,-0.17631 4.88826,0.0792 5.89229,0.0541 6.05346,-0.15135 0.15708,-0.20022 2.19845,-9.27267 2.18869,-9.72719 -0.002,-0.0728 -2.64206,-0.13351 -5.86777,-0.135 -3.22571,-0.001 -5.97672,-0.0735 -6.11336,-0.15997 -0.20668,-0.13084 0.0453,-1.53111 1.49931,-8.33167 l 1.74773,-8.174403 7.12462,-0.0882 c 6.08696,-0.0754 7.14613,-0.12673 7.27234,-0.35278 0.12729,-0.22799 2.0954,-9.22125 2.0954,-9.57492 0,-0.0709 -5.57499,-0.10847 -12.38888,-0.0836 l -12.38888,0.0453 -6.7423,31.309033 c -3.70826,17.21996 -6.74545,31.48762 -6.74931,31.7059 l -0.007,0.39687 h 12.34723 c 6.79097,0 12.34722,-0.0237 12.34722,-0.0528 z M 106.40012,84.025992 c 5.91763,-1.239502 9.86729,-5.079467 11.6385,-11.31525 0.76061,-2.677811 8.90806,-40.797512 9.12715,-42.703409 0.64226,-5.587235 -1.58618,-9.303871 -6.31736,-10.536187 -2.82137,-0.734871 -7.14182,-0.698378 -10.22996,0.08641 -5.39484,1.370997 -9.15986,5.399684 -10.795828,11.551908 -0.20638,0.776111 -2.29231,10.301111 -4.63539,21.166667 -3.97759,18.445243 -4.26626,19.904588 -4.35218,22.002527 -0.1083,2.644227 0.10224,3.977164 0.87919,5.566292 1.20681,2.468332 3.69576,3.907945 7.80671,4.515416 1.112928,0.164457 5.520458,-0.04978 6.879168,-0.334374 z m -3.75742,-9.90812 c -0.72166,-0.355653 -1.09328,-1.044933 -1.09328,-2.027812 0,-0.747007 8.05038,-38.559388 8.58032,-40.301517 0.53836,-1.769789 1.93178,-2.872218 3.64028,-2.880066 1.57549,-0.0072 2.44222,0.61861 2.68271,1.937128 0.0834,0.457045 -0.99412,5.765137 -4.13548,20.372917 -2.33651,10.865156 -4.37061,20.127305 -4.52022,20.582551 -0.34235,1.041765 -1.42536,2.176969 -2.31169,2.423091 -0.97059,0.269521 -2.17117,0.224628 -2.84264,-0.106292 z m -25.986868,9.745977 c 5.39873,-1.367014 8.98572,-4.790851 10.89251,-10.397062 0.42012,-1.235182 2.53581,-10.766298 2.53581,-11.42371 0,-0.323118 -0.18994,-0.333747 -5.15938,-0.288706 l -5.15937,0.04676 -1.01732,4.7625 c -1.18311,5.538577 -1.52161,6.403488 -2.82051,7.20653 -0.65083,0.402378 -1.05666,0.51979 -1.84938,0.535042 -1.93484,0.03722 -2.77438,-0.682073 -2.75651,-2.361711 0.0103,-0.969554 7.84734,-37.750235 8.54084,-40.083832 0.60226,-2.026572 1.7914,-2.990335 3.68962,-2.990335 1.75078,0 2.65145,0.788511 2.65145,2.321276 0,0.393809 -0.43656,2.74924 -0.97014,5.234289 -0.53357,2.48505 -0.97014,4.627409 -0.97014,4.760798 0,0.200189 0.89115,0.242526 5.10487,0.242526 3.22924,0 5.14511,-0.06512 5.21441,-0.177236 0.12689,-0.205325 1.75702,-7.70059 2.12892,-9.788736 0.36079,-2.025751 0.32781,-5.025198 -0.0711,-6.463679 -0.80738,-2.911655 -2.7932,-4.73138 -6.17633,-5.659748 -1.14306,-0.313667 -1.86405,-0.372038 -4.70149,-0.380625 -2.88924,-0.0087 -3.56342,0.04329 -4.88896,0.37733 -5.55022,1.398675 -9.06813,4.781911 -10.95875,10.539222 -0.64879,1.975712 -9.08128,41.228878 -9.33094,43.435466 -0.69896,6.177713 2.0356,9.942025 7.89254,10.864645 1.22243,0.192564 7.06845,-0.02972 8.17932,-0.311005 z m 61.494288,-0.768753 c 3.76742,-0.826247 6.88774,-2.873151 8.8219,-5.787081 0.91291,-1.375361 2.10646,-3.985327 2.53388,-5.540911 0.82852,-3.015335 8.51557,-39.359186 8.69521,-41.110272 0.46485,-4.531553 -0.93404,-7.833979 -3.96697,-9.364996 -0.57218,-0.288839 -1.64704,-0.690388 -2.38857,-0.892334 -1.25509,-0.34181 -1.93124,-0.372706 -9.7878,-0.44723 -4.64176,-0.04403 -8.50487,-0.0123 -8.58467,0.07051 -0.0798,0.08281 -3.17186,14.239631 -6.87122,31.459597 -3.69937,17.219965 -6.76646,31.445993 -6.81578,31.613395 -0.0819,0.278009 0.16713,0.309856 2.87538,0.367718 1.63076,0.03484 5.42565,0.04454 8.43308,0.02156 4.68519,-0.03581 5.69534,-0.09164 7.05556,-0.389956 z M 132.5033,73.32384 c -0.13598,-0.35438 9.06833,-43.061774 9.31738,-43.232007 0.1155,-0.07894 1.14884,-0.120295 2.29632,-0.0919 l 2.08633,0.05164 0.6036,0.658647 c 0.52757,0.575677 0.60355,0.775626 0.60318,1.587278 -1.8e-4,0.544881 -1.67402,8.716955 -4.05031,19.775413 -4.40759,20.511469 -4.2505,19.93494 -5.6914,20.888766 -0.67485,0.446728 -0.88211,0.485567 -2.89926,0.543317 -1.72701,0.04944 -2.1916,0.01229 -2.26584,-0.181154 z m 43.20896,10.098999 c 0.12145,-0.19652 2.03716,-9.075111 2.03716,-9.441492 0,-0.221966 -0.98511,-0.265941 -6.95285,-0.310383 -3.82407,-0.02848 -7.01239,-0.1114 -7.08516,-0.184271 -0.22005,-0.220377 3.28032,-16.236751 3.60529,-16.496429 0.21601,-0.172605 1.6479,-0.221661 6.17108,-0.211416 3.23939,0.0073 5.92638,-0.02324 5.97109,-0.06795 0.06,-0.05996 2.15687,-9.505423 2.16908,-9.770526 0.001,-0.02425 -2.61085,-0.0441 -5.80438,-0.0441 -3.19352,0 -5.93196,-0.04818 -6.08541,-0.107067 -0.15346,-0.05888 -0.27901,-0.257879 -0.27901,-0.442205 0,-0.67909 3.34219,-15.89587 3.54503,-16.140273 0.17901,-0.215688 1.22981,-0.235213 7.1243,-0.132369 5.16933,0.09019 6.94625,0.06898 7.04083,-0.08404 0.18714,-0.302802 2.18933,-9.618176 2.10052,-9.772869 -0.11904,-0.207359 -24.53268,-0.164144 -24.66111,0.04366 -0.18097,0.29283 -13.64218,63.049314 -13.55457,63.191762 0.1199,0.194932 24.53745,0.165197 24.65811,-0.03003 z M 60.859132,143.60148 c -1.06543,-1.33394 -2.15351,-2.71683 -2.41794,-3.0731 l -0.48079,-0.64775 1.71689,-7.9953 c 0.94429,-4.39742 1.79216,-8.09452 1.88416,-8.21579 0.20331,-0.26798 6.03961,-0.31899 6.20325,-0.0542 0.0844,0.13654 -0.94064,5.03305 -4.51617,21.57366 -0.0996,0.46082 -0.24212,0.83785 -0.31668,0.83785 -0.0746,0 -1.00729,-1.0914 -2.07272,-2.42535 z M 197.2436,46.725069 c -0.15395,-0.249094 3.25507,-16.409354 3.46156,-16.409354 0.0774,0 1.08799,1.266421 2.2457,2.814269 2.07134,2.769381 2.10252,2.824945 1.95498,3.48368 -0.0825,0.368177 -0.46963,2.156773 -0.86036,3.974658 -0.39072,1.817885 -0.86326,3.604863 -1.05008,3.971062 -0.40611,0.796038 -1.14057,1.559839 -1.87078,1.945513 -0.68297,0.360724 -3.68876,0.531245 -3.88102,0.220172 z"
       id="path1734" />
  </g>
</svg>
