<?xml version="1.0" encoding="UTF-8" standalone="no"?>
<svg
   xmlns:dc="http://purl.org/dc/elements/1.1/"
   xmlns:cc="http://creativecommons.org/ns#"
   xmlns:rdf="http://www.w3.org/1999/02/22-rdf-syntax-ns#"
   xmlns:svg="http://www.w3.org/2000/svg"
   xmlns="http://www.w3.org/2000/svg"
   xmlns:sodipodi="http://sodipodi.sourceforge.net/DTD/sodipodi-0.dtd"
   xmlns:inkscape="http://www.inkscape.org/namespaces/inkscape"
   width="50mm"
   height="40mm"
   viewBox="0 0 350 111.02804"
   version="1.1"
   id="svg8"
   sodipodi:docname="coursera.svg"
   inkscape:version="0.92.5 (2060ec1f9f, 2020-04-08)">
  <sodipodi:namedview
     pagecolor="#ffffff"
     bordercolor="#666666"
     borderopacity="1"
     objecttolerance="10"
     gridtolerance="10"
     guidetolerance="10"
     inkscape:pageopacity="0"
     inkscape:pageshadow="2"
     inkscape:window-width="1366"
     inkscape:window-height="684"
     id="namedview1157"
     showgrid="false"
     inkscape:zoom="1.2798963"
     inkscape:cx="177.8243"
     inkscape:cy="154.82287"
     inkscape:window-x="0"
     inkscape:window-y="150"
     inkscape:window-maximized="1"
     inkscape:current-layer="svg8"
     inkscape:document-rotation="0"
     inkscape:pagecheckerboard="0"
     inkscape:document-units="mm" />
  <defs
     id="defs2" />
  <metadata
     id="metadata5">
    <rdf:RDF>
      <cc:Work
         rdf:about="">
        <dc:format>image/svg+xml</dc:format>
        <dc:type
           rdf:resource="http://purl.org/dc/dcmitype/StillImage" />
        <dc:title />
      </cc:Work>
    </rdf:RDF>
  </metadata>
  <path
     style="stroke-width:0.29350236"
     d="M 103.02746,135.86024 C 86.554756,135.18459 71.223162,129.47814 58.415115,119.25532 55.189853,116.68109 48.817367,110.31836 46.273384,107.13215 37.17941,95.742635 31.787673,82.433751 30.788005,68.90795 30.334302,62.768279 30.615675,53.6693 31.398572,49.165446 35.057461,28.116986 47.143133,9.4258006 64.285153,-1.6954399 74.864533,-8.55902 87.809081,-13.094822 100.53269,-14.396631 c 3.84536,-0.393436 14.03507,-0.217043 18.93091,0.327715 3.7929,0.422031 9.40368,1.565872 13.64378,2.781512 3.83472,1.099381 11.30396,3.9096314 11.30396,4.2530174 0,0.1176482 -2.45881,4.4899479 -5.464,9.7162211 -8.39729,14.6034315 -12.88272,22.5532485 -13.95632,24.7352775 -1.11542,2.267111 -0.50158,2.148876 -5.52742,1.064726 -3.477,-0.750048 -12.98877,-1.119827 -16.74357,-0.650921 C 97.893973,28.4336 91.917296,30.786883 88.139,33.572126 81.443584,38.507835 76.403378,45.358329 74.830959,51.66022 c -0.885656,3.549129 -1.112066,11.39044 -0.44056,15.253682 1.076009,6.1901 4.471843,12.569051 9.241858,17.360339 5.993465,6.020144 13.310576,9.120467 23.460283,9.940268 8.56261,0.691593 15.92834,-0.944445 22.53719,-5.005871 1.92348,-1.182065 3.65808,-2.656996 6.70759,-5.703413 5.80827,-5.802376 5.15071,-4.625475 23.61201,-42.264342 9.20457,-18.766196 11.96744,-23.011901 20.79486,-31.9555433 7.36835,-7.4653723 11.44687,-10.5707387 18.9499,-14.4283203 8.71683,-4.4816502 17.62739,-7.2731324 28.21861,-8.8402974 5.03494,-0.745011 18.21511,-0.747894 23.18671,-0.0052 9.79373,1.463299 18.75202,4.3511573 27.14618,8.7510596 6.92867,3.6317299 11.54036,7.0778844 17.61295,13.1613906 6.85071,6.8631068 9.30878,10.3183338 14.09726,19.8156828 5.01285,9.942395 7.0102,17.013383 7.93563,28.093275 0.39693,4.751673 0.20125,11.994425 -0.44625,16.519093 -2.25947,15.789727 -9.22602,29.472617 -20.99646,41.239187 -10.30836,10.30498 -22.36813,16.94822 -36.98449,20.3733 -12.76842,2.99205 -29.72599,2.94151 -41.97086,-0.1251 -8.9339,-2.23742 -17.54054,-6.0358 -24.64825,-10.87809 -4.22895,-2.88101 -12.03189,-8.78116 -12.40858,-9.3826 -0.21174,-0.33806 1.4198,-3.85693 6.5319,-14.08811 3.74771,-7.500615 8.20146,-16.320211 9.89708,-19.599109 l 3.08307,-5.961625 7.0848,7.004258 c 3.89655,3.852338 7.96433,7.627782 9.03939,8.389877 2.52506,1.789978 5.59742,3.188898 8.90494,4.054616 2.49579,0.653262 3.13518,0.691434 11.59335,0.691987 7.70675,6.27e-4 9.27835,-0.07561 11.2998,-0.547415 6.34898,-1.481756 13.28029,-5.277631 17.40566,-9.532052 4.69131,-4.838016 7.83572,-11.0952 9.03463,-17.97843 0.7096,-4.073509 0.43954,-10.599075 -0.59252,-14.321284 -1.54563,-5.574192 -4.01246,-9.796876 -8.08812,-13.84528 -6.77619,-6.730952 -15.75164,-10.358225 -25.53741,-10.320482 -13.77138,0.05313 -23.93626,4.724932 -31.09381,14.290774 -4.15129,5.54809 -6.91882,10.399702 -17.33494,30.388832 -11.34264,21.767173 -16.88844,31.884233 -19.06528,34.780013 -1.84634,2.45613 -5.87449,6.76657 -8.96758,9.59601 -10.26028,9.38572 -21.77648,15.09422 -36.53685,18.11109 -5.4364,1.11113 -14.60323,1.55592 -24.06719,1.16773 z"
     id="path45"
     inkscape:connector-curvature="0" />
</svg>
