<?xml version="1.0" encoding="UTF-8" standalone="no"?>
<svg
   xmlns:dc="http://purl.org/dc/elements/1.1/"
   xmlns:cc="http://creativecommons.org/ns#"
   xmlns:rdf="http://www.w3.org/1999/02/22-rdf-syntax-ns#"
   xmlns:svg="http://www.w3.org/2000/svg"
   xmlns="http://www.w3.org/2000/svg"
   xmlns:sodipodi="http://sodipodi.sourceforge.net/DTD/sodipodi-0.dtd"
   xmlns:inkscape="http://www.inkscape.org/namespaces/inkscape"
   width="50mm"
   height="40mm"
   viewBox="0 0 350 111.02804"
   version="1.1"
   id="svg8"
   sodipodi:docname="fec.svg"
   inkscape:version="1.0.2 (e86c870879, 2021-01-15)">
  <sodipodi:namedview
     pagecolor="#ffffff"
     bordercolor="#666666"
     borderopacity="1"
     objecttolerance="10"
     gridtolerance="10"
     guidetolerance="10"
     inkscape:pageopacity="0"
     inkscape:pageshadow="2"
     inkscape:window-width="1920"
     inkscape:window-height="1024"
     id="namedview1157"
     showgrid="false"
     inkscape:zoom="1.2798963"
     inkscape:cx="162.29"
     inkscape:cy="115.98175"
     inkscape:window-x="0"
     inkscape:window-y="30"
     inkscape:window-maximized="1"
     inkscape:current-layer="svg8"
     inkscape:document-rotation="0" />
  <defs
     id="defs2" />
  <metadata
     id="metadata5">
    <rdf:RDF>
      <cc:Work
         rdf:about="">
        <dc:format>image/svg+xml</dc:format>
        <dc:type
           rdf:resource="http://purl.org/dc/dcmitype/StillImage" />
        <dc:title></dc:title>
      </cc:Work>
    </rdf:RDF>
  </metadata>
  <path
     style="stroke-width:2.65497"
     d="m 128.25013,169.38943 c -1.55159,-1.86956 -3.1913,-9.80317 -3.6438,-17.63024 L 123.78361,137.52813 96.570154,120.14485 69.356687,102.76156 V 91.539111 80.316669 L 97.233904,62.5452 125.11109,44.773745 V 29.132035 13.49034 h 67.70179 67.70177 v 73.748455 c 0,62.451115 -0.63312,74.652355 -4.133,79.649135 -4.06562,5.8045 -5.12078,5.90068 -64.72172,5.90068 -45.99714,0 -61.26812,-0.81861 -63.4098,-3.39918 z m 47.51264,-81.559887 c 8.631,-22.633633 15.69946,-41.450744 15.70768,-41.815801 0.009,-0.365057 -2.92986,-0.663742 -6.52908,-0.663742 -3.5992,0 -7.65432,2.090782 -9.01134,4.646192 -3.68705,6.94307 -29.57916,75.426938 -29.57916,78.236028 0,1.33626 3.08681,2.05151 6.85959,1.58946 6.234,-0.76348 8.29072,-4.59307 22.55231,-41.992137 z M 225.5482,107.74183 C 245.77235,94.593654 247.38592,87.095129 231.95326,77.9763 226.48863,74.747357 218.13467,69.552405 213.3889,66.43195 l -8.62865,-5.673571 v 8.146368 c 0,6.720704 1.85495,9.205657 10.59944,14.199317 5.82969,3.32913 10.60864,6.872569 10.61989,7.874317 0.0115,1.001748 -4.7585,4.507273 -10.59944,7.790052 -8.57534,4.819617 -10.61989,7.450607 -10.61989,13.665977 0,8.98326 -0.37974,9.06899 20.78795,-4.69258 z M 124.25879,75.472353 c -0.61692,-0.616924 -7.30502,2.722098 -14.86241,7.420054 l -13.740757,8.541714 14.063997,8.688469 14.06399,8.68846 0.79842,-16.108506 c 0.43914,-8.859695 0.29367,-16.613268 -0.32324,-17.230191 z m 37.10592,-80.1121307 c -5.18919,-5.7339943 -5.69839,-14.0180933 -1.14172,-18.5747633 2.56634,-2.566333 2.54736,-4.380907 -0.09,-8.6039 -6.53758,-10.468318 2.11088,-14.366922 8.89668,-4.010504 3.81047,5.815531 3.8231,7.195782 0.13116,14.335285 -3.51168,6.790859 -3.5581,8.337712 -0.33061,11.016303 3.64253,3.0230203 2.84478,10.69283356 -1.11215,10.69283356 -1.07768,0 -3.93671,-2.18486296 -6.35337,-4.85525426 z m 53.51439,1.54648 c -6.34637,-5.03202 -7.14766,-10.4780943 -2.80525,-19.0660393 3.49706,-6.916091 3.478,-8.103048 -0.173,-10.772709 -6.42749,-4.699905 -1.36421,-10.690109 5.79661,-6.857761 6.34577,3.396161 7.74181,15.609298 2.39535,20.955758 -2.56632,2.566319 -2.52035,4.424142 0.21798,8.80892 4.26789,6.8339663 0.50359,11.6379151 -5.43169,6.9318313 z M 189.36276,-17.233296 c -6.40235,-4.484393 -7.70168,-14.144471 -2.59006,-19.256108 2.56634,-2.566334 2.52037,-4.424142 -0.21796,-8.808921 -5.10015,-8.166623 0.38708,-12.772749 7.52289,-6.314921 6.19448,5.605924 6.71269,9.93048 2.07906,17.350119 -2.50664,4.013787 -2.56487,6.440812 -0.24364,10.157677 4.68096,7.495399 0.54083,11.838964 -6.55027,6.872154 z"
     id="path2184"
     sodipodi:nodetypes="sscccccccccccssssscsssssssscsscssssscccsssscsssssssssssssssssssss" />
</svg>
