<?xml version="1.0" encoding="UTF-8" standalone="no"?>
<svg
   width="50mm"
   height="40mm"
   viewBox="0 0 262.5 166.66667"
   version="1.1"
   id="svg8"
   sodipodi:docname="jemersoft.svg"
   inkscape:version="1.1 (c68e22c387, 2021-05-23)"
   xmlns:inkscape="http://www.inkscape.org/namespaces/inkscape"
   xmlns:sodipodi="http://sodipodi.sourceforge.net/DTD/sodipodi-0.dtd"
   xmlns="http://www.w3.org/2000/svg"
   xmlns:svg="http://www.w3.org/2000/svg"
   xmlns:rdf="http://www.w3.org/1999/02/22-rdf-syntax-ns#"
   xmlns:cc="http://creativecommons.org/ns#"
   xmlns:dc="http://purl.org/dc/elements/1.1/">
  <defs
     id="defs2" />
  <sodipodi:namedview
     id="base"
     pagecolor="#ffffff"
     bordercolor="#666666"
     borderopacity="1.0"
     inkscape:pageopacity="0.0"
     inkscape:pageshadow="2"
     inkscape:zoom="5.6"
     inkscape:cx="139.46429"
     inkscape:cy="101.78571"
     inkscape:document-units="mm"
     inkscape:current-layer="layer1"
     inkscape:document-rotation="0"
     showgrid="false"
     inkscape:window-width="1442"
     inkscape:window-height="908"
     inkscape:window-x="239"
     inkscape:window-y="73"
     inkscape:window-maximized="0"
     inkscape:pagecheckerboard="0" />
  <metadata
     id="metadata5">
    <rdf:RDF>
      <cc:Work
         rdf:about="">
        <dc:format>image/svg+xml</dc:format>
        <dc:type
           rdf:resource="http://purl.org/dc/dcmitype/StillImage" />
      </cc:Work>
    </rdf:RDF>
  </metadata>
  <g
     inkscape:label="Layer 1"
     inkscape:groupmode="layer"
     id="layer1">
    <path
       style="stroke-width:0.547048"
       d="M 34.283064,83.064351 C 27.293363,80.724819 23.249668,75.644801 22.492224,68.251748 l -0.370189,-3.613256 h 6.91366 6.91366 v 1.394786 c 0,1.784355 1.341647,4.390767 2.486228,4.829986 2.314621,0.888204 5.201869,0.08012 6.061217,-1.696422 0.258744,-0.534891 0.595419,-8.111522 0.748173,-16.836956 l 0.277734,-15.864423 5.470497,-0.159929 c 3.008768,-0.08796 6.049739,-0.01536 6.757716,0.161332 l 1.287227,0.321259 -0.214608,17.34424 -0.214608,17.344239 -1.748664,3.388067 c -2.185392,4.234241 -5.512643,6.883131 -10.518427,8.37392 -4.633929,1.380042 -7.540609,1.338044 -12.058776,-0.17424 z m 42.147917,-0.0047 c -3.998005,-1.352983 -6.840505,-3.135967 -8.892384,-5.577859 -8.191397,-9.748389 -4.99679,-24.613068 6.464716,-30.080666 2.841247,-1.355392 3.899402,-1.552802 8.445211,-1.575557 4.556504,-0.0228 5.601474,0.160799 8.479259,1.489817 4.140638,1.912226 7.037065,4.689244 9.082777,8.708326 1.66421,3.269595 2.56646,8.44933 1.92024,11.024071 l -0.3564,1.420019 H 88.729167 c -7.064879,0 -12.83861,0.184625 -12.830519,0.410284 0.0081,0.225659 0.728959,1.271889 1.601913,2.32496 1.491713,1.79949 1.784846,1.914673 4.872806,1.914673 2.838935,0 3.49908,-0.204518 4.85585,-1.504389 1.521879,-1.458054 1.758838,-1.504384 7.694608,-1.504384 6.916575,0 6.964475,0.038 4.972153,3.943263 -1.394112,2.732684 -5.809624,7.146097 -7.95575,7.951971 -7.047377,2.646283 -10.178516,2.859363 -15.509247,1.055427 z M 88.36477,59.319529 c -0.227174,-1.179612 -4.088417,-3.41352 -5.916246,-3.422814 -1.701438,-0.0087 -4.654414,1.746398 -5.454821,3.241976 -0.589666,1.101792 -0.48448,1.123373 5.475683,1.123373 5.456706,0 6.058378,-0.09619 5.895384,-0.942535 z m 90.23287,23.743654 c -8.29516,-2.848915 -13.23189,-9.89724 -13.09647,-18.69825 0.0816,-5.306354 2.66417,-10.948263 6.47877,-14.153787 0.95152,-0.799597 3.16707,-2.117032 4.92344,-2.927633 2.71857,-1.254675 3.92548,-1.473819 8.11685,-1.473819 4.21901,0 5.39305,0.216152 8.20573,1.51076 6.99352,3.218946 11.21451,9.833448 11.21451,17.573711 0,3.745542 0.63438,3.573637 -13.18771,3.573637 -8.49938,0 -12.5236,0.187339 -12.5236,0.583012 0,1.196318 1.17631,2.713702 2.72429,3.514193 2.82778,1.462297 6.22946,0.944608 8.60411,-1.309428 1.07666,-1.021979 1.86465,-1.146633 7.2484,-1.146633 5.9025,0 6.04018,0.02812 6.03001,1.230861 -0.006,0.676974 -0.72422,2.3673 -1.59667,3.756277 -4.66815,7.431858 -14.67202,10.875942 -23.14166,7.967099 z m 12.04145,-24.031978 c -0.9678,-1.47862 -4.00189,-3.083718 -5.89239,-3.117213 -1.69089,-0.02997 -4.64882,1.718665 -5.45483,3.224699 -0.59045,1.103269 -0.48707,1.123373 5.77583,1.123373 h 6.37703 z m -83.99112,5.744012 0.14424,-17.915854 4.51479,-0.158913 c 4.48088,-0.157719 4.51971,-0.147452 5.17096,1.36762 0.3609,0.839594 0.69996,1.599639 0.75345,1.688987 0.0535,0.08935 1.21171,-0.589672 2.5738,-1.508933 5.40294,-3.646401 13.15491,-3.046989 16.75917,1.295877 0.59346,0.71507 1.04654,0.578597 3.51056,-1.05742 5.37424,-3.568288 11.63921,-3.54909 16.03036,0.04912 4.51887,3.702871 5.10339,6.216616 5.1118,21.983527 l 0.007,12.171841 h -6.56459 -6.56459 V 70.929541 c 0,-11.032157 -0.0678,-11.829407 -1.0941,-12.855654 -1.37881,-1.378809 -3.33241,-1.398067 -4.99961,-0.04929 -1.27484,1.031364 -1.29361,1.196779 -1.45837,12.855655 l -0.16691,11.810844 h -6.26092 -6.26092 V 72.006068 c 0,-13.590328 -0.61935,-15.544986 -4.68405,-14.782444 -3.19871,0.600081 -3.52168,1.929815 -3.52168,14.499323 v 10.968147 h -6.57206 -6.57206 z m 102.29818,0 0.14424,-17.915854 4.19557,-0.158984 c 4.16373,-0.15777 4.20306,-0.14631 5.18125,1.509626 0.54211,0.917734 1.11583,1.603294 1.27491,1.523469 0.15909,-0.07982 1.59591,-0.832076 3.19296,-1.671669 2.43455,-1.279884 3.45101,-1.500348 6.29106,-1.364486 l 3.38735,0.162044 v 5.744013 5.744017 l -3.95253,0.273524 c -3.15721,0.218486 -4.20294,0.524111 -5.19696,1.518869 -1.19474,1.195612 -1.25191,1.670764 -1.43154,11.898317 l -0.18711,10.652973 h -6.52172 -6.52172 z"
       id="path475"
       sodipodi:nodetypes="sscccsssscsscccsssssssssscssssssssssssssssssssssssssscssssscsccsssssssscccsssscccsssccccccssscscccssscccc" />
    <path
       style="stroke-width:0.547048"
       d="m 108.56271,144.15929 c -6.82082,-1.7864 -14.364752,-5.97621 -13.731543,-7.62633 0.400289,-1.04313 6.500133,-8.32827 7.019573,-8.38359 0.21981,-0.0234 1.69684,0.78298 3.2823,1.79198 3.63361,2.31249 6.36111,3.20703 10.04337,3.29394 3.30146,0.0779 4.66201,-0.75423 3.7139,-2.27153 -0.63941,-1.02329 -1.30067,-1.39829 -7.00208,-3.97085 -7.19859,-3.24812 -10.16363,-6.73735 -10.16363,-11.96045 0,-3.32451 1.87685,-7.78075 4.22374,-10.02855 6.24554,-5.981836 17.8017,-6.822756 27.85105,-2.02667 2.44684,1.16776 4.57926,2.46317 4.73871,2.87868 0.2797,0.72888 -5.70948,8.62915 -6.86587,9.0567 -0.31018,0.11468 -2.14184,-0.60079 -4.07037,-1.58992 -4.24326,-2.17637 -9.67742,-2.64119 -10.76233,-0.92059 -0.78457,1.24429 0.74763,2.51333 4.78234,3.96092 7.86917,2.82335 12.29692,7.36819 12.35391,12.68059 0.0355,3.30767 -1.99123,8.31551 -4.22401,10.4372 -1.04222,0.99036 -3.15897,2.45692 -4.70388,3.25904 -2.50555,1.30086 -3.48846,1.47176 -9.10002,1.58218 -3.46008,0.0681 -6.7834,-0.005 -7.38516,-0.16275 z m 36.65229,-1.22751 c -3.89738,-1.88278 -5.71607,-3.52859 -7.76756,-7.02918 -1.38704,-2.36682 -1.52118,-3.0757 -1.52647,-8.06731 -0.005,-4.77686 0.17744,-5.8633 1.43576,-8.54692 3.95487,-8.43455 11.834,-13.05319 21.07897,-12.35623 5.06298,0.38169 8.30583,1.85468 11.56364,5.2525 8.81824,9.19726 3.93652,25.67358 -9.18669,31.00601 -4.90944,1.99488 -11.14662,1.89137 -15.59765,-0.25887 z m 12.83332,-11.33432 c 2.3072,-1.94138 3.35681,-4.15338 3.42671,-7.22157 0.0716,-3.1442 -0.72563,-4.74009 -2.94001,-5.88519 -6.3546,-3.2861 -13.61629,7.90696 -8.59642,13.25037 1.77198,1.88619 5.78184,1.81518 8.10972,-0.14361 z m 52.23342,11.57105 c -5.09379,-2.53835 -5.75342,-6.69321 -2.73864,-17.2499 2.38374,-8.34702 2.38055,-7.65869 0.0355,-7.65869 -1.84398,0 -2.01246,-0.11947 -1.73568,-1.23086 2.43308,-9.7697 2.40241,-9.71012 4.9979,-9.71012 1.69589,0 1.78639,-0.11502 2.46053,-3.1274 1.31969,-5.897026 0.91813,-5.625366 8.31481,-5.625366 3.56222,0 6.47385,0.18463 6.47028,0.41028 -0.007,0.45364 -1.24445,5.179016 -1.86207,7.111626 -0.38269,1.19745 -0.28841,1.23086 3.47285,1.23086 4.4741,0 4.42428,-0.0928 2.98473,5.56308 -1.38946,5.45901 -1.29933,5.3779 -5.97588,5.3779 -3.68286,0 -4.08363,0.1046 -4.08363,1.06586 0,0.58622 -0.63009,3.06046 -1.40021,5.49831 -0.77011,2.43784 -1.324,5.21998 -1.23086,6.18254 l 0.16935,1.75009 3.41906,-0.13054 c 3.12688,-0.11939 3.41906,-0.0345 3.41906,0.9933 0,0.61812 -0.28561,1.65749 -0.63467,2.30973 -0.34907,0.65224 -0.90296,2.54389 -1.23087,4.20367 -0.5455,2.76121 -0.75897,3.07329 -2.51086,3.67071 -1.05307,0.35912 -3.65108,0.66683 -5.77337,0.68381 -3.0478,0.0244 -4.42791,-0.25277 -6.56733,-1.31889 z m -33.88332,0.13692 c -0.13825,-0.386 0.36885,-3.04046 1.1269,-5.89879 0.75805,-2.85833 1.87201,-7.16635 2.47545,-9.57336 0.60343,-2.40701 1.45489,-5.43123 1.89212,-6.72046 1.02638,-3.02644 1.09449,-2.8529 -1.1197,-2.8529 -1.05307,0 -1.90836,-0.18462 -1.90064,-0.41028 0.0342,-0.99846 2.06299,-9.36119 2.40547,-9.91534 0.20917,-0.33845 1.23511,-0.61536 2.27986,-0.61536 1.3304,0 1.98923,-0.28684 2.19883,-0.95733 1.61977,-5.18142 4.16563,-8.418456 8.29193,-10.543116 2.07903,-1.070518 2.98974,-1.179612 8.32317,-0.997062 3.29379,0.112737 6.22542,0.44754 6.51473,0.744 0.33748,0.345822 0.18184,1.911592 -0.43421,4.368362 -1.35108,5.387986 -1.59373,5.836326 -2.80713,5.186936 -1.79501,-0.96066 -4.77397,-0.63163 -5.97751,0.66022 -0.61347,0.65848 -1.11541,1.397 -1.11541,1.64114 0,0.24415 1.7232,0.4439 3.82935,0.4439 2.10613,0 3.82934,0.10782 3.82934,0.23958 0,0.84294 -1.77599,7.66356 -2.28818,8.78771 -0.57548,1.26304 -0.90554,1.36664 -4.3538,1.36664 -3.62608,0 -3.74034,0.0424 -4.05912,1.50439 -0.18041,0.82741 -1.05966,4.21228 -1.95389,7.52192 -1.40385,5.19578 -2.26889,8.2473 -4.26462,15.04385 -0.39364,1.34056 -0.5227,1.37069 -6.52157,1.5224 -4.59714,0.11626 -6.18254,-0.0198 -6.37137,-0.54705 z"
       id="path742"
       sodipodi:nodetypes="csssssssssssssssssscsssssssssssssssscscssssssssscssssscsssssscsssssssssssssssssss" />
  </g>
</svg>
