<?xml version="1.0" encoding="UTF-8" standalone="no"?>
<svg
   width="50mm"
   height="40mm"
   viewBox="0 0 350 111.02804"
   version="1.1"
   id="svg8"
   sodipodi:docname="ministerio.svg"
   inkscape:version="1.1.1 (1:1.1+202109281949+c3084ef5ed)"
   xmlns:inkscape="http://www.inkscape.org/namespaces/inkscape"
   xmlns:sodipodi="http://sodipodi.sourceforge.net/DTD/sodipodi-0.dtd"
   xmlns="http://www.w3.org/2000/svg"
   xmlns:svg="http://www.w3.org/2000/svg"
   xmlns:rdf="http://www.w3.org/1999/02/22-rdf-syntax-ns#"
   xmlns:cc="http://creativecommons.org/ns#"
   xmlns:dc="http://purl.org/dc/elements/1.1/">
  <sodipodi:namedview
     pagecolor="#ffffff"
     bordercolor="#666666"
     borderopacity="1"
     objecttolerance="10"
     gridtolerance="10"
     guidetolerance="10"
     inkscape:pageopacity="0"
     inkscape:pageshadow="2"
     inkscape:window-width="1366"
     inkscape:window-height="707"
     id="namedview1157"
     showgrid="false"
     inkscape:zoom="3.6200934"
     inkscape:cx="116.15722"
     inkscape:cy="45.440817"
     inkscape:window-x="0"
     inkscape:window-y="30"
     inkscape:window-maximized="1"
     inkscape:current-layer="svg8"
     inkscape:document-rotation="0"
     inkscape:pagecheckerboard="0"
     inkscape:document-units="mm" />
  <defs
     id="defs2" />
  <metadata
     id="metadata5">
    <rdf:RDF>
      <cc:Work
         rdf:about="">
        <dc:format>image/svg+xml</dc:format>
        <dc:type
           rdf:resource="http://purl.org/dc/dcmitype/StillImage" />
      </cc:Work>
    </rdf:RDF>
  </metadata>
  <path
     style="fill-opacity:1;fill-rule:evenodd;stroke:none;stroke-width:3.08403"
     d="m 183.39573,-32.065994 c 1.86831,-1.483061 3.02972,-1.908433 4.41831,-1.908433 1.6411,-0.218435 3.02971,0 5.12528,-0.42537 -0.22719,0.850742 -1.85572,2.333803 -3.72401,3.391493 -1.40127,0.850743 -3.02972,1.483061 -4.19114,1.689996 0.70694,0.218437 1.40128,0.643807 2.09558,1.483062 1.16139,1.069178 2.33539,2.552241 3.724,3.816866 -1.62844,-0.425384 -2.56261,-0.425384 -3.724,-0.632318 -0.93416,0 -2.09558,-0.206925 -3.25694,-1.276115 -1.6285,-1.05769 -1.6285,-1.908433 -1.8557,-2.322316 0,-0.643807 -0.23981,-1.069179 -1.40124,-1.276114 0.46709,-0.425383 0.93417,-0.425383 1.16137,-0.632318 0.46707,-0.425373 0.93416,-0.850743 1.62849,-1.908433 z M 132.67321,144.02722 c 0,-1.27613 0.23985,-2.54076 0,-3.81688 0.93417,1.05769 1.86833,1.69001 2.56263,2.54075 0.69432,0.63231 1.38863,1.48306 1.62848,2.96612 0,1.05769 0.22723,2.12688 0.22723,2.75918 0.23985,0.85074 0.23985,1.48304 0.46707,2.3338 -0.22722,-0.42537 -0.6943,-0.85076 -1.16138,-1.06917 -0.46708,-0.20694 -1.1614,-0.41389 -1.62848,-0.63233 0.46708,0.21846 0.93418,0.63233 1.40125,1.27613 0.45446,0.42537 0.92154,0.83925 1.16139,1.26461 -0.46708,-0.20691 -0.93416,-0.63229 -1.62846,-0.83924 -0.4671,-0.42537 -1.40126,-0.42537 -2.33541,-0.21842 -2.78986,-0.20695 -4.41835,-1.05769 -5.80696,-2.11538 -1.40124,-1.05768 -2.8025,-2.3338 -4.88541,-3.39149 0.6943,-0.42538 2.54998,-0.20694 4.64556,0 2.09554,0.42536 4.41834,1.05769 5.59234,1.90842 -0.46708,-0.63229 -0.46708,-1.70149 -0.23985,-2.9661 z m 97.02666,5.08147 c -1.16138,0.85074 -2.56263,1.48308 -5.11264,1.7015 -1.16139,-0.42537 -2.09554,-0.21842 -3.02971,0.20694 -0.69431,0.42538 -1.38863,0.85073 -1.85571,1.27611 0.22719,-0.64381 0.69432,-1.06917 1.38863,-1.70147 0.46708,-0.63235 0.93416,-1.0577 1.40125,-1.26464 -0.46709,0.20692 -1.16139,0.41387 -1.62848,0.63229 -0.46708,0.20695 -0.93417,0.42539 -1.40126,0.63235 0,-0.4254 0,-1.0577 0,-1.69001 0,-0.64384 0,-1.48306 0.23979,-2.33383 0.22719,-1.48305 0.92155,-2.33379 1.62848,-2.9661 0.92152,-0.85076 1.85573,-1.48304 2.55002,-2.54075 0,1.26462 0,2.54075 0.23976,3.81686 0,1.26464 0,2.32234 -0.46704,2.96613 1.16136,-0.64379 3.48415,-1.27614 5.81957,-1.70149 2.09556,-0.42539 3.95125,-0.42539 4.64556,0 -2.08293,1.0577 -3.25694,2.11534 -4.41834,2.96611 z m 8.14237,-6.9899 c -0.92153,1.05767 -2.32279,1.90843 -4.88543,2.33379 -1.38859,0 -2.09553,0 -2.55001,0.20693 -0.46707,0 -0.93416,0.21844 -1.40124,0.42537 0.69431,-0.42537 1.16138,-0.85074 1.85572,-1.2761 0.70694,-0.42538 1.17401,-0.83926 1.8683,-1.05771 -0.46708,0.21845 -1.16136,0.21845 -1.8683,0.42537 -0.69434,0.20695 -1.38864,0.42539 -1.85572,0.63234 -0.22718,-0.20695 -0.46707,-0.42538 -0.93415,-0.83926 -0.22719,-0.42538 -0.46711,-0.85073 -0.46711,-2.12688 -0.22718,-1.48306 0.2398,-2.32229 0.93419,-3.17305 0.46707,-0.85075 1.40124,-1.70148 1.86831,-2.96614 0.22718,1.48307 0.69434,2.74769 0.92157,4.02384 0.23978,1.2761 0.46705,2.33379 0.23978,2.96611 1.16136,-0.85076 3.25693,-1.69001 5.3525,-2.33382 1.85569,-0.63229 3.72401,-0.83923 4.41831,-0.63229 -1.86831,1.2761 -2.56262,2.54073 -3.49677,3.3915 z m 5.81955,-8.26606 c -1.16136,1.05769 -2.32277,1.90843 -4.64554,2.11538 -1.62846,-0.20693 -2.33539,0 -2.80247,0 -0.46708,0.21843 -0.92154,0.42536 -1.62847,0.64381 0.70693,-1.05769 0.46705,-1.48307 0,-1.90844 -0.46708,-0.42537 -0.92156,-0.85075 -0.92156,-2.54074 -0.23979,-1.70151 0.22717,-2.55224 0.92156,-3.39151 0.46705,-0.85073 1.40122,-1.48305 1.86834,-2.75916 0.22719,1.69 0.93414,3.39148 1.16137,4.87454 0,0.85076 0,1.69 -0.22719,2.33381 1.16138,-0.85075 2.78984,-1.48305 4.41829,-2.12686 2.3228,-0.63233 4.64557,-0.83925 5.35251,-0.41389 -1.86829,1.0577 -2.5626,2.32231 -3.49678,3.17306 z m 5.81959,-8.26605 c -0.6943,1.27613 -1.62844,2.11539 -3.95124,2.75918 -1.40127,0 -2.09554,0.20693 -2.56263,0.20693 -0.46708,0.21844 -0.69431,0.63232 -1.16141,0.63232 0.4671,-0.41389 0.92156,-0.83925 1.38863,-1.48305 0.46706,-0.41388 1.16141,-0.83926 1.62848,-1.05769 -0.46707,0.21844 -1.16142,0.21844 -1.8557,0.42536 -0.46708,0.21845 -0.93417,0.63233 -1.40124,1.05769 -0.22718,-0.42536 -0.69432,-0.6323 -1.1614,-0.83924 -0.2272,-0.42538 -0.6943,-1.0692 -0.93416,-2.33382 -0.22718,-1.48306 0,-2.3338 0.2398,-3.39149 0.46708,-0.85075 1.16138,-1.69001 1.38859,-3.17306 0.46712,1.48305 1.17406,2.74769 1.6285,4.02382 0.46706,1.26463 0.93414,2.32229 0.70692,3.17305 0.92155,-1.05769 2.78987,-2.11538 4.64556,-2.74768 1.62849,-0.85076 3.49681,-1.27613 4.19113,-1.06918 -1.38862,1.48306 -2.09556,2.75917 -2.78989,3.81686 z m 5.11268,-9.10528 c -0.69433,1.05769 -1.62847,1.90843 -3.95128,2.54073 -1.38862,-0.21844 -2.09556,0 -2.56263,0 -0.45444,0.20694 -0.69429,0.42539 -1.16138,0.6323 0.46709,-0.42535 0.93417,-1.05768 1.40123,-1.48304 0.46708,-0.42537 1.16138,-0.85075 1.85572,-1.05769 -0.69434,0.20693 -1.38864,0.20693 -1.85572,0.42539 -0.69429,0.2069 -1.16138,0.6323 -1.62847,0.85074 -0.2398,-0.21844 -0.46708,-0.42539 -0.93415,-0.85074 -0.46709,-0.42539 -0.69431,-1.05769 -0.93417,-2.33382 -0.22718,-1.48306 0,-2.54075 0.46708,-3.3915 0.46709,-0.85073 0.93416,-1.68999 1.40124,-3.17306 0.22718,1.48307 0.93418,2.74769 1.38862,4.23076 0.46707,1.27612 0.70693,2.3338 0.70693,3.18455 0.92155,-1.0577 2.78986,-2.12687 4.41835,-2.75918 1.85571,-0.63232 3.48416,-1.05768 4.19109,-0.63232 -1.40122,1.26463 -2.09552,2.54075 -2.80246,3.81688 z m 3.96387,-9.11681 c -0.46708,1.27612 -1.40126,2.33382 -3.49679,3.18457 -1.16141,0 -1.85571,0.20691 -2.32278,0.63231 -0.46708,0.20693 -0.46708,0.42535 -0.93419,0.6323 0.23977,-0.6323 0.70692,-1.05769 1.16142,-1.68999 0.46707,-0.42537 0.93414,-0.85074 1.40122,-1.27612 -0.6943,0.21843 -1.16138,0.42538 -1.62845,0.6323 -0.46708,0.42538 -0.93419,0.64382 -1.40128,1.0692 -0.22719,-0.21846 -0.6943,-0.42538 -1.16136,-0.85075 -0.2272,-0.21845 -0.69434,-0.85075 -1.16143,-2.11538 -0.69429,-1.49456 -0.46707,-2.55225 -0.22718,-3.60993 0.22718,-0.85076 0.46708,-1.90844 0.6943,-3.3915 0.46711,1.48306 1.40125,2.75919 2.09557,4.02382 0.69432,1.27611 1.16141,2.55225 1.16141,3.39149 0.69429,-1.26463 2.32278,-2.54075 3.95124,-3.39149 1.62847,-1.0577 3.02971,-1.69001 3.72403,-1.48308 -1.16141,1.7015 -1.38863,3.18458 -1.85569,4.24225 z m 3.72402,-10.59985 c -0.46709,1.27612 -1.16137,2.333801 -3.25693,3.184565 -1.40124,0.206915 -1.86835,0.425365 -2.33543,0.632295 -0.46708,0.21844 -0.46708,0.42538 -0.92152,0.85076 0.22718,-0.63232 0.6943,-1.27613 0.92152,-1.908446 0.46708,-0.425373 0.93419,-0.850754 1.40126,-1.276107 -0.46707,0.218435 -0.93418,0.425353 -1.40126,0.643797 -0.69429,0.425382 -1.16137,0.63231 -1.38859,1.057701 -0.2398,-0.218463 -0.70694,-0.425391 -1.16141,-0.632319 -0.23979,-0.425382 -0.70693,-1.069179 -1.174,-2.333815 -0.69431,-1.483058 -0.69431,-2.540735 -0.4545,-3.598428 0.2272,-0.850751 0.69434,-1.908429 0.69434,-3.391492 0.6943,1.483063 1.38863,2.747686 2.32279,4.0238 0.69429,1.264626 1.16137,2.540752 1.16137,3.391497 0.70693,-1.276117 2.09556,-2.540741 3.72403,-3.609932 1.40124,-0.839241 3.02974,-1.483063 3.72402,-1.264624 -1.16137,1.690008 -1.38862,2.966121 -1.85569,4.230748 z m 2.78985,-13.979847 c -0.69429,1.908431 -0.69429,3.391492 -0.93416,4.656117 -0.22719,1.483062 -0.93414,2.552241 -2.56263,3.816867 -1.38863,0.218437 -1.85572,0.643807 -2.08292,0.850743 -0.46707,0.206933 -0.46707,0.632317 -0.93416,0.850755 0.22719,-0.643822 0.46709,-1.276128 0.6943,-1.701498 0.46706,-0.632308 0.69433,-1.264626 1.16139,-1.689998 -0.46706,0.206936 -0.92153,0.632307 -1.3886,1.05769 -0.46709,0.206924 -0.70694,0.632308 -1.16142,1.276115 -0.23979,-0.42537 -0.70693,-0.42537 -1.17401,-0.850743 -0.46708,-0.218448 -0.92152,-0.850755 -1.62845,-1.908444 -0.92155,-1.48305 -0.92155,-2.54074 -0.92155,-3.59843 0,-1.069179 0.22718,-2.126867 0,-3.816866 0.92155,1.483061 1.85571,2.747687 2.78985,4.023814 0.93416,1.057677 1.62849,2.115368 1.85571,3.173057 0.46708,-1.483062 1.62847,-2.966122 3.02971,-4.230748 1.16141,-1.057689 2.56265,-1.908431 3.25694,-1.908431 z m 0,-7.415296 c -0.46707,1.264625 -0.93416,2.540739 -3.02971,4.230735 -1.38861,0.425382 -1.85571,0.850755 -2.3228,1.276125 -0.46706,0.425373 -0.46706,0.632308 -0.93414,1.057692 0.23979,-0.632319 0.70694,-1.264626 0.93414,-1.908435 0.46709,-0.632318 0.69433,-1.264624 1.40129,-1.908432 -0.70696,0.425372 -1.17402,0.850744 -1.62849,1.276114 -0.46707,0.425373 -0.93416,0.850756 -1.40124,1.483061 -0.22718,-0.206934 -0.69433,-0.206934 -1.16141,-0.42537 -0.46707,-0.206935 -0.93414,-0.632318 -1.40122,-1.483061 -0.93416,-1.264627 -0.93416,-2.333804 -0.69433,-3.391496 0,-1.057688 0.22718,-2.115366 0.22718,-3.391493 0.70693,1.05769 1.8683,2.126869 2.80246,2.966123 0.69433,1.057677 1.38865,1.908433 1.62849,2.759176 0.45448,-1.483062 1.85571,-3.184548 3.25695,-4.667609 1.62846,-1.48306 3.01709,-2.540751 3.72403,-2.540751 -0.93419,1.908433 -0.93419,3.391494 -1.40126,4.667621 z m -4.88542,-8.266051 c 0.4671,-1.276124 1.38863,-3.184545 2.78989,-4.874553 1.16137,-1.48305 2.32278,-2.759177 3.25694,-2.759177 -0.69433,1.908434 -0.46708,3.391494 -0.69433,4.66762 0,1.276113 -0.46708,2.54074 -2.33538,4.449172 -1.16141,0.632307 -1.62849,1.057689 -2.08292,1.483061 -0.2398,0.425372 -0.4671,0.632307 -0.70696,1.05769 0.23981,-0.632318 0.23981,-1.264624 0.70696,-1.908444 0.22718,-0.632307 0.45443,-1.264613 0.92151,-1.90842 -0.46708,0.425369 -0.92151,0.850742 -1.38861,1.276113 -0.4671,0.632307 -0.70692,1.057689 -1.16139,1.689997 -0.2398,-0.206936 -0.70694,-0.206936 -1.17401,-0.206936 -0.45448,-0.206924 -1.16141,-0.632307 -1.85571,-1.483061 -0.93415,-1.057677 -1.16137,-2.115368 -1.40123,-2.966111 0,-1.057688 0,-2.115367 -0.22718,-3.598428 0.93418,1.057679 2.09554,1.896932 3.25694,2.747674 0.93417,0.850754 1.85573,1.483061 2.09554,2.333816 z m 5.3525,-18.222082 c -0.70692,1.908433 -0.46708,2.540739 -0.70692,3.816866 0,1.264624 -0.45445,2.540738 -2.3228,4.230745 -1.16138,0.425372 -1.85568,0.850744 -2.09554,1.276115 -0.22718,0.425372 -0.46706,0.850745 -0.69433,1.05769 0.22721,-0.632318 0.22721,-1.276125 0.46709,-1.908433 0.2272,-0.632317 0.69432,-1.264623 0.9342,-1.690009 -0.4671,0.425386 -0.9342,0.839255 -1.17402,1.264637 -0.45447,0.425372 -0.92154,0.850744 -1.16141,1.483051 -0.22718,-0.206922 -0.6943,-0.206922 -1.16137,-0.425371 -0.46711,0 -1.16141,-0.413869 -2.09556,-1.264625 -0.93416,-1.276115 -1.16141,-2.115368 -1.38863,-3.184548 0,-1.057689 0,-1.908431 -0.23979,-3.391494 0.93416,1.06918 2.32277,1.908433 3.25693,2.759176 1.16141,0.850755 2.09556,1.701498 2.33543,2.540751 0.22718,-1.483061 1.38862,-3.173056 2.54999,-4.656118 1.16141,-1.483061 2.78984,-1.701498 3.49678,-1.908433 z m -6.75373,-2.333803 c 0.23979,-1.276128 0.93414,-3.173059 1.62847,-4.874557 0.93416,-1.48306 2.09554,-2.747686 2.78988,-2.966122 -0.22721,1.908433 0.23978,3.184559 0.46707,4.449183 0.2398,1.276115 0,2.540739 -1.38862,4.449173 -1.16137,0.632318 -1.62847,1.276126 -1.86833,1.701498 -0.22718,0.413883 -0.22718,0.632307 -0.46706,1.05769 0,-0.643807 0,-1.276127 0.23979,-1.908433 0,-0.63232 0.22719,-1.276127 0.46711,-1.908432 -0.46711,0.42537 -0.70693,0.850743 -1.16141,1.483049 -0.2398,0.425383 1.38863,-2.966112 1.16141,-2.333806 -0.46711,-0.206923 -2.56264,3.816866 -3.02971,3.609932 -0.69433,0 -1.40126,-0.218437 -2.32277,-1.06918 -1.40129,-1.05769 -1.62851,-1.896944 -2.09559,-2.747686 -0.23978,-1.05769 -0.46706,-2.115368 -0.93415,-3.391493 1.16138,0.850742 2.5626,1.689996 3.95125,2.333803 1.174,0.632318 2.33541,1.483061 2.56263,2.115381 z m 0.93414,-18.854401 c 0,2.115369 0.46709,3.391492 0.46709,4.656105 0.2272,1.276127 0,2.540752 -1.40123,4.24225 -0.92155,0.632305 -1.38863,1.264624 -1.62848,1.689997 -0.22718,0.218435 -0.22718,0.643806 -0.46708,1.05769 0,-0.63232 0,-1.264625 0,-1.908433 0,-0.63232 0.23978,-1.264625 0.46708,-1.896945 -0.22718,0.413882 -0.6943,0.839254 -0.93416,1.264625 -0.22717,0.63232 -0.45444,1.05769 -0.69429,1.701498 -0.46708,-0.218435 -0.69433,-0.218435 -1.38863,-0.218435 -0.46708,-0.206935 -1.174,-0.425384 -2.33542,-1.264625 -1.16139,-1.069181 -1.62845,-1.908432 -2.09554,-2.966124 -0.22719,-0.850742 -0.22719,-1.908432 -0.92155,-3.184558 1.16141,0.850755 2.55,1.701498 3.95128,2.333816 1.16137,0.850742 2.32278,1.483061 2.78986,2.333803 0,-1.483061 0.69429,-3.184559 1.62845,-4.874555 0.93418,-1.483061 1.86835,-2.759174 2.56262,-2.966109 z m -6.7537,-0.218437 c -0.2272,-1.483061 0.23976,-3.391494 0.70692,-4.874555 0.46708,-1.689997 1.38863,-2.966124 2.09556,-3.173058 0.22718,1.908432 0.92152,3.173058 1.3886,4.230736 0.46711,1.276125 0.46711,2.552252 -0.46708,4.460684 -0.92152,0.839253 -1.38859,1.264626 -1.38859,1.689999 -0.2398,0.425368 -0.2398,0.85074 -0.2398,1.276111 -0.22718,-0.643806 -0.22718,-1.276111 -0.46707,-1.908432 0,-0.643807 0,-1.276113 0.23978,-1.908432 -0.23978,0.425371 -0.46708,1.05769 -0.69429,1.48306 -0.23979,0.425372 -0.46708,1.057693 -0.46708,1.483061 -0.2398,0 -0.70693,0.206937 -1.40124,0 -0.46709,0 -1.16141,-0.218435 -2.32278,-0.850741 -1.62848,-0.850755 -2.32279,-1.690009 -2.78989,-2.540752 -0.46708,-1.057677 -0.93416,-1.908433 -1.86829,-3.184558 1.40121,0.850754 3.0297,1.276125 4.65818,1.908443 1.3886,0.643809 2.56261,1.057681 3.01709,1.908434 z M 249.70863,8.4019849 c 0.23979,1.9084321 0.93415,3.1845581 1.40123,4.4491711 0.46708,1.276126 0.46708,2.552254 -0.46708,4.449185 -0.93415,0.643807 -1.38862,1.069178 -1.38862,1.483061 -0.23978,0.425371 -0.23978,0.850742 -0.23978,1.276114 -0.22719,-0.632306 -0.46709,-1.276114 -0.46709,-1.908432 0,-0.632306 0,-1.264626 0.23979,-1.908434 -0.23979,0.425372 -0.46708,0.850755 -0.70693,1.483062 -0.22718,0.425372 -0.45444,1.05769 -0.45444,1.483061 -0.23979,0 -0.70694,0 -1.40126,0 -0.46707,-0.206934 -1.40124,-0.425371 -2.32278,-1.057689 -1.62847,-0.850743 -2.3354,-1.689998 -2.80249,-2.747674 -0.45446,-0.850756 -0.69431,-1.908447 -1.62847,-3.18456 1.40124,0.850742 3.02972,1.48306 4.43096,2.115368 1.38862,0.643807 2.54999,1.276127 3.25695,1.908432 -0.46709,-1.264625 0,-3.173058 0.46709,-4.874544 0.69429,-1.4830608 1.38858,-2.7476862 2.08292,-2.9661211 z m -6.04684,-4.0238141 c 0.23982,-1.4830482 1.6285,1.2761269 2.32281,1.0576912 0.70693,1.9084314 -0.2272,-2.1153688 0.46706,-0.8392544 0.46711,1.2646261 0.9342,2.3223136 0.2398,4.4491833 -0.70692,0.8392543 -0.93416,1.2646261 -0.93416,1.6899981 -0.22718,0.42537 0,0.850754 0,1.276126 -0.46707,-0.643809 -0.69431,-1.276126 -0.69431,-1.908434 -0.23978,-0.6438064 -0.23978,-1.2761256 -0.23978,-1.9084323 -0.22718,0.6323067 -0.46707,1.0576784 -0.46707,1.48305 -0.22718,0.6323183 -0.22718,1.0576903 0,1.6900073 -0.45447,0 -0.92154,0 -1.38863,0 -0.69431,0 -1.40124,0 -2.78985,-0.632317 -1.62849,-0.8507438 -2.56264,-1.4830619 -3.25695,-2.3338041 -0.46706,-0.8392546 -1.17401,-1.9084338 -2.3354,-2.9661229 1.62847,0.6438075 3.25693,1.0576891 4.8854,1.4830592 1.40124,0.4253722 2.80249,1.0576915 3.4968,1.7014986 -0.46708,-1.4830605 0.46709,-2.5407503 0.69428,-4.242249 z m -7.44801,-5.9322329 c -0.69433,-1.2761158 -0.92154,-3.1845466 -0.92154,-5.0814891 0,-1.701487 0.22718,-3.3914818 0.69429,-3.8168658 0.93418,1.9084318 1.85571,2.7476857 2.32278,3.8168658 0.70694,0.8392531 0.93419,2.1153785 0.93419,4.4491822 -0.46712,1.26462512 -0.46712,1.90843259 -0.46712,2.3223152 0,0.64380753 0.23981,0.85074249 0.23981,1.4945512 -0.46708,-0.64380871 -0.70692,-1.27611439 -0.93417,-2.12686947 -0.46708,-0.63231823 -0.46708,-1.26462513 -0.69431,-1.90843373 0,0.6438086 0,1.2761155 0,1.90843373 0,0.63231827 0.22721,1.2761258 0.22721,1.70149757 -0.22721,0.2069236 -0.46708,0.4253719 -0.93417,0.6323068 -0.46708,0 -1.1614,0.2069351 -2.32277,0 -1.62848,-0.4253718 -2.56265,-1.05767857 -3.25694,-1.90843251 -0.69434,-0.63230681 -1.40126,-1.68999699 -2.56262,-2.54073969 1.40122,0.2069238 3.0297,0.2069238 4.19108,0.4253709 1.38861,0 2.56261,0.2069237 3.48417,0.6323069 z m -10.46513,-7.2083576 c 1.38859,-0.2069253 2.56261,-0.2069253 3.25691,0.2184469 -0.6943,-1.0576894 -1.16139,-2.9661232 -1.40126,-4.6676202 -0.22718,-1.689996 0,-3.173058 0.46711,-3.816865 1.16139,1.701497 2.09553,2.55224 2.78987,3.184559 0.70694,0.850743 1.17401,1.908432 1.40122,4.2422368 -0.46708,1.264624 -0.46708,1.8969309 -0.22719,2.5407395 0,0.4253825 0.22719,0.6323187 0.22719,1.2646246 -0.46708,-0.6323059 -0.69428,-1.2646246 -1.16136,-1.9084332 -0.23977,-0.6323069 -0.69434,-1.2646241 -0.69434,-1.8969309 0,0.6323068 0,1.264624 0,1.8969309 0.22718,0.6438086 0.22718,1.2761273 0.69434,1.701498 -0.46711,0.2069352 -0.69434,0.4253701 -1.16141,0.6323193 -0.46709,0.218435 -1.16137,0.4253702 -2.33543,0.4253702 -1.62845,-0.2069352 -2.54999,-0.8507543 -3.48415,-1.4830602 -0.69431,-0.6323187 -1.62846,-1.2761273 -3.02971,-2.1153688 1.62849,0 3.25693,-0.2184469 4.65821,-0.2184469 z m -9.07655,-7.6222313 c 1.40126,0 2.78985,-0.218436 3.49679,0.206937 -0.93414,-1.057691 -1.62846,-3.173058 -2.09553,-4.874556 -0.46709,-1.689997 -0.46709,-3.391494 0,-4.023801 1.16139,1.701487 2.32277,2.333804 3.48416,3.391482 0.93417,0.850756 1.62849,2.11538 1.86832,4.24225 -0.23977,1.264625 -0.23977,1.89693 -0.23977,2.540737 0.23977,0.425373 0.46706,0.632321 0.46706,1.057691 -0.46706,-0.42537 -0.93415,-1.057691 -1.16139,-1.701498 -0.46708,-0.41387 -0.6943,-1.057678 -0.93415,-1.689996 0,0.632318 0,1.057691 0.23978,1.689996 0,0.643807 0.22718,1.276128 0.45445,1.701498 -0.22719,0.206934 -0.45445,0.425371 -0.92152,0.632307 -0.46709,0.218448 -1.16141,0.425383 -2.56263,0.425383 -1.62849,0 -2.56267,-0.425383 -3.49681,-1.05769 -0.92154,-0.632318 -1.62848,-1.276126 -3.01711,-1.908433 1.38863,0 3.01711,-0.42537 4.41835,-0.632307 z m -9.30373,-13.140592 c 1.62844,1.276114 3.01707,1.689997 4.4183,2.333804 1.16142,0.632309 2.09556,1.264626 2.78986,3.598428 0,0.425373 0,0.850744 0,1.276128 0,0.206922 0,0.632307 0,0.839241 -0.22719,-0.413871 -0.6943,-0.839241 -0.93415,-1.264625 -0.45445,-0.425371 -0.69429,-0.850744 -0.69429,-1.057679 0.23977,1.057679 0.23977,1.689999 0.46706,2.322304 0.22719,0.643809 0.46708,0.850754 0.6943,1.48306 0,0.218438 -0.22718,0.425373 -0.46707,0.850756 -0.2272,0.218435 -0.92153,0.632307 -2.3228,0.850742 -2.56262,0.206936 -3.72401,-0.218435 -4.65814,-0.632318 -0.92156,-0.42537 -1.62849,-1.06918 -3.25697,-1.483049 1.62848,-0.218448 3.0297,-0.643819 4.43098,-1.069191 1.38857,-0.413871 2.78985,-0.632305 3.72399,-0.632305 -1.174,-0.850744 -2.33542,-2.333817 -3.25693,-4.023801 -0.70694,-1.483062 -1.17402,-2.966123 -0.93414,-3.391495 z m -3.02974,6.357605 c -0.93416,0.206934 -1.85569,0.632319 -3.72403,1.057691 -1.62846,0.218434 -3.72402,-0.425372 -5.11264,-1.264627 -1.40122,-0.643806 -2.33543,-1.701497 -1.86831,-2.126869 0,0 0.23978,0.218438 0.46709,0.218438 0,0 0.23977,0 0.46708,0 0.69427,0.42537 2.09554,0.632317 3.48413,0.839253 1.40127,0 2.56265,0 3.49681,-0.206936 -0.69431,0 -1.40124,0 -2.09554,-0.206935 -0.69434,-0.218436 -1.16142,-0.425371 -1.85569,-0.643806 0.69427,-0.206924 1.38861,-0.425373 2.32278,-0.632307 0.93414,-0.425372 1.8557,-0.632308 3.02971,-1.057691 1.62845,0.206935 2.08293,0.839254 2.32278,1.689998 0.46708,0.850754 0.6943,1.48306 1.62844,1.908432 -1.16136,-0.206925 -1.86829,0 -2.56261,0.425383 z m -9.30376,-8.26605 c 0.93416,-0.632306 1.85571,-2.115367 3.48416,-1.90842 1.86836,0 3.72406,0.218436 4.43099,0.632307 0.69429,0.42537 2.32278,0.850742 3.48415,0.42537 0.22719,0.643809 -4.41831,2.966123 -7.44803,3.816866 -3.25696,0.632319 -6.51391,0.850755 -7.44806,-0.632306 0.70693,0.206923 1.40124,0.206923 2.09557,0 0.46709,0 1.16136,-0.218437 1.86831,-0.643808 -0.46709,0.218436 -1.16138,0.218436 -1.62848,0.218436 -0.46708,0 -1.1614,0 -1.62847,-0.218436 0.92152,-0.413882 1.85573,-1.264625 2.78986,-1.690009 z m -14.65625,1.690009 c 1.16142,0 1.16142,0 2.32278,-0.413882 0.69433,0 1.40125,-0.425373 2.09557,-0.643807 -0.46708,0.425371 -1.16139,1.057689 -1.86833,1.276125 -0.69433,0.425372 -1.3886,0.850742 -2.32277,0.850742 z m -8.38222,0.643808 c 0.23979,-0.218437 0.69433,-0.850755 1.16141,-1.908433 1.40123,-1.908433 2.56262,-2.540751 3.96387,-2.966123 1.3886,-0.42537 2.78984,-0.632318 4.64556,-1.483061 0.23979,0.632319 -0.92155,2.11538 -2.32279,3.598429 -1.40125,1.483062 -3.02971,2.759188 -4.41833,3.184558 0.92154,0.206936 1.8557,0.839255 3.01708,1.689998 1.17402,0.850755 2.33542,1.701498 3.49684,2.540739 -1.62852,-0.206924 -2.56267,0 -3.72408,0.218447 -0.93414,0 -2.09553,0 -3.49677,-0.850754 -1.16138,-0.632306 -1.62846,-1.057677 -1.85571,-1.483059 -0.2272,-0.425373 -0.2272,-0.850744 -0.46708,-1.05768 0.46708,-0.218436 0.93418,-0.632319 1.40125,-1.057691 0.46708,-0.42537 0.92154,-0.850742 1.16139,-1.48306 -0.46708,0.413882 -0.93416,0.839253 -1.62846,1.05769 -0.69432,0.42537 -1.40126,0.632318 -2.09556,0.850742 0.46708,-0.425372 0.6943,-0.425372 1.16138,-0.850742 z m -10.93222,1.483061 c 0.22719,-0.425383 0.69429,-0.850755 1.16142,-2.126869 1.40121,-1.896943 2.56262,-2.540752 3.95121,-2.966122 1.40128,-0.413871 2.78987,-0.632307 4.88543,-1.689996 0,0.850742 -0.92155,2.115366 -2.32277,3.598429 -1.40124,1.276125 -3.02972,2.759175 -4.41834,3.391494 0.93418,0 1.85568,0.643806 3.0171,1.276126 1.17401,0.632305 2.33538,1.48305 3.49679,2.115368 -1.40126,0 -2.56262,0.425369 -3.72404,0.643806 -0.93417,0.206936 -2.09553,0.206936 -3.48417,-0.425372 -1.17399,-0.425382 -1.62847,-1.057689 -1.86834,-1.276125 -0.22718,-0.425372 -0.22718,-0.850742 -0.69429,-1.057677 0.69429,-0.425382 1.16142,-0.850755 1.6285,-1.276126 0.22717,-0.425372 0.6943,-1.057691 1.16137,-1.483062 -0.69431,0.425371 -1.16137,0.850743 -1.85571,1.276126 -0.70694,0.425371 -1.40124,0.632307 -2.09555,0.850742 0.46709,-0.218435 0.69431,-0.425371 1.16139,-0.850742 z m -10.93222,3.391482 c 0.22719,-0.42537 0.45445,-0.850743 0.92153,-2.126857 0.70692,-2.540751 2.09555,-3.391494 3.72403,-4.023812 1.40125,-0.632307 3.25694,-0.850743 4.88541,-2.115367 0.46709,0.632305 -0.22717,2.333803 -1.62847,4.023799 -1.38862,1.701497 -3.25694,3.391494 -4.88542,4.023801 0.93415,0 2.09557,0.425384 3.25692,1.06919 1.16142,0.632307 2.32282,1.264627 3.72406,1.689998 -1.40124,0.206934 -2.56264,0.632306 -3.72406,1.057688 -0.93413,0.218437 -2.09552,0.425372 -3.48414,-0.206934 -1.16141,-0.218437 -1.62848,-0.643809 -2.09555,-1.057691 -0.2398,-0.42537 -0.2398,-0.643806 -0.46708,-0.850742 0.46708,-0.425372 0.93415,-0.850756 1.1614,-1.483062 0.46708,-0.425371 0.93416,-0.850742 1.16137,-1.48306 -0.46706,0.425372 -1.16137,1.057689 -1.62847,1.48306 -0.6943,0.425371 -1.3886,0.632306 -2.09553,1.05769 0.46707,-0.425384 0.70693,-0.632319 1.174,-1.05769 z m -10.25054,5.506875 c 0.23985,-0.425373 0.23985,-1.057691 0.23985,-2.333817 0.46709,-2.115368 1.40125,-2.96611 2.56263,-3.805365 1.16141,-0.643808 2.56265,-1.276113 4.19112,-2.552239 0.22721,0.643806 0,2.126869 -0.93416,3.816863 -0.69431,1.483064 -1.62848,3.18456 -2.78988,4.023802 0.92155,0 2.09557,0.218437 3.48419,0.643807 1.40122,0.413883 3.02972,0.839254 4.41832,1.057691 -1.3886,0.425372 -2.32279,1.05769 -3.25695,1.48306 -1.16137,0.425372 -2.09553,0.632307 -3.72401,0.425372 -1.38863,-0.218435 -2.09557,-0.425372 -2.32279,-0.850742 -0.46708,-0.218449 -0.69431,-0.632318 -1.16138,-0.850756 0.46707,-0.425371 0.6943,-0.850742 0.93416,-1.483049 0.22722,-0.425383 0.45444,-1.05769 0.45444,-1.483062 -0.22721,0.425372 -0.6943,1.057679 -1.16137,1.483062 -0.46708,0.425373 -0.93416,1.057678 -1.62848,1.483049 0.23984,-0.425371 0.46708,-0.632307 0.69432,-1.057676 z m -7.20821,2.966109 c 0.23985,-2.115367 1.16139,-3.173058 2.09555,-4.242238 0.93418,-0.839251 2.32279,-1.689994 3.48418,-3.173056 0.46708,0.425371 0.23985,2.115368 -0.22723,3.816866 -0.46709,1.908433 -1.16137,3.805376 -2.09555,4.874554 0.93418,-0.425371 2.09555,-0.425371 3.49679,-0.218436 1.38864,0.218436 3.01712,0.425373 4.41836,0.643808 -1.40124,0.632306 -2.09557,1.264625 -3.02972,1.896932 -0.93416,0.425384 -1.85571,1.06919 -3.48418,1.06919 -1.1614,0 -1.86833,-0.218448 -2.32278,-0.425382 -0.46709,-0.218438 -0.70695,-0.643808 -1.17403,-0.643808 0.23987,-0.632307 0.46708,-1.057679 0.70694,-1.689997 0,-0.632307 0,-1.057678 0.22722,-1.701498 -0.22722,0.64382 -0.6943,1.276128 -0.93416,1.701498 -0.46707,0.632318 -0.92154,1.05769 -1.16139,1.689997 0,-0.41387 0.23985,-0.839254 0.23985,-1.264626 0.22724,-0.425371 0.22724,-1.057678 -0.23985,-2.333804 z m -8.36959,6.3576174 c 0.22722,-2.3338034 0.69433,-3.3914944 1.38863,-4.2422364 0.6943,-0.839255 1.62847,-1.689998 2.78986,-3.391495 0.46707,0.643807 0.46707,2.126869 0.46707,3.816865 -0.22721,1.908433 -0.69428,3.8168664 -1.62846,4.8745548 0.93418,-0.4253815 2.09554,-0.4253815 3.4968,-0.2069346 1.38862,0 2.78986,0.2069346 4.41832,0.2069346 -1.40124,0.6323069 -2.09554,1.4830502 -3.0297,2.1153694 -0.6943,0.6438056 -1.62847,1.0691768 -3.25696,1.276112 -1.38861,0.2069362 -2.09555,0 -2.56263,-0.4253702 -0.45448,-0.2069221 -0.6943,-0.4253711 -1.16141,-0.4253711 l 0.46711,-1.6899968 0.46708,-1.4830605 c -0.46708,0.6323172 -0.69433,1.2646241 -1.16138,1.6899953 -0.23988,0.4253721 -0.4671,0.8507561 -0.69433,1.0576913 0.22722,-0.2069352 0.22722,-0.6323192 0.22722,-1.0576913 0.22722,-0.4253712 0,-1.0576781 -0.22722,-2.1153665 z m -6.05942,3.3914933 c 0.70692,-1.0576894 1.40123,-1.9084327 2.33539,-3.8168654 0.46708,0.6323068 0.92155,2.1153674 0.92155,4.0238006 0,1.7014976 -0.45447,3.8168641 -0.92155,5.09299108 0.69432,-0.64380758 1.85571,-0.85075508 3.25694,-0.85075508 1.16142,0 2.78988,0 4.1785,-0.2069237 -1.1614,0.83924192 -1.8557,1.68999705 -2.55003,2.54073953 -0.70693,0.63231817 -1.62847,1.26462617 -3.25693,1.68999797 -0.93416,0.218447 -1.62848,0.218447 -2.09556,0 -0.46708,-0.2069237 -0.93416,-0.4253718 -1.16139,-0.4253718 0.22723,-0.632308 0.22723,-1.26462617 0.22723,-1.9084337 0,-0.63230682 0,-1.2646252 0,-1.896932 0,0.83924192 -0.22723,1.48304939 -0.4671,2.11536881 -0.22721,0.63230568 -0.69429,1.27611439 -1.16139,1.90843249 0.23986,-0.4253706 0.23986,-0.8507436 0.4671,-1.27612681 0,-0.63230568 -0.22724,-1.2646251 -0.69433,-2.33380329 0,-2.5407408 0.46708,-3.5984292 0.92154,-4.6561187 z m -7.9025,11.2321601 c 0.6943,-1.2761142 1.62845,-2.3338042 2.32278,-4.24223811 0.46708,0.21843681 1.16138,1.70149761 1.40123,3.39149581 0.22724,1.4830595 0,3.391493 -0.46708,4.6676064 0.69432,-0.643806 2.09555,-1.0691782 3.48417,-1.4830606 1.62846,-0.425371 3.25694,-0.8507422 4.65819,-1.4830608 -0.93417,1.0576898 -1.62848,1.8969432 -2.32278,2.7476859 -0.46709,0.8507547 -1.40123,1.7014976 -3.02972,2.3338166 -1.40124,0.632306 -2.09554,0.850743 -2.56263,0.850743 -0.6943,0 -0.93416,-0.218437 -1.38862,-0.218437 0,-0.425372 0,-1.057689 0,-1.483061 -0.23985,-0.6323183 -0.23985,-1.0576899 -0.46709,-1.4830616 0,0.4253717 0,1.0576898 -0.23984,1.7014976 -0.22723,0.632306 -0.46709,1.264625 -0.69431,1.908434 0,-0.425372 0,-0.643809 0,-1.069181 0,-0.425383 -0.23986,-1.057689 -1.16139,-1.9084314 -0.46708,-1.8969443 -0.23986,-3.1730587 0.46707,-4.2307478 z m -4.19112,12.2898512 c -0.93416,-1.908433 -0.93416,-2.966124 -0.46709,-4.242239 0.23985,-1.264624 1.1614,-2.54075 1.1614,-4.4491836 0.93417,0.2184489 1.62849,1.4830616 2.09557,3.1845596 0.69429,1.48306 0.93415,3.391495 0.69429,4.65612 0.70695,-0.63232 1.86833,-1.264625 3.25695,-1.908434 1.40125,-0.632319 2.80248,-1.264626 4.43095,-2.11538 -0.93416,1.276126 -1.40125,2.333816 -1.86833,3.173058 -0.46707,0.850756 -1.16137,1.701499 -2.56262,2.759188 -1.16139,0.632306 -1.8557,0.850743 -2.55,0.850743 -0.46709,0.206934 -0.93417,0 -1.17404,0.206934 -0.2272,-0.632317 -0.2272,-1.05769 -0.45443,-1.689996 -0.23987,-0.425383 -0.4671,-0.850755 -0.70696,-1.276126 0,0.425371 0.23987,1.05769 0,1.701497 0,0.632308 0,1.264625 -0.2272,1.896933 0,-0.41387 0,-0.632308 -0.23986,-1.057679 0,-0.425382 -0.45446,-0.839254 -1.38863,-1.690008 z m -5.59235,6.564551 c 0.46708,-1.264624 1.17401,-2.540752 1.40124,-4.449185 0.69431,0.218449 1.40125,1.483063 1.86833,3.184561 0.6943,1.689995 0.92154,3.391493 0.6943,4.656118 0.69432,-0.632319 1.8557,-1.057691 3.25696,-1.689996 1.3886,-0.643808 3.01708,-1.05769 4.41834,-1.908434 -0.93418,1.264626 -1.40126,2.115369 -1.8557,2.966111 -0.46709,1.057691 -1.17404,1.908432 -2.56264,2.759187 -1.16139,0.632306 -1.85572,0.839255 -2.56264,0.839255 -0.46708,0 -0.93417,0 -1.38862,0 0,-0.632317 0,-1.05769 -0.23987,-1.483063 -0.22721,-0.632317 -0.46708,-1.057688 -0.69431,-1.48306 0,0.643807 0,1.057678 0,1.701497 0,0.632309 0,1.264626 -0.23986,1.908432 -0.2272,-0.425371 0,-0.643806 -0.2272,-1.06919 -0.22723,-0.413871 -0.46709,-0.839242 -1.40125,-1.689996 -1.161399,-1.908434 -0.92154,-3.184547 -0.46708,-4.242237 z m -1.628469,12.508286 c -1.388631,-1.701498 -1.628482,-2.966123 -1.388631,-4.24225 0,-1.264613 0.46708,-2.540736 0.46708,-4.44917 0.694321,0.218435 1.628481,1.483061 2.55002,2.966121 0.93416,1.483049 1.64109,3.391496 1.64109,4.667608 0.45446,-0.850742 1.38861,-1.483061 2.78987,-2.126868 1.16139,-0.839253 2.55001,-1.483062 3.72404,-2.54074 -0.4671,1.276115 -0.70696,2.333805 -0.93417,3.391496 -0.23986,0.850743 -0.69431,1.689994 -2.09557,2.759175 -0.93415,0.839252 -1.62847,1.264625 -2.09556,1.48306 -0.46708,0.206935 -0.93415,0.425371 -1.16137,0.425371 -0.22723,-0.425371 -0.46709,-1.069179 -0.93417,-1.701498 -0.22723,-0.632305 -0.69431,-1.276114 -1.1614,-1.689996 0.46709,0.63232 0.46709,1.264625 0.46709,1.689996 0.22722,0.632319 0,1.276127 0,2.115382 -0.23985,-0.413884 0,-0.839255 -0.23985,-1.264625 -0.22723,-0.425372 -0.694319,-0.850757 -1.628469,-1.483062 z m -4.885422,6.139168 c 0.239866,-1.264613 0.706936,-2.540739 0.467093,-4.449171 0.706924,0.218435 1.868312,1.48306 2.789847,2.966121 0.934161,1.48305 1.628482,3.391492 1.628482,4.667608 0.23985,-0.643808 1.401229,-1.276116 2.562629,-1.908432 1.40124,-0.850744 2.78986,-1.483062 3.96387,-2.333805 -0.70692,1.276115 -0.70692,2.333805 -1.17401,3.184547 -0.22722,1.05769 -0.69432,1.896944 -1.85569,2.747687 -0.93417,0.850755 -1.62848,1.05769 -2.32279,1.276126 -0.467079,0 -0.934159,0 -1.174009,0 -0.22723,-0.425371 -0.454471,-1.057691 -0.694321,-1.48306 -0.46708,-0.425373 -0.69431,-1.057692 -1.161377,-1.483063 0.227203,0.63232 0.467067,1.264625 0.694297,1.908432 0,0.63232 0,1.264626 0,1.896946 -0.22723,-0.413883 -0.22723,-0.63232 -0.467081,-1.057691 -0.227216,-0.425372 -0.694296,-0.839255 -1.855697,-1.689997 -1.161389,-1.701498 -1.401243,-2.966122 -1.401243,-4.242248 z m 4.885422,15.255972 c -0.22723,-0.632308 -0.694321,-1.05768 -0.921551,-1.483062 -0.46708,-0.413869 -0.934147,-0.839255 -1.401227,-1.264625 0.46708,0.42537 0.694296,1.057691 0.934147,1.690007 0.22723,0.643811 0.46708,1.276115 0.46708,1.908422 -0.23985,-0.206924 -0.23985,-0.632307 -0.706931,-1.057678 -0.227216,-0.425372 -0.694296,-0.850744 -2.082923,-1.276126 -1.62847,-1.689997 -2.09555,-2.747674 -2.335405,-3.805363 -0.227227,-1.069179 -0.227227,-2.333804 -0.69432,-4.242237 0.69432,0.206922 2.095562,1.057677 3.256951,2.333804 1.401244,1.483062 2.562628,2.966122 2.789858,4.230735 0.239861,-0.632306 1.161401,-1.48305 2.32279,-2.322302 0.93416,-0.850755 2.09555,-1.701497 3.26957,-2.759187 -0.46708,1.276125 -0.23987,2.333816 -0.46708,3.391492 0,0.850755 -0.23987,1.689997 -1.40125,2.966124 -0.69431,0.850753 -1.40124,1.276127 -1.8557,1.276127 -0.467079,0.206922 -0.934159,0.206922 -1.174009,0.413869 z m -6.04681,18.647467 c -0.227227,-0.839255 -0.467082,-2.11538 -1.1614,-5.506863 0.694318,0 2.095562,0.850743 3.496805,1.908433 1.388627,1.276114 2.550004,2.759175 3.256934,4.023801 0,-0.850756 0.694321,-1.689996 1.62848,-2.540751 0.69431,-1.057678 1.8557,-2.115369 2.55001,-3.173058 0,1.48306 0.23985,2.540751 0.23985,3.380004 0.22722,1.069179 0.22722,2.126871 -0.69431,3.391494 -0.46708,1.069179 -1.17401,1.48305 -1.64109,1.48305 -0.45446,0.218448 -0.921539,0.218448 -1.161389,0.64382 0,-0.425383 -0.22722,-1.057691 -0.46708,-1.483062 -0.22722,-0.425384 -0.45446,-0.850754 -0.69431,-1.276126 0.23985,0.425372 0,1.05769 0,1.483062 -0.227231,0.42537 -0.467081,1.057688 -0.467081,1.483061 -0.22723,-0.206935 -0.22723,-0.425373 -0.22723,-0.632318 -0.239838,-0.425373 -0.694303,-0.632308 -1.628464,-1.057679 -1.868324,-1.276126 -2.562633,-1.483063 -3.029715,-2.126868 z m -0.69432,-16.520599 c 0.69432,0 2.095562,1.05769 3.256951,2.540752 1.401244,1.264626 2.562628,2.96611 2.789858,4.242237 0.239861,-0.643808 1.161401,-1.483063 2.09555,-2.333803 1.1614,-0.850756 2.32279,-1.701499 3.25694,-2.540753 -0.22721,1.264626 -0.22721,2.322316 -0.22721,3.173058 0,1.05769 -0.23987,1.908432 -1.40124,3.184559 -0.69431,0.839242 -1.40125,1.057678 -1.8557,1.264624 -0.467078,0.218438 -0.934169,0.218438 -1.174009,0.218438 -0.22723,-0.425373 -0.45447,-1.06918 -0.921551,-1.483062 -0.46708,-0.425371 -0.934144,-0.850754 -1.401237,-1.276127 0.467093,0.425373 0.694319,1.057691 0.934157,1.690009 0.22722,0.643807 0.46708,1.276114 0.694311,2.126856 -0.467081,-0.42537 -0.467081,-0.850742 -0.694311,-1.276114 -0.467064,-0.425371 -0.934157,-0.850742 -2.095547,-1.48306 -1.855696,-1.689997 -2.322787,-2.747688 -2.562642,-3.816865 -0.227216,-1.264624 -0.227216,-2.322316 -0.694308,-4.230749 z m 4.191113,24.361265 c 1.161386,1.069179 2.322787,2.333804 2.789867,3.391495 0.22721,-0.839255 0.934159,-1.908433 1.855699,-3.173059 0.93416,-1.057689 1.86832,-2.333804 2.80249,-3.59843 -0.23987,1.483064 0,2.322306 0,3.379994 0,1.069179 -0.23987,2.126869 -0.93417,3.609929 -0.69431,1.05768 -1.16139,1.689998 -1.62847,1.908434 -0.46708,0.413882 -0.70693,0.413882 -1.16139,0.632318 0,-0.425383 -0.239859,-0.850754 -0.467079,-1.276125 -0.23985,-0.425372 -0.46708,-0.632319 -0.93416,-1.05769 0.46708,0.425371 0.46708,1.05769 0.46708,1.701497 0.22721,0.632318 0,1.483063 0.22721,2.115369 -0.22721,-0.425373 -0.46707,-0.632306 -0.6943,-1.057679 -0.467081,-0.218448 -0.934161,-0.643808 -2.095549,-0.850755 -1.855709,-1.057689 -2.322779,-2.115369 -2.562633,-3.173058 -0.227226,-1.069178 -0.227226,-2.126868 -0.921533,-4.035301 0.694307,-0.206923 2.09555,0.425373 3.256938,1.483061 z M 95.218356,95.70705 c -0.706924,-1.05768 -1.174017,-2.322307 -2.335405,-4.023803 0.706935,-0.206923 2.562631,0.218437 4.191112,1.276128 1.628468,0.839241 3.256927,1.908432 3.951247,3.173056 0,-0.850754 0.70693,-1.908431 1.40125,-3.173056 0.69429,-1.276128 1.40124,-2.759189 2.09554,-4.035303 0,1.483061 0.46709,2.333805 0.69432,3.391481 0.23984,1.06919 0.23984,1.908447 -0.46708,3.609931 -0.46709,1.264623 -0.92154,1.908429 -1.38862,2.322323 -0.46709,0.218435 -0.93416,0.425353 -0.93416,1.069179 -0.22723,-0.643826 -0.46709,-1.069179 -0.69432,-1.483073 -0.23985,-0.425365 -0.70693,-0.643806 -1.17401,-0.850742 0.23985,0.206936 0.46708,0.632326 0.70693,1.057689 0,0.425382 0,0.850744 0,1.483054 -0.23985,-0.206919 -0.46708,-0.425373 -0.70693,-0.425373 -0.45446,-0.206917 -0.921539,-0.206917 -1.628469,-0.425381 -2.082935,-0.839247 -3.017098,-1.689989 -3.711405,-2.96611 z m 4.178485,11.02523 c -0.69431,-1.05769 -1.161401,-2.3338 -2.322778,-4.0353 0.694297,-0.20693 2.562628,0.21845 4.191097,1.06919 1.62847,0.83925 3.25694,2.11536 3.95126,3.17305 0,-0.85075 0.70692,-1.90844 1.16138,-3.17305 0.70695,-1.27613 1.62847,-2.55226 2.33543,-3.816865 0,1.264605 0.45443,2.333795 0.6943,3.173035 0.22722,1.0692 0.22722,2.12689 -0.23987,3.60994 -0.45445,0.85075 -0.69428,1.48307 -1.16139,1.90843 -0.2272,0.42538 -0.69429,0.63233 -0.92152,0.63233 -0.23988,-0.42538 -0.4671,-0.63233 -0.70696,-1.05769 -0.45445,-0.42539 -0.6943,-0.63232 -1.16137,-1.05768 0.46707,0.63229 0.70692,1.05768 0.70692,1.68999 0.22724,0.6323 0.45446,1.48307 0.45446,2.11538 -0.45446,-0.41388 -0.69431,-0.63231 -0.92154,-0.83926 -0.46707,-0.21844 -1.17401,-0.42537 -2.33541,-0.42537 -2.09554,-0.85075 -3.01708,-1.90845 -3.724009,-2.96613 z m 3.963879,8.67992 c -0.93416,-0.83924 -1.40125,-2.11536 -3.02973,-3.37999 0.69432,-0.42539 2.56264,-0.21844 4.41835,0.41387 1.62846,0.64381 3.49679,1.48307 4.65819,2.55224 -0.23987,-0.85073 0,-2.12685 0.46708,-3.3915 0.46709,-1.27609 1.16139,-2.54073 1.38861,-4.02379 0.46709,1.26463 0.93418,2.11538 1.40126,3.17305 0.46708,0.85074 0.6943,1.69 0.46708,3.39151 -0.23986,1.05768 -0.46708,1.69 -0.93416,2.11536 -0.22723,0.42538 -0.69432,0.63233 -0.69432,0.85075 -0.70694,-0.42537 -1.16138,-0.85075 -1.86833,-1.05768 -0.69429,-0.21843 -1.38862,-0.42538 -2.09555,-0.64382 0.70693,0.42539 1.40126,0.85075 1.86833,1.27613 0.69431,0.42537 1.16138,1.05769 1.62847,1.7015 v -0.21844 h 0.22722 c 0,0 0,0 0,0.21844 0,0 0,0 0,0.20692 -0.46708,-0.20692 -0.69431,-0.42537 -1.16139,-0.63232 -0.46708,-0.21844 -1.16139,-0.42535 -2.56263,-0.21844 -2.3228,-0.63231 -3.48418,-1.2646 -4.1785,-2.3338 z m 4.64555,9.1168 c -0.92152,-0.85074 -1.3886,-2.11537 -2.78985,-3.59842 0.70692,-0.21846 2.32278,0 4.19111,0.83924 1.85569,0.64381 3.95125,1.70149 4.88542,2.75918 -0.22723,-0.85074 0.22721,-1.90844 0.6943,-3.17306 0.46707,-1.27612 1.17401,-2.55225 1.62847,-4.0353 0.23985,1.48305 0.70693,2.33379 1.174,3.18455 0.45448,0.85075 0.69433,1.90844 0.22724,3.39149 -0.22724,1.05771 -0.4671,1.69 -0.93418,2.11539 -0.22721,0.42536 -0.6943,0.42536 -0.92152,0.85074 -0.46708,-0.42538 -0.93417,-0.64382 -1.6411,-0.85074 -0.45445,-0.20694 -1.1614,-0.42539 -1.62847,-0.63233 0.46707,0.42538 1.17402,0.63233 1.62847,1.26464 0.46708,0.42535 0.93416,0.85074 1.40124,1.48304 -0.46708,-0.20692 -0.69431,-0.6323 -1.16138,-0.83924 -0.46707,0 -1.1614,-0.21845 -2.32278,-0.21845 -2.33541,-0.63231 -3.4968,-1.48305 -4.43097,-2.54074 z m 14.2018,2.75918 c 0.46709,0.83924 0.92153,1.68999 0.92153,3.17305 0,1.0577 -0.22721,1.70151 -0.6943,2.11538 -0.22723,0.42537 -0.46709,0.64381 -0.69431,1.06919 -0.46708,-0.42538 -1.1614,-0.64382 -1.86832,-0.64382 -0.45446,-0.20691 -1.16141,-0.20691 -1.85569,-0.42537 0.69428,0.21846 1.40123,0.64381 1.85569,1.06919 0.70692,0.20691 1.174,0.63231 1.86832,1.05768 -0.46708,0 -0.93417,-0.21844 -1.40125,-0.42537 -0.46707,0 -1.16139,-0.20694 -2.55002,0 -2.3354,-0.20694 -3.49677,-1.05769 -4.43094,-1.90844 -1.16138,-1.05768 -1.8557,-2.11536 -3.48417,-3.3915 0.6943,-0.20693 2.32279,0 4.1911,0.42538 2.09555,0.42537 3.95127,1.27612 5.11264,2.11538 -0.22722,-0.63232 0,-1.90843 0.23986,-2.96613 0.22722,-1.26462 0.6943,-2.74768 0.6943,-4.0238 0.69433,1.27612 1.38863,1.90843 2.09556,2.75918 z m 3.01707,9.95604 c 0.46711,-1.05768 0.93419,-2.54074 0.93419,-3.81685 0.6943,1.27611 1.40124,2.12686 2.09557,2.9661 0.46707,0.85075 0.93414,1.70148 0.69428,3.18456 0,1.05769 -0.22721,1.69 -0.46707,2.11537 -0.46708,0.20693 -0.6943,0.42539 -0.92154,0.85076 -0.46708,-0.42537 -1.17402,-0.64381 -1.86832,-0.85076 -0.46711,-0.20694 -1.1614,-0.20694 -1.85572,-0.42537 0.69432,0.21843 1.38861,0.63232 1.85572,1.05768 0.6943,0.42538 1.16138,0.85075 1.86832,1.27612 -0.46708,-0.21843 -1.40124,-0.6323 -2.56262,-0.85074 -1.16142,-0.42538 -2.56265,-0.85074 -3.95128,-0.6323 -2.56262,-0.63233 -3.02969,-1.0577 -3.49679,-1.90845 -0.22722,-0.85075 -0.22722,-1.68999 -2.09556,-2.96612 0.70694,-0.42535 2.56266,0 4.41835,0.63232 2.09554,0.64381 4.1911,1.48305 5.12528,2.54074 -0.23988,-0.83925 0,-1.89693 0.22719,-3.17306 z m 26.29545,-171.850965 c 3.95124,-0.850743 5.12525,-3.391482 5.12525,-3.391482 l -10.2379,-1.908433 10.46515,-2.333815 c 0,0 -11.17208,-4.242237 -11.62655,-4.242237 0.45447,0 10.69235,0.643807 12.32084,0.425369 0,0 -7.67527,-4.874542 -9.77084,-5.932231 0,0 9.07655,2.126869 11.63915,2.759175 0,-0.218436 -7.9151,-7.63373 -8.14235,-8.059101 1.38862,0.425371 9.77084,4.874554 10.46513,4.667619 -1.38859,-1.908444 -6.98095,-8.898368 -6.98095,-8.898368 l 10.23793,6.139179 c -0.22718,-1.057677 -3.95127,-9.323726 -4.41835,-10.16298 1.40124,1.896945 6.04679,6.989923 8.14237,8.047614 l -2.32279,-10.80679 6.5139,9.323729 c 0.22719,-0.632307 0.22719,-9.116792 -0.23979,-11.232161 0.23979,1.276114 3.72403,9.530664 4.43096,10.599854 l 2.32277,-10.806801 c 0,0 1.8557,10.381419 1.8557,10.806801 0.70695,-1.06919 4.65821,-10.392918 4.65821,-10.392918 -0.2272,2.126869 -0.69432,10.806788 -0.46711,11.025225 l 7.22084,-9.542165 -2.80248,11.232162 c 0.23978,-0.206936 8.60943,-8.047614 8.60943,-8.047614 -0.6943,1.05769 -4.64558,8.266051 -5.35253,10.174481 l 10.4778,-6.357616 -6.98095,9.105303 c 0,0 0,0.218437 0.69431,0 0.69428,-0.206935 10.23791,-4.230749 10.94483,-4.656117 -1.86835,1.48306 -7.22082,5.299925 -9.54361,8.047611 l 11.8664,-2.322315 c 0,0 -9.54361,5.506862 -9.77084,5.71381 0.2272,0.218436 11.86641,0 13.02779,-0.206937 -1.40124,0.425373 -10.93222,3.173059 -11.17208,3.598429 l 11.39929,2.333805 c 0,0 -9.99807,1.690008 -9.99807,1.908444 0.22718,0.425372 4.64557,3.59843 5.3525,3.805365 0.22719,0 -4.88541,-0.206935 -5.81957,-0.839254 -0.93415,-0.643806 -4.19109,-1.057691 -7.2208,-0.218437 0.23978,0 0,-1.908432 -0.45448,-1.689995 -2.09557,0.850741 -9.5436,0.425369 -10.94486,1.057691 -0.22719,0.206921 0,-1.690009 -0.22719,-2.540753 -2.78984,0.850744 -4.88542,1.05769 -6.51386,1.264625 -1.86834,0.218437 -3.25697,0.643806 -4.41836,1.908432 -0.46706,-0.206935 0,-2.540749 -0.70694,-2.322313 -2.54999,0.839253 -4.88541,1.264626 -6.98097,1.690009 -1.85571,0.425369 -3.25695,0.850741 -4.17848,1.908433 -0.23981,-0.425384 -0.46708,-2.115383 -0.46708,-2.115383 -1.16139,1.057691 -2.09557,1.264627 -4.19108,1.896945 -2.32281,0.643806 -6.51392,-0.206935 -5.81961,-0.413882 z m 3.02971,143.247455 c -0.70693,0.83925 -1.40126,1.48307 -1.86834,1.69002 -0.46706,0.21843 -0.92155,-0.20693 -1.38862,-0.63232 -0.46707,-0.21845 -0.70693,-0.85075 -0.23979,-0.85075 l 0.46711,-0.85075 0.6943,-0.83924 c 0.70694,-0.21846 1.40121,-0.64381 1.86831,-0.64381 0.46709,-0.20694 0.93418,-0.20694 1.16139,0.21843 0.22719,0.20692 -0.22719,1.26463 -0.6943,1.90843 z m 4.17848,5.28844 c -0.69432,0 -1.1614,0.21844 -1.38862,0.21844 -0.46707,-0.21844 -0.9342,-0.21844 -1.16139,-0.63231 -0.23982,-0.42539 0.22717,-1.27612 0.69432,-1.90846 0.46707,-0.64378 1.16137,-1.27609 1.40121,-1.70147 0.22722,-0.20693 0.69432,-0.42536 0.92157,-0.63231 0.23979,0 0.46706,-0.20693 0.46706,-0.20693 l 0.46709,-0.42539 0.69429,-0.42536 c 0.93416,0 1.62851,0 1.86837,0 0.22717,0.20692 0.22717,0.42536 0.46706,0.85075 0.22718,0.41388 -0.70692,1.68997 -1.62847,2.74768 -1.16139,1.05769 -2.3354,2.11536 -2.80249,2.11536 z m 9.78346,0.85076 c -1.62849,1.05768 -3.25693,1.90842 -3.72402,1.90842 -0.46709,0.20693 -0.70696,0.20693 -0.93417,0.20693 -0.46707,0 -0.46707,-0.20693 -0.93416,-0.63233 -0.22719,-0.42535 -0.22719,-0.85074 -0.22719,-1.05766 0.22719,-0.20695 0.46708,-0.63232 0.93417,-0.63232 -0.70695,0.20694 -0.46709,0 0,-0.42537 0.45442,-0.42538 1.16136,-0.85074 1.62846,-1.0577 l 0.2272,-0.42537 0.46708,-0.42536 c 0.69428,-0.63234 1.62848,-1.27614 2.56263,-1.68999 0.92152,-0.21846 1.62845,0 2.32278,1.26461 0.46708,0.85074 -0.93415,1.90843 -2.32278,2.96612 z m 6.51388,2.75918 c -0.93416,0.6323 -2.09554,1.05766 -3.25694,1.48304 -0.70694,-0.42538 -1.62849,-0.42538 -1.86831,-1.05769 -0.2272,-0.42535 0.46706,-1.27611 3.02971,-3.18453 0,0 0.46707,-0.42539 1.38861,-0.63232 0.70693,-0.21844 1.40124,0 1.86833,1.48305 0.22719,0.63231 -0.23978,1.26464 -1.1614,1.90845 z m 55.38068,-3.3915 c -5.35249,-0.63231 -12.5733,-2.54077 -20.47582,-7.41531 0.69432,-0.64381 1.16139,-1.90844 1.3886,-3.39149 0.23981,-1.48306 0.23981,-2.96612 -0.22718,-4.242249 -0.23978,-0.850734 -0.23978,-0.850734 -0.46707,-0.632299 0,0.206909 -0.2398,1.057672 -0.46707,1.483063 -0.69435,1.689985 -1.40128,2.747675 -2.09557,3.391485 -0.69431,0.63231 -1.40123,1.05769 -2.32279,1.48305 -2.33541,-2.12686 -3.72401,-3.18455 -5.12527,-4.24224 -1.62845,-0.850749 -3.25693,-1.689996 -6.27403,-3.391493 -2.3354,-1.057676 -3.49681,-1.90843 -4.43097,-2.747671 -0.92152,-0.64382 -1.62844,-1.483061 -2.78985,-2.126883 -2.09557,0.850756 -4.88541,2.333817 -7.44806,3.18456 -2.55001,0.632318 -5.11265,1.05769 -6.74111,0 -1.40126,-0.632306 -0.69433,-1.276113 0.93416,-2.11537 1.38863,-1.06919 3.48415,-2.126866 4.64558,-3.816864 1.16137,-1.276125 2.09554,-2.126869 3.49678,-2.540751 1.38863,-0.425371 2.78986,-0.425371 4.41834,-0.218436 3.25693,0.632307 5.81958,1.483062 8.60944,2.759176 3.01708,1.05769 6.28665,2.540752 11.17207,4.449183 5.80698,0.425373 10.93222,1.483062 16.28473,2.747689 5.11263,1.069173 10.46512,2.552246 16.52457,3.81686 0.92155,0.21844 2.08292,0.42538 3.25697,0.42538 1.16137,0.20692 2.32278,0.20692 3.01709,0.42536 -0.69431,2.11537 -1.62849,4.02381 -2.56266,5.93225 -0.92156,2.11537 -2.08293,4.24223 -3.7114,7.20836 0,0 -3.26954,0.42537 -8.60946,-0.42537 z m -28.85804,-5.72531 -0.46707,1.05768 c -0.93417,0.42538 -1.38861,0.64382 -1.85571,0.42538 -0.4671,-0.20692 -0.93418,-0.6323 -1.86834,-1.90843 -2.32277,-2.96613 -4.64556,-4.02381 -6.51389,-4.87457 -1.85568,-0.83924 -3.25694,-1.68998 -3.48415,-3.598426 -0.93415,0.425391 -0.93415,0.850756 -0.93415,1.483066 0,0.63231 0.46707,1.27612 0.46707,1.69 1.62846,1.90844 3.25694,2.97761 4.88542,4.0353 1.38859,1.26463 2.78988,2.54076 3.95124,4.65612 -0.22719,0.64381 -0.93417,1.05768 -1.3886,1.27612 -0.70693,0 -1.40126,0 -2.09557,-0.42536 -2.78987,-2.7592 -5.35249,-4.24225 -6.98097,-5.50688 -1.62846,-1.27612 -2.3354,-2.12686 -1.40123,-3.39149 -0.46708,0 -0.93417,0.20692 -1.38863,0.63231 -0.23979,0.63232 -0.46707,1.05768 -0.23979,1.48306 0.46707,1.90843 1.86834,3.3915 3.25693,4.66762 1.62848,1.26462 3.02971,2.3223 3.72405,4.02381 -0.22719,1.26461 -1.85573,1.48305 -3.72405,0.42537 -1.85567,-1.27612 -3.95124,-3.39149 -5.35248,-6.783 v -0.42537 c -0.69432,1.05769 -1.1614,1.7015 -0.92154,2.54075 0,0.85074 0.69431,2.12687 2.55,4.24225 0.46709,0.85073 0.93416,1.69 0.93416,2.33381 -0.22718,0.41388 -0.69429,0.83924 -2.32277,0.6323 0.22718,0.20693 0,0 -0.46708,0 -0.23979,0 -0.46709,-0.21844 0,0 0.22719,0 0.22719,0 0.22719,0 0.23977,0 0.23977,0 0.23977,0 0,0 0,0 0,-0.21844 -0.23977,0 -0.46707,-0.20692 -0.46707,-0.20692 0.46707,-3.17306 -0.6943,-4.44918 -2.09556,-5.08149 -1.4012,-0.42538 -3.02969,-0.21845 -3.2569,-0.21845 0.46708,-1.26462 -0.23981,-2.32231 -1.40123,-3.17305 -1.38863,-0.63232 -3.25694,-0.85076 -5.11265,-0.21844 0.22718,-0.83926 -0.70693,-1.90844 -2.33541,-2.54075 -1.62849,-0.63232 -4.17848,-0.85075 -6.98097,0 -0.45448,-0.85075 -1.85569,-1.69001 -3.95126,-1.69001 -1.8557,0 -4.41833,0.83926 -6.74113,3.59844 -4.19108,0.42537 -10.01068,2.11537 -15.59041,3.59845 -5.59235,1.27612 -11.17207,2.3338 -15.36318,0.42536 -0.22723,0.21842 -1.62848,-2.96612 -3.01709,-6.13917 -1.17401,-3.18457 -2.56263,-6.57607 -2.56263,-6.782988 4.88541,-0.425382 13.02777,-0.850745 20.70306,-1.701502 7.91513,-0.839256 15.5904,-2.11537 19.55427,-3.598431 3.01711,-1.689995 7.67528,-3.173058 11.62657,-3.816865 3.95125,-0.839254 7.67526,-1.05769 9.0765,-0.206936 -0.2272,0.850756 -1.40124,2.333816 -2.32279,3.816867 -0.93414,1.264625 -1.62845,2.747684 -0.23979,3.598439 2.09553,1.908437 4.88538,2.33381 7.91511,2.115374 2.78988,-0.206937 5.81961,-1.26463 8.14239,-2.540757 2.5626,2.33382 5.81958,3.59843 8.60944,5.081479 3.02972,1.48308 5.81957,3.18458 7.44805,6.15069 z m -6.75375,-67.599918 c 4.19113,-1.896944 6.05944,-2.54075 6.981,-2.747685 0.70693,-0.218449 0.46708,0.206923 0.46708,0.206923 0,0.643807 -0.46708,1.483062 -0.92156,2.333815 -0.70693,0.632307 -1.40122,1.276114 -2.09555,1.276114 -0.4671,0 -2.09553,0 -3.96389,0 -1.62844,0.206936 -3.72401,0.206936 -5.11263,0.206936 1.1614,0 1.8557,-0.206936 2.56262,-0.425371 0.69432,-0.206936 1.38866,-0.425372 2.08293,-0.850744 z m -19.76889,1.069179 c -2.09554,0 -4.65819,0 -6.75372,0 -2.09559,0 -3.72403,0 -3.72403,-0.218437 -0.92156,-0.206934 -2.7899,-0.850754 -4.17849,-1.690007 -1.6411,-0.850743 -2.56264,-1.701485 -2.33542,-1.908433 0.23979,-0.218436 0.69432,0 1.62847,-0.218436 1.16138,-0.206923 2.56267,-0.632308 4.88544,-1.483061 2.78986,-1.057678 5.3525,0 7.22081,1.483061 1.8557,1.483061 3.01707,3.391494 3.25694,4.035301 z m -7.44803,-9.74911 c -1.86834,0 -3.49683,0.425372 -4.88541,1.05769 -1.40128,0.425371 -2.78989,1.057691 -4.65822,1.057691 0,0 0.23979,-1.690009 1.40123,-4.449183 1.16141,-2.759176 3.25699,-6.576043 7.2082,-10.599856 1.40127,-1.689995 3.9639,-3.391494 6.75376,-4.874542 2.55001,-1.483063 5.3525,-2.747688 7.20822,-3.598442 l -0.22718,-0.425372 v -0.206936 c -1.62847,0.206936 -4.65818,0.632319 -7.44804,0.632319 -3.02972,0 -5.8196,-0.425372 -6.98099,-2.1153802 0,-1.7014846 1.16139,-3.6099172 3.25693,-5.092979 2.09557,-1.4830609 5.11264,-2.54075211 8.8367,-2.74768707 2.09555,-0.21843566 4.1911,0.20693496 5.81958,0.85074367 1.86832,0.4138825 3.49677,1.2646252 5.12528,2.1153802 2.09552,1.264625 3.48416,2.9661224 4.64555,4.6561183 0.93416,1.7014851 1.62847,3.6099191 1.86832,5.7252991 -2.56264,0.850742 -3.96388,1.689997 -5.12528,2.333803 -0.92151,0.632318 -1.38859,0.839255 -1.62844,1.057691 0.46707,0 0.93414,0 1.40123,0.206923 0.46706,0 1.16139,0 1.8557,0 0.93415,0.218448 1.62847,0.218448 2.33543,0 0.45443,0 0.92151,0 1.38859,-0.206923 0,0.425371 0,0.850743 0,1.264613 0,0.425383 0,0.850755 0,1.276126 0.23978,0 0.46708,0.206934 0.46708,0.206934 0,0 0.22717,0.218438 0.22717,0.425372 -3.71142,1.483061 -6.04684,2.333806 -7.67528,2.966112 -1.8557,0.850754 -3.01711,1.276125 -4.88541,1.483061 -0.22719,0 -0.93417,0.218449 -1.38863,0.218449 -0.70694,0.206923 -1.174,0.206923 -1.174,0.206923 l 0.23978,0.218448 c 0.22718,0 1.16136,0.206923 2.09555,0.206923 0.92154,0.218436 2.09554,0.425372 2.78989,0.425372 1.38857,0 3.2569,-0.425372 5.11261,-0.850743 1.86833,-0.425372 3.72402,-1.05769 5.35251,-1.483061 -0.22718,0.643806 -0.22718,1.483061 0.23978,2.126868 0.2272,0.632318 0.92152,1.05769 2.3228,1.483061 v 0.206934 c -4.65821,2.115368 -7.67528,3.184547 -9.54363,3.598429 -2.09554,0.425373 -3.25695,0.218437 -3.48415,0 l -6.5139,-1.264624 c 0.93414,0.425371 2.32277,1.264624 3.72403,1.908433 1.3886,0.839254 3.01707,1.689996 4.64557,1.908434 1.62845,0.206922 3.724,-0.425372 6.05942,-1.06918 2.32279,-0.63232 4.41832,-1.483063 6.0468,-1.896945 l 0.69431,1.896945 0.46708,1.701485 c -2.56261,0 -5.3525,1.908432 -8.60945,3.173057 -3.02971,1.483062 -6.51386,2.552253 -10.46513,1.276129 -2.09557,-1.483063 -4.43095,-3.184562 -6.75373,-4.667623 -2.56264,-1.264613 -5.11263,-2.322302 -8.14237,-2.322302 z m 15.59039,34.328809 c 0.22718,0 68.40846,0 68.40846,0 0,1.057679 -0.46708,6.771487 -1.16136,12.715221 -0.70695,5.713799 -2.09558,12.715223 -3.96392,18.222087 -6.74109,0 -13.49485,-1.701498 -19.76886,-3.391497 -6.28667,-1.701498 -12.33348,-3.391482 -17.92584,-3.184547 -3.48416,-0.632318 -7.43543,-2.747687 -11.86638,-4.449183 -4.1785,-1.908433 -9.07654,-3.391494 -13.96194,-3.173059 z m -76.55081,9.956034 c -0.46709,-5.299915 -0.23988,-9.956034 -0.23988,-9.956034 -0.22721,0 69.11541,-0.218447 69.11541,-0.218447 0,0 0.22718,19.498209 0.22718,19.705143 -1.62849,-0.206921 -4.41835,-0.413869 -6.75377,-0.413869 -2.32277,0 -4.64556,0 -6.96835,0.206935 -6.52649,1.057679 -8.60942,3.173058 -14.42898,4.874543 -6.04686,1.689997 -15.83031,3.173058 -37.69475,3.59843 -1.86832,-6.139168 -2.78985,-12.715221 -3.25694,-17.796713 z m 62.58888,-96.835725 h 20.94291 c -9.30377,-1.701496 -17.21888,-0.850754 -20.24859,-0.218448 -0.2272,0 -0.46711,0.218448 -0.69432,0.218448 z m -26.05558,10.381418 h 71.42556 c -0.22719,-0.218448 -0.46708,-0.218448 -0.6943,-0.425384 0,0 -0.23978,0 -0.46708,0 0,-0.425371 -0.22718,-0.632307 -0.6943,-1.057679 -5.35248,-3.816865 -11.17209,-6.150681 -16.75182,-7.63373 h -32.34222 c -7.91512,2.115368 -14.66885,5.299915 -20.47584,9.116793 z M 165.25531,2.0443674 H 129.6435 c -2.55001,2.9661227 -4.88543,5.9322453 -6.96834,9.1168046 h 41.64597 c -0.69432,-0.425383 -1.16139,-1.057691 -1.40124,-1.9084449 -0.69429,-1.9084207 -0.22719,-4.656107 2.33542,-7.2083597 z m 10.46512,52.7693286 h -68.40845 c -0.69431,5.081492 -0.69431,8.266052 -0.69431,8.266052 l 69.10276,0.206934 z m 75.16222,0 h -67.71417 v 8.472986 l 68.63569,-0.206934 c 0,0 -0.22719,-3.184549 -0.92152,-8.266039 z M 249.01429,44.43228 h -45.36998 c -1.62845,1.05769 -3.95123,0.839253 -7.44805,1.05769 -5.8196,0.425371 -13.02778,-0.425372 -13.02778,-0.425372 v 8.266037 h 67.71417 c -0.46707,-2.540738 -0.93416,-5.506862 -1.86836,-8.898355 z M 245.9846,33.625492 h -38.38903 c 1.16139,2.540752 -0.69433,4.874555 -1.85569,8.047612 -0.23979,0.425373 -0.46708,1.057679 -0.70693,1.276115 h 43.75413 c -0.70693,-2.966109 -1.62846,-5.932232 -2.80248,-9.323727 z m -3.95126,-10.392906 h -40.71181 c 0,0 0.22718,0.218437 0.22718,0.425371 2.09558,5.518363 4.19112,7.633731 4.88543,8.484474 h 39.09598 c -0.93417,-2.966111 -2.09558,-5.932233 -3.4968,-8.909845 z m -5.57969,-10.588365 h -37.00043 c 0.6943,3.391494 0.93417,6.564552 1.40123,9.105304 h 40.48457 c -1.40123,-3.173058 -3.02971,-6.13918 -4.88537,-9.105304 z M 228.53849,2.0443674 h -34.43775 c 2.78984,2.7591876 4.19106,5.9322453 4.8854,9.1168046 h 36.53331 C 233.42391,7.9766127 231.10114,5.0104901 228.53849,2.0443674 Z M 192.24501,0.77975373 h 35.13208 C 224.12015,-2.6117399 220.62336,-5.7962981 216.6721,-8.5439852 h -75.61668 c -3.72402,2.7476871 -7.22082,5.7138073 -10.2379,9.10530327 h 36.06623 c 1.38865,-1.05769014 3.01712,-1.90843267 5.11265,-2.74768707 2.32279,-0.8507421 3.95126,-0.8507421 7.44805,-1.2761262 5.81959,0.6323173 9.77086,2.1153806 12.80056,4.24224893 z M 116.85557,21.749525 h 42.3403 c 1.86831,-2.322315 4.43094,-5.506863 8.14236,-8.898357 0,0 -0.22718,0 -0.69434,-0.206935 h -44.9029 c -1.86832,2.966112 -3.49679,5.932234 -4.88542,9.105292 z m -4.19109,10.392906 h 41.41871 c 0.46711,-4.242236 2.7899,-6.782987 2.56265,-6.357604 0,-0.218438 0.45446,-1.276127 1.62846,-2.552241 h -42.11304 c -1.40123,2.977612 -2.56263,5.943734 -3.49678,8.909845 z m 49.78834,12.289849 h -53.28516 c -0.69428,3.391493 -1.16139,6.357617 -1.62846,8.898355 h 68.18123 v -8.266037 c 0,0 -3.72403,-0.206935 -9.54362,-0.206935 -0.69428,0 -2.09555,0 -3.72399,-0.425371 z m -53.04529,-1.483061 h 48.86677 c -1.40121,-0.643807 -2.80247,-1.701486 -3.25692,-3.184547 -0.93419,-2.333803 -1.17401,-4.230748 -1.17401,-6.13918 H 112.1974 c -1.1614,3.391495 -2.09556,6.357618 -2.78987,9.323727 z m 85.62734,-85.615066 h -2.09555 c -0.22719,-1.057679 -1.85572,-1.48306 -2.32279,-1.48306 0,0 0.2272,0.425381 0.2272,0.632317 0,0.425371 -0.2272,0.850743 -0.46708,1.276115 -0.46708,0.206934 -0.6943,0.632317 -1.16139,0.850753 0,0 -1.62848,0 -1.85569,0 -0.46708,-0.218436 -0.93415,-0.643806 -1.17402,-0.850753 -0.22718,-0.425372 -0.45446,-0.850744 -0.45446,-1.276115 0,-0.206936 0,-0.413882 0,-0.413882 0,-0.218435 0.22718,-0.218435 0.22718,-0.425373 h -0.22718 l -1.40125,1.483062 c -0.22719,0.206936 -2.09557,0 -2.09557,0 l 2.32281,-3.18456 c 4.65818,-0.632304 7.22082,0.218438 8.60943,1.276129 1.62848,1.057688 1.86833,2.115367 1.86833,2.115367 z m 1.16139,-3.391496 -1.16139,-0.20692 c -0.69429,-1.057691 -2.32279,-1.483063 -3.49679,-1.701498 -1.38862,-0.206935 -2.55001,-0.206935 -2.55001,-0.206935 l -6.75376,0.425383 1.16142,-2.759188 h 2.33538 c 4.88542,-0.206934 7.43542,0.850743 8.83671,1.908433 1.40121,1.276126 1.62844,2.540739 1.62844,2.540739 z m -34.66499,-0.20692 c 0,0 0.22717,-1.276129 1.85571,-2.333816 1.40124,-1.057679 4.19111,-2.115369 9.5436,-1.908434 h 1.85567 l 0.70695,2.759187 -3.4968,-0.218435 c 0,0 -4.41831,-0.413883 -5.81959,-0.206935 -1.16136,0.206935 -2.78983,0.632304 -3.48413,1.689995 z m 14.41639,3.173056 c 0,0 -2.08293,0.218436 -2.32278,0 l -1.1614,-1.05769 c -0.2272,0 -0.2272,0.218437 -0.2272,0.425371 0,0.425372 -0.23979,0.850755 -0.46707,1.276126 -0.46709,0.206925 -0.70694,0.632307 -1.16137,0.632307 -0.2398,0.206935 -1.86835,0 -1.86835,0 -0.46707,0 -0.69428,-0.425372 -1.16137,-0.632307 -0.23979,-0.425371 -0.46711,-1.48306 -0.46711,-1.701497 0.2272,0 0.2272,-0.206934 0.2272,-0.206934 -0.45447,0 -0.92155,0.206934 -1.16141,0.425382 -0.46708,0.206923 -0.92152,0.632307 -1.16137,1.057678 h -2.09558 c 0,0 0.46707,-1.057678 1.86831,-2.126868 1.38864,-1.05769 4.17849,-1.896932 8.83669,-1.264624 z m 12.80056,205.972837 c -1.16141,0.85073 -2.78985,1.48304 -3.25697,1.70149 0,0.20692 -0.22718,0.20692 -0.22718,0.20692 0,0 0,0 0.22718,-0.20692 0.46712,-0.21846 2.09556,-1.70149 1.86835,-3.60993 0,-0.41388 -0.2398,-1.05768 -0.70694,-1.69001 -0.22719,-0.42538 -0.92155,-0.6323 -1.38862,-1.05767 0,0 -0.70693,-0.21844 -0.2398,-0.64382 0.46708,-0.20692 3.25697,-0.20692 4.6582,0.85073 2.09556,1.90845 0.46709,3.3915 -0.93414,4.44921 z m -6.04682,0.6438 c -0.46709,0.83923 -0.93416,1.48303 -0.93416,1.68999 -0.22719,0 -0.22719,0 -0.22719,0.20694 0.22719,0 0,0.21844 0,0.21844 v -0.21844 c 0,-0.20694 0,-0.4139 -0.46707,-0.63232 -0.46709,0 -1.16141,-0.20693 -2.32278,-0.20693 -2.33544,0 -3.02972,0.42535 -3.25698,0.63231 -0.2398,0.42538 0,0.42538 -0.46707,0 0,-0.20694 -0.46708,-0.63231 -0.70694,-1.27612 -0.2272,-0.20694 -0.2272,-0.6323 -0.2272,-0.83926 -0.22718,-0.21843 -0.22718,-0.64381 -0.22718,-1.05768 0,-0.42536 0.69431,-1.70149 1.62847,-2.12685 0.92155,-0.63234 2.32278,-0.85075 3.01711,-0.85075 0.70692,0 1.62845,0.21842 2.56263,0.64378 1.16137,0.42539 1.62846,1.0577 1.62846,1.48306 0.46707,0.63232 0.46707,1.48307 0,2.33383 z m -1.62844,6.34612 c 0,0 -0.2272,1.06917 -0.46709,2.12686 -0.22718,1.05768 -0.9342,2.3338 -1.85572,2.3338 -0.93419,-0.21842 -1.62847,-1.27612 -1.86833,-2.3338 -0.22721,-1.05769 -0.22721,-2.12686 -0.22721,-2.12686 0,0 -0.23976,-0.41389 -0.23976,-1.05769 0.23976,-0.63232 0.70692,-1.0577 2.33541,-1.26463 1.62845,0 2.09553,0.63231 2.32278,1.26463 0.22718,0.42537 0,1.05769 0,1.05769 z m 12.33344,-12.49678 c 3.95124,-1.05769 7.91513,-2.33384 11.62655,-4.24226 4.19107,-1.90844 8.15498,-4.23072 12.10623,-7.19686 0,0.20694 0,0.20694 0,0.20694 -0.23978,0.21844 -0.23978,0.21844 -0.23978,0.21844 -0.22723,1.48306 -0.92153,5.71378 -1.38861,6.56454 -1.40127,2.54074 -5.81959,4.65612 -10.47778,6.56454 -4.17849,1.70149 -8.36958,3.18456 -11.39931,4.03532 0,-0.21844 0.2398,-0.21844 0.2398,-0.42539 0,-0.42537 0.22719,-0.64381 0.22719,-1.05768 0.23979,-0.85076 0.23979,-1.27612 0.23979,-1.90843 0,-0.42539 -0.23979,-0.85076 -0.23979,-1.27613 -0.22719,-0.42538 -0.46708,-1.05769 -0.69434,-1.48305 z m -23.03847,-2.54076 c -12.33347,-1.7015 -22.10432,-6.78298 -30.01943,-12.93366 -9.53098,-7.41528 -16.04488,-16.09522 -19.76891,-21.61358 -0.46708,-0.63234 3.95126,-2.32233 9.30377,-4.02382 5.12526,-1.68999 18.38025,-5.08147 18.38025,-5.08147 0,1.05768 1.16142,1.90841 2.09558,2.11537 0.93415,0.42536 2.09556,0.21843 1.85571,-0.20694 0.46706,0.42537 0.46706,0.83925 0.46706,1.48306 0.2398,0.63232 0.46708,1.26462 1.62848,2.11537 1.16139,0.63232 2.09552,0.85076 2.78986,0.85076 0.70694,0 1.174,-0.21844 1.40124,-0.42539 l 0.22718,-0.21843 -0.22718,0.21843 c -0.46708,0.63232 0.69433,1.68999 2.09556,2.33382 1.6285,0.42537 3.72403,0.63229 5.35251,-0.21844 -0.2398,0.64381 0.22719,1.27611 0.93414,1.48305 0.69434,0.42537 1.62849,0.42537 1.85572,0.6438 0.46708,0.20694 1.62846,0.41389 2.56263,0.41389 1.16138,0.21844 2.32278,0 3.25694,-0.41389 0,0 0,12.71523 0,15.68136 -0.23981,2.96611 2.32278,3.80537 3.01711,4.23073 5.12525,0.21843 4.65816,-2.74768 4.89803,-3.81686 0,-3.38 0.22719,-16.31366 0.22719,-16.09523 2.32279,-0.42536 3.25697,-0.85074 3.72405,-1.06917 0.46707,-0.41387 0.69429,-0.83925 1.62844,-1.05768 0.9342,0.21844 1.85571,0.21844 2.56264,0 0.69433,-0.20694 1.38864,-0.83926 2.32277,-1.90845 1.16142,0 2.32281,0 3.25694,-0.42536 1.16141,-0.41388 1.85572,-1.05769 2.09558,-1.89695 1.16138,0.20695 2.32278,0 3.72404,-0.85074 1.16138,-0.85074 2.32278,-2.11537 3.25695,-4.02379 2.32277,0.63228 25.58846,10.80678 29.55233,11.86447 -1.86834,2.74768 -7.68791,11.01372 -17.2189,18.64745 -7.67527,6.35762 -17.68596,12.07143 -30.01943,14.19829 -0.46707,-0.21844 -0.93415,-0.21844 -1.40123,-0.21844 -3.0171,0 -6.04683,0.42536 -6.96835,0.64382 h -0.23977 c 0,0 0,0 -0.22721,0 -0.70693,-0.21846 -3.9639,-0.42538 -6.98097,-0.42538 -0.46709,0 -0.93416,0 -1.40124,0 z m 17.44611,12.92215 c -0.2272,0 -0.45444,0 -0.45444,0 0.22718,-0.20693 2.09554,-0.6323 3.95126,-1.90843 -1.1614,1.05768 -2.56264,1.7015 -3.49682,1.90843 z m -3.01707,2.75919 c 3.95125,0.85074 13.72206,2.96612 17.44612,3.81686 0.23978,0 0.46707,0 0.70693,0.20694 0,-0.20694 1.16137,-0.85075 2.32278,-1.48306 0.93415,-0.63232 1.85569,-1.48306 1.38864,-2.54074 0,0 -3.01713,-0.21844 -7.20822,-0.64381 0,0 -0.22719,-0.20694 -0.46708,-0.20694 -3.01711,-0.42537 -7.90254,-1.27611 -10.705,-1.68999 3.72402,-0.85075 10.01066,-2.75919 16.05749,-5.09298 6.98095,-2.96612 13.96195,-6.35761 17.68597,-9.10531 3.95125,0.41387 6.75376,-0.85075 9.30377,-2.55225 2.56264,-1.68998 4.65816,-3.80536 7.68788,-5.28842 -0.2398,-0.21844 -1.40123,-0.64381 -1.62846,-0.85074 1.62846,-0.85076 2.78987,-1.90845 4.17848,-3.18456 1.40124,-1.26463 2.5626,-2.54075 4.41833,-3.80537 -0.2272,-0.21844 -2.08293,-0.64381 -2.78987,-0.85076 2.78987,-0.85074 3.25693,-1.68999 3.4968,-2.75915 0.46709,-1.26464 0.93418,-2.54077 3.48419,-4.23076 0,-0.21844 -0.2272,-0.21844 -0.46709,-0.42539 0,0 -0.22719,-0.21842 -0.45447,-0.21842 1.8557,-1.0577 2.55001,-2.32232 3.25693,-3.59842 0.92157,-1.48308 1.6285,-2.96614 3.25698,-4.4492 -0.46707,-0.20694 -2.56264,-0.6323 -3.02971,-0.6323 2.78986,-1.05769 4.19108,-2.3338 5.35249,-3.81687 0.93417,-1.70151 1.62844,-3.3915 3.72401,-5.29992 -0.23977,0 -1.8683,-0.20694 -2.56263,-0.20694 1.62847,-1.27611 2.09555,-2.54074 2.56263,-4.0238 0.6943,-1.70152 0.93416,-3.81687 2.32278,-5.72531 -0.46707,-0.21844 -2.78986,0.20692 -3.48416,0.20692 2.55002,-1.05766 3.72403,-2.747665 4.64557,-4.656102 0.70694,-1.908433 1.40123,-4.023815 2.80247,-6.150681 -0.23981,-0.206925 -1.86831,-0.425373 -2.33539,-0.425373 2.09552,-1.908432 1.86831,-2.540738 1.40124,-3.805364 -0.46709,-1.06919 -0.93416,-2.759187 0.69428,-6.576053 -0.46706,-0.206925 -2.78985,-0.206925 -3.25692,0.218436 2.09555,-1.701485 2.78986,-3.609918 3.49679,-5.51835 0.69433,-1.908433 -0.23981,-4.449185 1.16142,-6.7715 -1.40129,-0.218436 -7.44808,3.380004 -6.28667,2.747686 3.25694,-2.115366 4.1911,-4.0238 4.65817,-6.139168 0.46708,-2.333816 -0.46707,-4.874555 0.22719,-7.633744 -1.38859,-0.206921 -3.02971,0.850757 -4.88539,2.333817 -2.09556,1.689997 -1.8557,0.425372 0,-0.42537 2.78987,-1.483063 3.95125,-3.391496 4.41832,-5.725312 0.46707,-2.322303 0.46707,-4.874543 1.40126,-7.622228 -0.46708,0 -2.56264,0.425371 -3.25698,0.632307 0.69434,-1.689998 -0.93414,-8.266038 -0.70692,-10.381417 -1.62847,0 -3.25695,1.264625 -4.64557,2.966122 -1.40123,1.689996 -1.62845,0.63232 -0.23979,-0.206936 2.5626,-2.977611 2.80246,-5.299915 2.33539,-7.63373 -0.2398,-2.115368 -1.16137,-4.449171 -0.93417,-7.208347 -0.22718,0 -1.40122,0.218437 -1.62849,0.425371 -0.22718,-1.483061 -2.78985,-6.357617 -3.0297,-8.26605 -1.62845,0.218437 -5.11265,3.816865 -4.1785,2.759176 1.6285,-2.759176 1.6285,-4.874543 1.16142,-6.782975 -0.46708,-2.115381 -1.40123,-4.2422503 -1.62849,-6.9899241 -0.46708,0 -2.33539,1.0576774 -2.78986,1.2646252 0,-1.6900097 -0.46708,-2.9661228 -1.17401,-4.449186 -0.92153,-1.48306068 -1.62849,-2.74768572 -2.32277,-4.874554 -0.93417,0.218436 -2.56265,1.0691907 -3.48418,1.90843263 -0.93418,1.27612563 -1.40125,1.90843255 -1.17402,3.39149327 0,-0.4253719 0.46709,-3.17305762 0.70692,-3.8168652 0,-3.5984287 -0.70692,-5.5068611 -1.86831,-7.4152928 -1.16141,-1.689998 -2.55,-3.391496 -3.95126,-6.139181 -0.46708,0.425372 -2.09552,3.173057 -2.32278,4.230747 -0.46708,-2.54075 -1.40125,-4.023812 -2.33538,-5.506862 -0.92157,-1.48306 -2.32281,-2.966121 -3.72407,-5.081489 -0.9215,0.632305 -1.62845,2.115368 -1.85565,4.0238 -0.46713,1.689996 -0.93419,2.115368 -0.69434,3.816865 0,-0.425371 0.22718,0.425372 0,-0.218436 0,-0.839253 0,-1.689996 0.22718,-2.747685 0.2272,-3.609931 -0.93414,-5.506863 -2.78985,-6.989924 -0.93416,-0.850743 -2.09553,-1.701498 -3.25693,-2.552241 0.22716,0 0.69429,0 0.93415,0 0,0 -1.17401,-0.632319 -2.80245,-1.483061 -0.22721,-0.206936 -1.16143,-0.839254 -1.38865,-0.632306 -3.25695,-1.908433 -7.22084,-4.023812 -7.67527,-4.24225 -0.2398,0 0,-0.206923 0.22718,-0.206923 0.46708,0.206923 -0.69429,0.206923 0.22719,0.206923 0.9342,0.218448 3.25698,0.425385 4.19112,0.218448 0.6943,-0.218448 2.09556,-0.425382 3.25694,-0.425382 1.40123,-0.218436 3.02971,0 4.88542,1.05769 -1.16141,-1.483062 -2.09557,-2.333805 -3.48419,-2.759175 -1.16139,-0.413883 -2.3354,-0.632319 -3.96387,-0.839255 -1.8557,0.206924 -3.71142,-0.643807 -5.33986,-1.701497 l 16.28481,-2.747697 c -0.2398,-0.218437 -16.28472,-2.759188 -16.28472,-2.759188 0,0 0.45445,-0.206925 0.92151,-0.425372 0.70696,-0.425372 1.40128,-0.632307 2.33542,-0.632307 0.69431,0 1.62849,0 2.32279,-0.218447 0.93416,-0.206925 1.85569,-0.632306 2.56265,-1.264627 0.22719,-0.425371 0.92155,-1.057677 2.09555,-1.701484 1.16138,-0.632318 2.78987,-1.057691 5.11264,-0.839255 -1.8557,-1.057688 -3.25694,-1.276126 -4.41832,-1.276126 -1.40125,0 -2.56265,0.632318 -4.19109,1.05769 -1.16143,0.643808 -2.09557,0.643808 -3.25699,0.643808 -1.16137,-0.218435 -2.56265,-0.425372 -4.1911,-0.218435 0,0 13.49487,-7.622231 13.49487,-7.840667 l -16.51197,3.391495 c 1.38863,-1.690008 2.7899,-2.333818 4.17849,-2.966123 1.17402,-0.63232 2.56262,-1.276126 3.25696,-3.391494 0.2398,-0.425373 0.70693,-1.276127 1.62846,-1.908433 0.70694,-0.632319 1.86836,-1.483061 3.25693,-2.115368 -1.38857,-0.218448 -2.78986,0 -4.41831,0.632307 -1.6285,0.632305 -3.0171,1.908434 -4.64555,3.391494 -0.46708,0.206922 -1.6285,0.632306 -3.02973,1.057676 -1.16141,0.218448 -2.32278,0.63232 -3.25696,0.850757 l 9.77082,-12.082915 -13.72205,8.059101 c 0.22717,-1.483049 1.16135,-2.333803 2.09555,-2.966109 0.69431,-0.850755 1.62845,-1.701498 1.85568,-3.391494 0,-0.632319 0,-1.701498 0.22718,-2.759176 0.46708,-1.264626 1.17401,-2.747687 2.56265,-4.02381 -1.62848,0.425361 -3.01712,1.276123 -3.95128,2.333803 -1.16141,1.057687 -1.86835,2.54075 -2.56263,4.449183 -0.46708,0.632306 -1.16138,1.264624 -2.32281,1.908432 -0.93413,0.839253 -2.09553,1.483062 -2.78985,2.322315 0,0.218436 3.95128,-14.612167 3.95128,-14.612167 l -10.0107,12.922159 c 0,0 0,-0.425373 0.2398,-1.057678 0.22718,-0.425372 0.22718,-1.276128 0.46705,-1.908434 0.45448,-1.276125 0.69432,-2.115378 0.92157,-2.759187 0,-0.839242 0,-1.483049 0,-2.115366 -0.46709,-0.850743 -0.92157,-1.90844 -1.16142,-3.173055 0,-1.276131 0.23981,-2.552245 1.16142,-4.24224 -2.55003,1.48306 -3.25697,3.173053 -3.48419,4.656114 -0.23978,1.701482 0,3.391498 -0.69432,4.667611 -0.23976,0.63232 -0.46706,1.689998 -0.93418,2.540753 -0.46708,1.057676 -0.93414,1.908432 -1.16135,2.540739 l -2.56265,-15.255976 -3.25693,15.255976 c -0.93416,-1.264626 -1.16141,-2.322315 -1.16141,-3.391494 0,-1.057678 0,-2.115368 -0.46709,-3.173058 -0.69429,-1.276113 -1.62844,-1.90843 -2.56263,-2.759171 -0.6943,-0.839254 -1.38858,-2.322313 -1.38858,-5.081494 -0.46712,0.850742 -1.17407,1.908439 -1.17407,3.173053 0,1.276124 0.23981,2.966119 1.6285,5.932236 0.23977,0.218436 0.23977,1.276127 0,2.55224 0,1.264625 0,2.540753 0,3.598431 l -8.83666,-12.922159 3.72402,14.830603 c -1.16141,0 -1.86835,-1.057689 -2.56264,-2.333817 -0.69431,-1.057677 -1.38864,-2.333803 -2.09558,-2.966109 -0.92151,-0.850755 -2.32276,-1.05769 -3.72401,-1.690008 -1.16139,-0.850745 -2.32278,-1.908432 -3.25693,-4.242235 -0.22719,1.689993 -0.22719,2.96612 0.46706,4.02381 0.69433,1.276114 1.86833,2.540739 3.49682,3.816865 0.45444,0.632307 1.16137,1.908433 1.62847,3.173058 0.69431,1.276113 1.1614,2.55224 1.38859,3.184547 l -13.96192,-9.116792 c 0,0 9.77085,12.508285 10.01071,12.508285 -1.6285,0.206936 -2.56267,-0.850741 -3.95128,-1.701497 -1.40122,-1.057679 -3.02972,-2.115366 -5.81958,-1.908433 -1.86833,0 -3.4968,-0.839254 -4.41835,-1.483062 -0.93414,-0.632305 -1.40123,-1.483048 -1.174,-1.057677 0.93416,2.96611 2.56264,4.0238 4.1911,4.667608 1.62849,0.63232 3.25695,0.839254 3.96388,2.11538 0.45445,0.218436 1.1614,0.850744 2.08294,1.48305 0.70694,0.850754 1.40123,1.48306 1.62848,1.908445 l -16.04488,-3.391495 14.4164,7.840667 c -1.16143,0.632305 -2.78987,0 -4.41833,-0.425373 -1.62849,-0.206934 -3.25695,-0.632318 -4.64559,0 -2.56249,1.057691 -4.43082,1.057691 -5.81944,0.850756 -1.16139,-0.206937 -1.86832,-0.850756 -2.09556,-0.850756 1.38863,1.908446 2.78987,2.540752 3.95127,2.759189 1.40124,0.206934 2.56263,0.206934 4.19112,0.206934 1.16136,0 2.32278,0.218435 3.724,0.643808 1.16138,0.413871 2.56266,1.057677 3.95126,1.483049 l -16.75181,2.966123 16.75181,2.747686 c -0.6943,0.425371 -0.92153,0.850743 -1.85568,0.850743 -0.70693,0 -1.62849,0 -2.56265,0.206936 -0.6943,0 -1.62847,0.425372 -2.32278,1.069179 -0.46707,0.413882 -1.16141,1.057688 -2.33542,1.48306 -1.1614,0.632319 -3.0171,0.839254 -5.11264,0.632319 1.8557,1.057677 3.0171,1.48306 4.41833,1.48306 1.40125,0 2.56266,-0.425383 4.19113,-0.850753 1.16138,-0.632307 2.09554,-0.632307 3.25692,-0.425372 1.16141,0 1.85571,0.218436 3.72405,0.425372 h 0.22721 c -0.22719,0 -0.22719,0 -0.22719,0 -1.62848,0.218435 -11.17206,5.299925 -11.17206,5.299925 1.40124,0 -1.16142,1.276127 -1.6285,1.908433 -0.22722,-0.632306 -0.22722,-1.05769 -0.46708,-1.48306 -0.22722,-0.425373 -0.46708,-0.850744 -0.93417,-1.05768 -1.38861,2.115369 -3.01708,2.966112 -4.41833,4.230737 -1.38862,1.276126 -2.78985,2.552241 -3.25694,5.092993 -0.22723,-0.64381 -0.46709,-1.276128 -0.69431,-1.908434 -0.23985,-0.425371 -0.46706,-0.850755 -0.93415,-1.057689 -1.38863,2.115368 -2.78986,3.173057 -3.95125,4.656118 -1.16139,1.276125 -2.09557,2.540739 -2.56265,4.874555 -0.22723,-0.632318 -1.38863,-2.333816 -1.85571,-2.54075 -1.16139,2.759188 -2.78984,4.4491831 -4.19109,6.1391793 -1.16141,1.9084326 -1.86833,4.0353004 -1.16141,7.63373011 0.22724,1.05768993 0.4671,3.59842949 0.4671,4.24223819 -0.23985,-1.4830632 -0.70692,-2.9661126 -1.40125,-4.03530323 -0.6943,-1.26462517 -1.62847,-2.11536767 -2.78987,-2.32230267 -0.93414,1.68999688 -1.8683,2.9661101 -2.78986,4.449172 -0.70692,1.483062 -1.17401,2.9661215 -1.40123,4.6561196 -0.46709,-0.4253721 -1.85571,-1.0576912 -2.32279,-1.0576912 -0.23986,2.7591887 -1.62848,4.6676209 -2.33541,6.5760539 -0.69431,1.896932 -0.69431,4.023801 1.62846,7.19686 1.17403,1.05769 -3.01708,-2.747688 -4.418318,-2.747688 -0.227219,1.896945 -2.562639,7.415308 -2.322781,9.105304 -0.467085,-0.206935 -1.868318,-0.632318 -2.095543,-0.632318 0.227203,2.759186 -0.227227,5.081489 -0.69432,7.415306 -0.706935,3.816866 2.550005,6.782975 1.16139,5.299913 -1.16139,-1.483047 -1.868325,-1.908432 -3.256939,-1.908432 0.227202,3.173058 -0.239856,4.449184 -0.694309,5.72531 -0.467092,1.264613 -0.467092,3.379993 0.454453,5.506861 -0.454453,-0.425383 -3.256952,-0.850754 -3.711402,-0.850754 0.921533,2.759188 0.694307,4.449184 0.921533,6.564551 0.467081,2.126871 1.62847,4.035301 4.418339,5.7253 1.868325,0.850754 2.095551,2.115379 0,0.632316 -1.855696,-1.483059 -3.951258,-2.54075 -5.579726,-2.322315 0.934161,2.322315 0.934161,4.65612 1.401242,6.771489 0.227215,1.908433 0.694307,3.816864 2.322788,5.299926 -0.934173,-0.632307 -4.418348,-1.264626 -5.352506,-1.264626 1.401251,2.747686 1.86833,4.874558 2.562637,6.771487 0.467081,2.126869 1.62847,3.816879 4.418328,6.150681 -0.934163,-0.425383 -4.191102,-0.632318 -4.88541,-0.425383 0.934163,1.908446 1.855697,7.840679 2.562632,9.116806 -0.46708,0 -1.868324,0.425372 -2.335407,0.632306 1.628472,2.115368 4.430958,9.116803 6.753747,10.599856 -0.46707,0 -2.322789,0.20694 -2.789869,0.41387 1.161398,1.7015 3.25695,7.20837 4.178484,8.48449 -0.227216,0 -1.388615,0.6323 -1.62846,0.6323 1.868318,1.7015 2.802479,3.3915 3.724019,4.87456 0.934158,1.69001 2.095548,2.96613 4.191108,4.02382 -0.69432,0 -2.56265,0.42535 -2.78987,0.64379 1.40125,1.48306 5.35251,6.34612 6.74112,7.41531 -0.69431,0 -2.78987,0.83925 -3.0171,1.05768 2.32279,1.48306 3.48419,2.96613 4.64559,4.23074 1.174,1.27612 2.56262,2.55224 4.89803,3.18456 -0.70693,0 -2.80249,0.63232 -3.02973,0.85076 2.78988,1.90843 3.25695,3.17302 3.72403,4.44917 0.22723,1.05768 0.69432,1.68999 3.25694,2.74768 -0.22721,0 -0.93416,0.42537 -0.93416,0.64379 2.78986,1.48308 4.41833,3.80537 6.98098,5.71382 2.56262,1.90843 5.81957,3.60993 12.10622,3.60993 3.0171,2.74769 8.60947,6.13918 14.88348,8.67992 6.04683,2.55224 12.57336,4.66761 18.38029,5.29992 -2.78988,-0.85075 -4.64557,-2.54074 -5.57973,-4.0238 -13.72208,-3.17306 -22.10429,-9.54217 -23.26569,-11.4391 -0.46709,-0.85074 -1.62847,-5.72531 -1.86833,-7.20836 0,0 0,0 0,-0.20694 3.9639,3.17307 8.155,5.93225 12.5733,8.04761 4.1785,2.11537 8.36964,3.59844 12.78794,4.4492 -1.85567,2.33379 -0.22719,5.72529 0,5.93224 0.93419,1.48305 2.8025,3.18456 5.59236,4.24223 0.22719,0 0.69434,0 1.16141,0 -0.22718,0 -0.46707,0.20692 -0.69433,0.20692 -2.33539,0.42538 -8.3822,1.7015 -11.63916,2.11538 -0.22718,0 -0.22718,0 -0.46708,0 -4.19108,0.64379 -7.2082,0.85075 -7.2082,0.85075 -0.46707,0.85075 0.46706,1.70149 1.62848,2.54074 0.93416,0.6438 2.09557,1.06919 2.3228,1.27613 0,0 0.23978,0 0.46706,0 3.72402,-0.85074 14.18917,-3.39151 17.68598,-4.02383 -1.62849,2.96614 -4.41835,4.4492 -7.91513,5.50689 -3.25695,0.85074 -7.20821,1.27611 -10.70499,2.33381 0.23979,0 1.16136,0.83926 1.62844,1.68999 0.70694,0.6323 1.40125,1.48306 1.40125,1.27611 7.6753,-1.70149 12.09362,-4.0238 14.18917,-5.93224 2.56265,-1.90842 2.78986,-3.18455 2.78986,-3.18455 l 0.46707,1.90843 c 0,0 -0.46707,1.90845 -2.55,4.02382 -2.09555,2.12687 -5.81957,4.24222 -12.33343,5.09298 l 2.09552,0.83924 2.08292,0.85075 c 3.02972,0 5.35251,-0.63231 7.22083,-2.11536 2.09557,-1.48307 3.72403,-3.60991 5.35249,-6.78298 0,0 0,0 0.22721,0 0.23979,0.20692 1.16138,0.63231 2.09555,0.85074 h 0.23981 c 0.45444,0 0.92151,0 1.38862,-0.21843 0.69431,-0.20693 1.40123,-0.42539 1.86831,-0.83926 1.38864,2.96612 3.01709,5.08149 5.11266,6.77149 1.86833,1.48305 4.1911,2.3338 6.98097,2.55225 0.69429,-0.21845 1.62845,-0.64381 2.32278,-1.0692 0.70693,-0.20693 0.93416,-0.6323 0.93416,-0.6323 -4.19109,-0.42538 -7.91515,-2.75919 -10.23791,-5.08149 -2.56265,-2.12688 -3.95126,-4.44919 -3.95126,-4.44919 0.22722,-0.21841 0.69431,-1.70149 0.69431,-1.70149 0.22717,1.05769 2.56264,3.18455 5.57971,5.29994 3.02973,2.11535 6.75377,3.81685 10.01069,4.24224 0,0 0.46709,-0.64382 0.93417,-1.48307 0.46708,-0.64382 1.1614,-1.48306 1.1614,-1.70149 -2.78989,0.42536 -7.22084,-1.48307 -10.70498,-3.59843 -3.25697,-1.90846 -5.81961,-4.0238 -6.28669,-4.4492 -0.2272,0 -0.2272,0 -0.2272,0 z m -13.73473,-5.7253 0.23979,0.21843 c -0.69428,-0.42536 -6.5139,-3.18456 -3.96386,-6.15066 0.23978,0 0.23978,-0.20693 0.46708,-0.20693 2.09557,-1.7015 4.65816,-0.64381 4.65816,-0.64381 -3.95123,2.3338 -2.09553,6.57604 -1.40123,6.783"
     id="path283" />
</svg>
