<?xml version="1.0" encoding="UTF-8" standalone="no"?>
<svg
   xmlns:dc="http://purl.org/dc/elements/1.1/"
   xmlns:cc="http://creativecommons.org/ns#"
   xmlns:rdf="http://www.w3.org/1999/02/22-rdf-syntax-ns#"
   xmlns:svg="http://www.w3.org/2000/svg"
   xmlns="http://www.w3.org/2000/svg"
   xmlns:sodipodi="http://sodipodi.sourceforge.net/DTD/sodipodi-0.dtd"
   xmlns:inkscape="http://www.inkscape.org/namespaces/inkscape"
   width="50mm"
   height="40mm"
   viewBox="0 0 350 111.02804"
   version="1.1"
   id="svg8"
   sodipodi:docname="mobydigital.svg"
   inkscape:version="1.0.2 (e86c870879, 2021-01-15)">
  <sodipodi:namedview
     pagecolor="#ffffff"
     bordercolor="#666666"
     borderopacity="1"
     objecttolerance="10"
     gridtolerance="10"
     guidetolerance="10"
     inkscape:pageopacity="0"
     inkscape:pageshadow="2"
     inkscape:window-width="1920"
     inkscape:window-height="1019"
     id="namedview1157"
     showgrid="false"
     inkscape:zoom="3.6200934"
     inkscape:cx="120.99608"
     inkscape:cy="76.788044"
     inkscape:window-x="0"
     inkscape:window-y="32"
     inkscape:window-maximized="1"
     inkscape:current-layer="svg8"
     inkscape:document-rotation="0" />
  <defs
     id="defs2" />
  <metadata
     id="metadata5">
    <rdf:RDF>
      <cc:Work
         rdf:about="">
        <dc:format>image/svg+xml</dc:format>
        <dc:type
           rdf:resource="http://purl.org/dc/dcmitype/StillImage" />
        <dc:title></dc:title>
      </cc:Work>
    </rdf:RDF>
  </metadata>
  <path
     style="stroke-width:1.61471"
     d="M 159.24783,181.5675 C 112.31295,171.72007 76.155514,146.07736 57.71476,109.56065 49.872024,94.030297 47.32677,80.569612 47.202449,53.965703 47.081185,28.018766 49.502289,13.293626 57.347259,-7.7350246 70.73718,-43.627165 90.157514,-63.803308 114.03749,-66.631491 c 7.41525,-0.878261 8.07196,-0.681566 8.07196,2.417156 0,1.976408 -4.67779,8.254348 -11.29674,15.161004 -6.21321,6.483302 -11.299556,12.236214 -11.302986,12.784311 -0.003,0.548036 2.969666,2.965802 6.606886,5.372766 20.51752,13.577864 21.19773,21.5340876 1.39798,16.35167 -4.85015,-1.269515 -12.067376,-3.768449 -16.038266,-5.553227 -5.2189,-2.345691 -7.79205,-2.770144 -9.2846,-1.531388 -2.68268,2.226381 -2.59925,9.963023 0.20573,19.0800103 9.65565,31.3834167 40.314286,53.7911897 81.922026,59.8749987 17.72718,2.592063 51.62535,0.952044 68.39775,-3.309149 19.62332,-4.98554 32.469,-5.777567 43.18413,-2.662551 15.84595,4.606553 22.27967,12.903133 24.58642,31.705403 3.35711,27.363537 -14.69825,65.566757 -38.70572,81.897317 -25.71736,17.49363 -66.68961,24.13122 -102.53424,16.61067 z M 219.06342,41.855391 c -0.207,-9.018365 -2.46334,-17.862675 -5.87938,-23.04607 -2.86939,-4.353956 -2.91254,-4.36311 -3.79493,-0.806919 -1.66977,6.729552 -6.05444,10.127924 -13.06727,10.127924 -14.54916,0 -22.03093,-9.719399 -16.33843,-21.2249802 l 3.01467,-6.0932075 -8.12824,-5.313751 C 163.82816,-11.720064 160.3171,-18.906474 160.41493,-34.0878 c 0.0798,-12.375908 4.41077,-24.88376 11.29458,-32.618451 8.24472,-9.263821 27.7145,-12.739945 42.71969,-7.627158 7.26547,2.475621 17.90147,10.787824 19.3177,15.097168 0.58532,1.781117 1.45826,1.865214 4.18919,0.403399 4.90552,-2.625324 19.20388,-2.285029 25.28762,0.601741 17.10172,8.115325 14.54816,41.06455 -3.62257,46.74264 -2.76185,0.863004 -3.3116,1.6701066 -2.01839,2.9633615 3.35747,3.3574828 2.09038,13.8827018 -2.18614,18.1592123 -6.35909,6.3591092 -15.41316,4.5565102 -15.41316,-3.068695 0,-3.0191415 -0.13609,-3.0334835 -3.12467,-0.328944 -4.17878,3.7817532 -9.50835,15.2068372 -13.97902,29.9670062 -3.42395,11.30437 -3.67792,11.680489 -3.81634,5.651483 z"
     id="path24" />
</svg>
